<ttFont>
          <CharString index="0">
            6 -2 4 -7 vhcurveto
            -17 hlineto
            -7 -2 -4 -6 hvcurveto
            return
          </CharString>
          <CharString index="1">
            7 -182 rlineto
            -7 4 -3 5 vhcurveto
            3 hlineto
            5 4 3 7 hvcurveto
            return
          </CharString>
          <CharString index="2">
            67 19 -26 -68 hvcurveto
            -48 vlineto
            -68 -19 -27 -67 vhcurveto
            -16 hlineto
            -67 -20 27 68 hvcurveto
            48 vlineto
            68 20 26 67 vhcurveto
            return
          </CharString>
          <CharString index="3">
            -81 -36 -38 -83 hvcurveto
            -50 vlineto
            -83 36 -39 81 vhcurveto
            16 hlineto
            81 35 39 83 hvcurveto
            50 vlineto
            83 -35 38 -81 vhcurveto
            return
          </CharString>
          <CharString index="4">
            7 -3 2 -5 vhcurveto
            -21 hlineto
            -5 -3 -2 -7 hvcurveto
            return
          </CharString>
          <CharString index="5">
            -223 vlineto
            -5 3 -1 2 vhcurveto
            3 0 2 2 1 4 rrcurveto
            18 89 rlineto
            return
          </CharString>
          <CharString index="6">
            5 24 3 14 0 17 rrcurveto
            return
          </CharString>
          <CharString index="7">
            7 -3 2 -5 vhcurveto
            -21 hlineto
            -5 -3 -2 -7 hvcurveto
            -119 vlineto
            -7 3 -2 5 vhcurveto
            21 hlineto
            5 3 2 7 hvcurveto
            return
          </CharString>
          <CharString index="8">
            -601 vlineto
            -7 3 -2 5 vhcurveto
            14 hlineto
            5 3 2 7 hvcurveto
            625 vlineto
            7 -3 2 -5 vhcurveto
            -12 hlineto
            -8 0 -4 -3 -4 -2 rrcurveto
            -135 -75 rlineto
            -9 -5 -2 -4 0 -10 rrcurveto
            -6 vlineto
            0 -9 6 -3 10 7 rrcurveto
            return
          </CharString>
          <CharString index="9">
            -5 2 -3 7 vhcurveto
            332 hlineto
            7 2 3 5 hvcurveto
            12 vlineto
            5 -2 3 -7 vhcurveto
            -311 70 hlineto
            0 40 16 27 34 26 rrcurveto
            202 151 rlineto
            38 28 26 46 0 51 rrcurveto
            43 vlineto
            83 -53 50 -81 vhcurveto
            -82 hlineto
            -81 -53 -50 -83 hvcurveto
            -49 vlineto
            -7 3 -2 5 vhcurveto
            14 hlineto
            5 3 2 7 hvcurveto
            48 vlineto
            68 37 38 67 vhcurveto
            82 hlineto
            67 37 -38 -68 hvcurveto
            -41 vlineto
            0 -44 -19 -36 -34 -25 rrcurveto
            -200 -149 rlineto
            -39 -28 -24 -38 0 -54 rrcurveto
            return
          </CharString>
          <CharString index="10">
            -7 -2 -3 -5 hvcurveto
            -12 vlineto
            -5 2 -3 7 vhcurveto
            62 hlineto
            67 37 -38 -68 hvcurveto
            -70 vlineto
            -68 -37 -38 -67 vhcurveto
            -85 hlineto
            -67 -37 38 68 hvcurveto
            49 vlineto
            7 -3 2 -5 vhcurveto
            -14 hlineto
            -5 -3 -2 -7 hvcurveto
            -50 vlineto
            -83 53 -50 81 vhcurveto
            85 hlineto
            81 53 50 83 hvcurveto
            72 vlineto
            0 72 -39 35 -45 12 47 14 37 33 0 72 rrcurveto
            67 vlineto
            83 -53 50 -81 vhcurveto
            -85 hlineto
            -81 -53 -50 -83 hvcurveto
            -39 vlineto
            -7 3 -2 5 vhcurveto
            14 hlineto
            5 3 2 7 hvcurveto
            38 vlineto
            68 37 38 67 vhcurveto
            85 hlineto
            67 37 -38 -68 hvcurveto
            -65 vlineto
            -68 -37 -38 -67 vhcurveto
            return
          </CharString>
          <CharString index="11">
            5 3 2 7 hvcurveto
            126 76 vlineto
            7 2 3 5 hvcurveto
            12 vlineto
            5 -2 3 -7 vhcurveto
            -76 471 hlineto
            7 -3 2 -5 vhcurveto
            -29 hlineto
            -10 0 -5 -4 -4 -7 rrcurveto
            -278 -461 rlineto
            -4 -6 -2 -3 0 -7 rrcurveto
            -12 vlineto
            -5 2 -3 7 vhcurveto
            301 -126 hlineto
            -7 3 -2 5 vhcurveto
            return
          </CharString>
          <CharString index="12">
            7 0 5 2 2 7 rrcurveto
            221 602 rlineto
            2 5 1 3 0 6 rrcurveto
            10 vlineto
            5 -2 3 -7 vhcurveto
            -314 hlineto
            -7 -2 -3 -5 hvcurveto
            -12 vlineto
            -5 2 -3 7 vhcurveto
            290 0 -221 -601 rlineto
            -3 -7 1 -7 8 0 rrcurveto
            return
          </CharString>
          <CharString index="13">
            -67 -37 38 68 hvcurveto
            65 vlineto
            68 37 38 67 vhcurveto
            105 hlineto
            67 37 -38 -68 hvcurveto
            -65 vlineto
            -68 -37 -38 -67 vhcurveto
            return
          </CharString>
          <CharString index="14">
            -67 -37 41 68 hvcurveto
            103 vlineto
            68 37 41 67 vhcurveto
            92 hlineto
            67 37 -41 -68 hvcurveto
            -212 vlineto
            return
          </CharString>
          <CharString index="15">
            -7 -2 -3 -5 hvcurveto
            -12 vlineto
            -5 2 -3 7 vhcurveto
            354 hlineto
            7 2 3 5 hvcurveto
            12 vlineto
            5 -2 3 -7 vhcurveto
            return
          </CharString>
          <CharString index="16">
            5 0 3 2 3 7 rrcurveto
            61 174 280 0 61 -174 rlineto
            2 -7 3 -2 5 0 rrcurveto
            15 hlineto
            5 0 3 2 -2 7 rrcurveto
            -210 625 rlineto
            -2 7 -3 2 -5 0 rrcurveto
            -24 hlineto
            -5 0 -3 -2 -2 -7 rrcurveto
            -210 -625 rlineto
            -2 -7 3 -2 5 0 rrcurveto
            return
          </CharString>
          <CharString index="17">
            4 0 127 -392 -258 0 rlineto
            return
          </CharString>
          <CharString index="18">
            81 53 53 83 hvcurveto
            50 vlineto
            7 -3 2 -5 vhcurveto
            -14 hlineto
            -5 -3 -2 -7 hvcurveto
            -49 vlineto
            -68 -37 -41 -67 vhcurveto
            -130 hlineto
            -67 -37 41 68 hvcurveto
            369 vlineto
            68 37 41 67 vhcurveto
            130 hlineto
            67 37 -41 -68 hvcurveto
            -49 vlineto
            -7 3 -2 5 vhcurveto
            14 hlineto
            5 3 2 7 hvcurveto
            50 vlineto
            83 -53 53 -81 vhcurveto
            -130 hlineto
            -81 -53 -53 -83 hvcurveto
            -371 vlineto
            -83 53 -53 81 vhcurveto
            return
          </CharString>
          <CharString index="19">
            -7 -2 3 5 hvcurveto
            571 vlineto
            5 2 3 7 vhcurveto
            215 hlineto
            67 37 -41 -68 hvcurveto
            -369 vlineto
            -68 -37 -41 -67 vhcurveto
            return
          </CharString>
          <CharString index="20">
            -7 3 -2 5 vhcurveto
            246 hlineto
            81 53 53 83 hvcurveto
            371 vlineto
            83 -53 53 -81 vhcurveto
            -246 hlineto
            -5 -3 -2 -7 hvcurveto
            return
          </CharString>
          <CharString index="21">
            7 2 3 5 hvcurveto
            12 vlineto
            5 -2 3 -7 vhcurveto
            -273 hlineto
            -7 -2 3 5 hvcurveto
            270 vlineto
            5 2 3 7 vhcurveto
            247 hlineto
            7 2 3 5 hvcurveto
            12 vlineto
            5 -2 3 -7 vhcurveto
            -247 hlineto
            -7 -2 3 5 hvcurveto
            257 vlineto
            5 2 3 7 vhcurveto
            273 hlineto
            7 2 3 5 hvcurveto
            12 vlineto
            5 -2 3 -7 vhcurveto
            -304 hlineto
            -5 -3 -2 -7 hvcurveto
            -625 vlineto
            -7 3 -2 5 vhcurveto
            return
          </CharString>
          <CharString index="22">
            81 53 53 83 hvcurveto
            169 vlineto
            12 -8 7 -10 vhcurveto
            -150 hlineto
            -7 -2 -3 -5 hvcurveto
            -12 vlineto
            -5 2 -3 7 vhcurveto
            129 hlineto
            7 2 -3 -5 hvcurveto
            -151 vlineto
            -68 -37 -41 -67 vhcurveto
            -110 hlineto
            -67 -37 41 68 hvcurveto
            369 vlineto
            68 37 41 67 vhcurveto
            110 hlineto
            67 37 -41 -68 hvcurveto
            -49 vlineto
            -7 3 -2 5 vhcurveto
            14 hlineto
            5 3 2 7 hvcurveto
            50 vlineto
            83 -53 53 -81 vhcurveto
            -110 hlineto
            -81 -53 -53 -83 hvcurveto
            -371 vlineto
            -83 53 -53 81 vhcurveto
            return
          </CharString>
          <CharString index="23">
            7 -3 2 -5 vhcurveto
            -14 hlineto
            -5 -3 -2 -7 hvcurveto
            -625 vlineto
            -7 3 -2 5 vhcurveto
            14 hlineto
            5 3 2 7 hvcurveto
            return
          </CharString>
          <CharString index="24">
            -5 -3 -3 -6 hvcurveto
            -497 vlineto
            -68 -37 -41 -67 vhcurveto
            -100 hlineto
            -67 -37 41 68 hvcurveto
            79 vlineto
            7 -3 2 -5 vhcurveto
            -14 hlineto
            -5 -3 -2 -7 hvcurveto
            -80 vlineto
            -83 53 -53 81 vhcurveto
            100 hlineto
            81 53 53 83 hvcurveto
            499 vlineto
            5 -3 3 -5 vhcurveto
            return
          </CharString>
          <CharString index="25">
            5 3 2 7 hvcurveto
            0 193 114 137 222 -330 rlineto
            5 -8 4 -1 6 0 rrcurveto
            16 hlineto
            5 0 3 3 -4 6 rrcurveto
            -238 354 204 271 rlineto
            6 7 -3 2 -5 0 rrcurveto
            -19 hlineto
            -5 0 -4 0 -7 -9 rrcurveto
            -281 -367 rlineto
            -4 -5 -8 -13 -3 -7 rrcurveto
            -4 392 hlineto
            7 -3 2 -5 vhcurveto
            -14 hlineto
            -5 -3 -2 -7 hvcurveto
            -625 vlineto
            -7 3 -2 5 vhcurveto
            return
          </CharString>
          <CharString index="26">
            7 2 3 5 hvcurveto
            14 vlineto
            5 -2 3 -7 vhcurveto
            -284 hlineto
            -7 -2 3 5 hvcurveto
            596 vlineto
            7 -3 2 -5 vhcurveto
            -14 hlineto
            -5 -3 -2 -7 hvcurveto
            -625 vlineto
            -7 3 -2 5 vhcurveto
            return
          </CharString>
          <CharString index="27">
            5 3 2 7 hvcurveto
            564 4 vlineto
            334 -565 rlineto
            4 -6 2 -2 6 0 rrcurveto
            10 hlineto
            5 3 2 7 hvcurveto
            625 vlineto
            7 -3 2 -5 vhcurveto
            -14 hlineto
            -5 -3 -2 -7 hvcurveto
            -562 -4 vlineto
            -335 567 rlineto
            -1 2 -2 2 -4 0 rrcurveto
            -14 hlineto
            -5 -3 -2 -7 hvcurveto
            -625 vlineto
            -7 3 -2 5 vhcurveto
            return
          </CharString>
          <CharString index="28">
            -67 -37 41 68 hvcurveto
            369 vlineto
            68 37 41 67 vhcurveto
            125 hlineto
            67 37 -41 -68 hvcurveto
            -369 vlineto
            -68 -37 -41 -67 vhcurveto
            return
          </CharString>
          <CharString index="29">
            81 53 53 83 hvcurveto
            371 vlineto
            83 -53 53 -81 vhcurveto
            -125 hlineto
            -81 -53 -53 -83 hvcurveto
            -371 vlineto
            -83 53 -53 81 vhcurveto
            return
          </CharString>
          <CharString index="30">
            5 3 2 7 hvcurveto
            254 vlineto
            5 2 3 7 vhcurveto
            183 0 122 -262 rlineto
            4 -7 3 -2 6 0 rrcurveto
            18 hlineto
            5 0 2 3 -3 6 rrcurveto
            -123 260 0 4 rlineto
            68 9 43 50 0 75 rrcurveto
            100 vlineto
            83 -53 53 -81 vhcurveto
            -225 hlineto
            -5 -3 -2 -7 hvcurveto
            -625 vlineto
            -7 3 -2 5 vhcurveto
            return
          </CharString>
          <CharString index="31">
            -7 -2 3 5 hvcurveto
            300 vlineto
            5 2 3 7 vhcurveto
            194 hlineto
            67 37 -41 -68 hvcurveto
            -98 vlineto
            -68 -37 -41 -67 vhcurveto
            return
          </CharString>
          <CharString index="32">
            -83 53 -53 81 vhcurveto
            120 hlineto
            81 53 53 83 hvcurveto
            53 vlineto
            0 196 -358 -90 0 153 rrcurveto
            58 vlineto
            68 37 41 67 vhcurveto
            120 hlineto
            67 37 -41 -68 hvcurveto
            -29 vlineto
            -7 3 -2 5 vhcurveto
            14 hlineto
            5 3 2 7 hvcurveto
            30 vlineto
            83 -53 53 -81 vhcurveto
            -120 hlineto
            -81 -53 -53 -83 hvcurveto
            -60 vlineto
            0 -180 358 91 0 -171 rrcurveto
            -50 vlineto
            -68 -37 -41 -67 vhcurveto
            -120 hlineto
            -67 -37 41 68 hvcurveto
            39 vlineto
            7 -3 2 -5 vhcurveto
            -14 hlineto
            -5 -3 -2 -7 hvcurveto
            return
          </CharString>
          <CharString index="33">
            5 3 2 7 hvcurveto
            598 vlineto
            5 2 3 7 vhcurveto
            154 hlineto
            7 2 3 5 hvcurveto
            12 vlineto
            5 -2 3 -7 vhcurveto
            -356 hlineto
            -7 -2 -3 -5 hvcurveto
            -12 vlineto
            -5 2 -3 7 vhcurveto
            154 hlineto
            7 2 -3 -5 hvcurveto
            -598 vlineto
            -7 3 -2 5 vhcurveto
            return
          </CharString>
          <CharString index="34">
            -5 -3 -3 -6 hvcurveto
            -497 vlineto
            -68 -37 -41 -67 vhcurveto
            -112 hlineto
            -67 -37 41 68 hvcurveto
            497 vlineto
            7 -3 2 -5 vhcurveto
            -14 hlineto
            -5 -3 -2 -7 hvcurveto
            -498 vlineto
            -83 53 -53 81 vhcurveto
            112 hlineto
            81 53 53 83 hvcurveto
            499 vlineto
            5 -3 3 -5 vhcurveto
            return
          </CharString>
          <CharString index="35">
            5 0 3 3 2 6 rrcurveto
            164 590 4 0 164 -590 rlineto
            2 -6 4 -3 5 0 rrcurveto
            27 hlineto
            5 0 3 1 2 8 rrcurveto
            145 625 rlineto
            2 7 -3 2 -5 0 rrcurveto
            -15 hlineto
            -5 0 -4 -1 -2 -8 rrcurveto
            -135 -596 -4 0 -168 596 rlineto
            -2 7 -3 2 -6 0 rrcurveto
            -19 hlineto
            -6 0 -3 -2 -2 -7 rrcurveto
            -167 -596 -4 0 -135 596 rlineto
            -2 7 -3 2 -5 0 rrcurveto
            -14 hlineto
            -7 0 -2 -3 1 -6 rrcurveto
            145 -625 rlineto
            2 -7 4 -2 5 0 rrcurveto
            return
          </CharString>
          <CharString index="36">
            5 3 2 7 hvcurveto
            0 236 197 389 rlineto
            3 6 -3 3 -5 0 rrcurveto
            -18 hlineto
            -5 0 -3 -2 -3 -7 rrcurveto
            -176 -350 -4 0 -176 350 rlineto
            -3 7 -3 2 -5 0 rrcurveto
            -18 hlineto
            -5 0 -3 -3 3 -6 rrcurveto
            197 -389 0 -236 rlineto
            -7 3 -2 5 vhcurveto
            return
          </CharString>
          <CharString index="37">
            -5 2 -3 7 vhcurveto
            373 hlineto
            7 2 3 5 hvcurveto
            12 vlineto
            5 -2 3 -7 vhcurveto
            -347 4 hlineto
            344 576 rlineto
            2 3 0 3 0 2 rrcurveto
            19 vlineto
            5 -2 3 -7 vhcurveto
            -353 hlineto
            -7 -2 -3 -5 hvcurveto
            -12 vlineto
            -5 2 -3 7 vhcurveto
            327 -4 hlineto
            -344 -577 rlineto
            -2 -3 0 -2 0 -4 rrcurveto
            return
          </CharString>
          <CharString index="38">
            7 2 3 5 hvcurveto
            12 vlineto
            5 -2 3 -7 vhcurveto
            -354 hlineto
            -7 -2 -3 -5 hvcurveto
            -12 vlineto
            -5 2 -3 7 vhcurveto
            return
          </CharString>
          <CharString index="39">
            -3 6 -5 3 -7 0 rrcurveto
            -30 hlineto
            -5 0 -3 -4 4 -5 rrcurveto
            92 -112 rlineto
            4 -5 5 -3 5 0 rrcurveto
            8 hlineto
            5 0 1 4 -3 5 rrcurveto
            return
          </CharString>
          <CharString index="40">
            63 0 29 26 14 26 rrcurveto
            4 -43 hlineto
            -7 3 -2 5 vhcurveto
            14 hlineto
            5 3 2 7 hvcurveto
            492 vlineto
            7 -3 2 -5 vhcurveto
            -206 hlineto
            -81 -53 -53 -83 hvcurveto
            -238 vlineto
            -83 53 -53 81 vhcurveto
            return
          </CharString>
          <CharString index="41">
            -69 -47 -35 -65 vhcurveto
            -72 hlineto
            -67 -37 41 68 hvcurveto
            236 vlineto
            68 37 41 67 vhcurveto
            175 hlineto
            7 2 -3 -5 hvcurveto
            return
          </CharString>
          <CharString index="42">
            5 -2 3 -7 vhcurveto
            -142 hlineto
            -67 -37 41 68 hvcurveto
            236 vlineto
            68 37 41 67 vhcurveto
            142 hlineto
            7 2 3 5 hvcurveto
            12 vlineto
            5 -2 3 -7 vhcurveto
            -142 hlineto
            -81 -53 -53 -83 hvcurveto
            -238 vlineto
            -83 53 -53 81 vhcurveto
            142 hlineto
            7 2 3 5 hvcurveto
            return
          </CharString>
          <CharString index="43">
            63 0 29 26 14 26 rrcurveto
            4 -43 hlineto
            -7 3 -2 5 vhcurveto
            14 hlineto
            5 3 2 7 hvcurveto
            685 vlineto
            7 -3 2 -5 vhcurveto
            -14 hlineto
            -5 -3 -2 -7 hvcurveto
            -236 -4 vlineto
            -14 26 -29 26 -63 0 rrcurveto
            -74 hlineto
            -81 -53 -53 -83 hvcurveto
            -238 vlineto
            -83 53 -53 81 vhcurveto
            return
          </CharString>
          <CharString index="44">
            -69 -47 -35 -65 vhcurveto
            -72 hlineto
            -67 -37 41 68 hvcurveto
            236 vlineto
            68 37 41 67 vhcurveto
            72 hlineto
            65 47 -35 -69 hvcurveto
            return
          </CharString>
          <CharString index="45">
            7 2 3 5 hvcurveto
            12 vlineto
            5 -2 3 -7 vhcurveto
            -205 hlineto
            -67 -37 41 68 hvcurveto
            92 vlineto
            5 2 3 7 vhcurveto
            308 hlineto
            7 2 3 7 hvcurveto
            127 vlineto
            83 -53 53 -81 vhcurveto
            -88 hlineto
            -81 -53 -53 -83 hvcurveto
            -238 vlineto
            -83 53 -53 81 vhcurveto
            return
          </CharString>
          <CharString index="46">
            -7 -2 3 5 hvcurveto
            100 vlineto
            68 37 41 67 vhcurveto
            88 hlineto
            67 37 -41 -68 hvcurveto
            -100 vlineto
            -5 -2 -3 -7 vhcurveto
            return
          </CharString>
          <CharString index="47">
            63 0 29 26 14 26 rrcurveto
            4 -78 hlineto
            -68 -37 -41 -67 vhcurveto
            -179 hlineto
            -7 -2 -3 -5 hvcurveto
            -12 vlineto
            -5 2 -3 7 vhcurveto
            179 hlineto
            81 53 53 83 hvcurveto
            498 vlineto
            7 -3 2 -5 vhcurveto
            -206 hlineto
            -81 -53 -53 -83 hvcurveto
            -208 vlineto
            -83 53 -53 81 vhcurveto
            return
          </CharString>
          <CharString index="48">
            -69 -47 -35 -65 vhcurveto
            -72 hlineto
            -67 -37 41 68 hvcurveto
            206 vlineto
            68 37 41 67 vhcurveto
            175 hlineto
            7 2 -3 -5 hvcurveto
            return
          </CharString>
          <CharString index="49">
            5 3 2 7 hvcurveto
            369 vlineto
            69 47 35 65 vhcurveto
            72 hlineto
            67 37 -41 -68 hvcurveto
            -364 vlineto
            -7 3 -2 5 vhcurveto
            14 hlineto
            5 3 2 7 hvcurveto
            365 vlineto
            83 -53 53 -81 vhcurveto
            -74 hlineto
            -63 0 -29 -26 -14 -26 rrcurveto
            -4 236 hlineto
            7 -3 2 -5 vhcurveto
            -14 hlineto
            -5 -3 -2 -7 hvcurveto
            -685 vlineto
            -7 3 -2 5 vhcurveto
            return
          </CharString>
          <CharString index="50">
            -7 3 -2 5 vhcurveto
            14 hlineto
            5 3 2 7 hvcurveto
            99 vlineto
            7 -3 2 -5 vhcurveto
            -14 hlineto
            -5 -3 -2 -7 hvcurveto
            return
          </CharString>
          <CharString index="51">
            -7 3 -2 5 vhcurveto
            14 hlineto
            5 3 2 7 hvcurveto
            492 vlineto
            7 -3 2 -5 vhcurveto
            -14 hlineto
            -5 -3 -2 -7 hvcurveto
            return
          </CharString>
          <CharString index="52">
            81 53 53 83 hvcurveto
            498 vlineto
            7 -3 2 -5 vhcurveto
            -14 hlineto
            -5 -3 -2 -7 hvcurveto
            -497 vlineto
            -68 -37 -41 -67 vhcurveto
            -20 hlineto
            -7 -2 -3 -5 hvcurveto
            -12 vlineto
            -5 2 -3 7 vhcurveto
            return
          </CharString>
          <CharString index="53">
            -2 -3 0 -6 2 -3 rrcurveto
            175 -249 rlineto
            6 -8 6 -1 6 0 rrcurveto
            17 hlineto
            4 0 4 3 -5 6 rrcurveto
            -180 253 0 4 159 235 rlineto
            4 5 -2 4 -6 0 rrcurveto
            -14 hlineto
            -8 0 -4 -1 -4 -6 rrcurveto
            return
          </CharString>
          <CharString index="54">
            5 3 2 7 hvcurveto
            685 vlineto
            7 -3 2 -5 vhcurveto
            -14 hlineto
            -5 -3 -2 -7 hvcurveto
            -685 vlineto
            -7 3 -2 5 vhcurveto
            return
          </CharString>
          <CharString index="55">
            5 3 2 7 hvcurveto
            369 vlineto
            69 47 35 65 vhcurveto
            72 hlineto
            67 37 -41 -68 hvcurveto
            -364 vlineto
            -7 3 -2 5 vhcurveto
            14 hlineto
            5 3 2 7 hvcurveto
            365 vlineto
            83 -53 53 -81 vhcurveto
            -74 hlineto
            -63 0 -29 -26 -14 -26 rrcurveto
            -4 43 hlineto
            7 -3 2 -5 vhcurveto
            -14 hlineto
            -5 -3 -2 -7 hvcurveto
            -492 vlineto
            -7 3 -2 5 vhcurveto
            return
          </CharString>
          <CharString index="56">
            81 53 53 83 hvcurveto
            238 vlineto
            83 -53 53 -81 vhcurveto
            -85 hlineto
            -81 -53 -53 -83 hvcurveto
            -238 vlineto
            -83 53 -53 81 vhcurveto
            return
          </CharString>
          <CharString index="57">
            -67 -37 41 68 hvcurveto
            236 vlineto
            68 37 41 67 vhcurveto
            85 hlineto
            67 37 -41 -68 hvcurveto
            -236 vlineto
            -68 -37 -41 -67 vhcurveto
            return
          </CharString>
          <CharString index="58">
            -65 -47 35 69 hvcurveto
            246 vlineto
            69 47 35 65 vhcurveto
            72 hlineto
            67 37 -41 -68 hvcurveto
            -236 vlineto
            -68 -37 -41 -67 vhcurveto
            return
          </CharString>
          <CharString index="59">
            5 3 2 7 hvcurveto
            354 vlineto
            74 46 45 67 vhcurveto
            41 hlineto
            7 2 3 5 hvcurveto
            12 vlineto
            5 -2 3 -7 vhcurveto
            -40 hlineto
            -66 0 -33 -34 -11 -20 rrcurveto
            -4 45 hlineto
            7 -3 2 -5 vhcurveto
            -14 hlineto
            -5 -3 -2 -7 hvcurveto
            -492 vlineto
            -7 3 -2 5 vhcurveto
            return
          </CharString>
          <CharString index="60">
            87 44 31 89 hvcurveto
            0 62 -7 56 -78 22 rrcurveto
            -131 47 rlineto
            -43 15 -25 19 0 45 rrcurveto
            27 vlineto
            31 24 38 67 vhcurveto
            161 hlineto
            7 2 3 5 hvcurveto
            12 vlineto
            5 -2 3 -7 vhcurveto
            -161 hlineto
            -87 -35 -45 -67 hvcurveto
            0 -63 23 -32 70 -24 rrcurveto
            132 -46 rlineto
            49 -17 11 -34 0 -44 rrcurveto
            -30 vlineto
            -54 -34 -26 -67 vhcurveto
            -170 hlineto
            -7 -2 -3 -5 hvcurveto
            -12 vlineto
            -5 2 -3 7 vhcurveto
            return
          </CharString>
          <CharString index="61">
            7 2 -3 -5 hvcurveto
            -341 vlineto
            -83 59 -50 81 vhcurveto
            38 hlineto
            7 2 3 5 hvcurveto
            12 vlineto
            5 -2 3 -7 vhcurveto
            -38 hlineto
            -67 -43 38 68 hvcurveto
            340 vlineto
            5 2 3 7 vhcurveto
            129 hlineto
            7 2 3 5 hvcurveto
            12 vlineto
            5 -2 3 -7 vhcurveto
            -129 hlineto
            -7 -2 3 5 hvcurveto
            78 vlineto
            7 -3 2 -5 vhcurveto
            -14 hlineto
            -5 -3 -2 -7 hvcurveto
            -78 vlineto
            -5 -2 -3 -7 vhcurveto
            -66 hlineto
            -7 -2 -3 -5 hvcurveto
            -12 vlineto
            -5 2 -3 7 vhcurveto
            return
          </CharString>
          <CharString index="62">
            63 0 29 26 14 26 rrcurveto
            4 -43 hlineto
            -7 3 -2 5 vhcurveto
            14 hlineto
            5 3 2 7 hvcurveto
            492 vlineto
            7 -3 2 -5 vhcurveto
            -14 hlineto
            -5 -3 -2 -7 hvcurveto
            -369 vlineto
            -69 -47 -35 -65 vhcurveto
            -72 hlineto
            -67 -37 41 68 hvcurveto
            364 vlineto
            7 -3 2 -5 vhcurveto
            -14 hlineto
            -5 -3 -2 -7 hvcurveto
            -365 vlineto
            -83 53 -53 81 vhcurveto
            return
          </CharString>
          <CharString index="63">
            6 0 3 2 2 7 rrcurveto
            124 445 4 0 124 -445 rlineto
            2 -7 3 -2 6 0 rrcurveto
            21 hlineto
            6 0 3 2 2 7 rrcurveto
            150 492 rlineto
            2 7 -3 2 -5 0 rrcurveto
            -16 hlineto
            -5 0 -3 -2 -2 -7 rrcurveto
            -138 -460 -4 0 -126 460 rlineto
            -2 8 -4 1 -5 0 rrcurveto
            -14 hlineto
            -5 0 -4 -1 -2 -8 rrcurveto
            -128 -460 -4 0 -138 460 rlineto
            -2 7 -3 2 -5 0 rrcurveto
            -15 hlineto
            -5 0 -3 -2 2 -7 rrcurveto
            150 -492 rlineto
            2 -7 3 -2 6 0 rrcurveto
            return
          </CharString>
          <CharString index="64">
            113 0 25 99 29 84 rrcurveto
            170 465 rlineto
            2 7 -3 2 -5 0 rrcurveto
            -16 hlineto
            -5 0 -3 -2 -2 -7 rrcurveto
            -163 -445 -4 0 -163 445 rlineto
            -2 7 -3 2 -5 0 rrcurveto
            -16 hlineto
            -5 0 -3 -2 2 -7 rrcurveto
            170 -465 rlineto
            2 -6 3 -3 6 0 rrcurveto
            10 hlineto
            -26 -66 -20 -80 -88 0 rrcurveto
            -29 hlineto
            -7 -2 -3 -5 hvcurveto
            -12 vlineto
            -5 2 -3 7 vhcurveto
            return
          </CharString>
          <CharString index="65">
            -5 2 -3 7 vhcurveto
            305 hlineto
            7 2 3 5 hvcurveto
            12 vlineto
            5 -2 3 -7 vhcurveto
            -273 4 hlineto
            274 450 rlineto
            2 3 0 3 0 2 rrcurveto
            12 vlineto
            5 -2 3 -7 vhcurveto
            -293 hlineto
            -7 -2 -3 -5 hvcurveto
            -12 vlineto
            -5 2 -3 7 vhcurveto
            262 -4 hlineto
            -275 -452 rlineto
            -2 -3 0 -2 0 -4 rrcurveto
            return
          </CharString>
          <CharString index="66">
            50 0 79 -29 54 0 26 0 30 5 23 10 12 5 4 3 0 6 rrcurveto
            9 vlineto
            6 -3 4 -5 vhcurveto
            -9 0 -35 -20 -42 0 -51 0 -74 29 -58 0 rrcurveto
            return
          </CharString>
          <CharString index="67">
            -26 0 -30 -5 -23 -10 rrcurveto
            return
          </CharString>
          <CharString index="68">
            -12 -5 -4 -3 0 -6 rrcurveto
            -9 vlineto
            return
          </CharString>
          <CharString index="69">
            -6 3 -4 5 vhcurveto
            9 0 35 20 42 0 rrcurveto
            return
          </CharString>
          <CharString index="70">
            7 -3 2 -5 vhcurveto
            -17 hlineto
            -5 -3 -2 -7 hvcurveto
            -249 vlineto
            -7 3 -2 5 vhcurveto
            17 hlineto
            5 3 2 7 hvcurveto
            return
          </CharString>
          <CharString index="71">
            -7 3 -2 5 vhcurveto
            14 hlineto
            5 3 2 7 hvcurveto
            111 vlineto
            7 -3 2 -5 vhcurveto
            -14 hlineto
            -5 -3 -2 -7 hvcurveto
            return
          </CharString>
          <CharString index="72">
            4 5 1 2 0 6 rrcurveto
            16 vlineto
            0 7 -5 5 -6 -7 rrcurveto
            -133 -138 rlineto
            -5 -6 -4 -3 0 -10 rrcurveto
            -14 vlineto
            0 -10 4 -3 5 -6 rrcurveto
            133 -138 rlineto
            6 -7 5 5 0 7 rrcurveto
            16 vlineto
            0 6 -1 2 -4 5 rrcurveto
            -125 130 rlineto
            return
          </CharString>
          <CharString index="73">
            7 2 3 5 hvcurveto
            9 vlineto
            5 -2 3 -7 vhcurveto
            -204 hlineto
            -7 -2 -3 -5 hvcurveto
            -9 vlineto
            -5 2 -3 7 vhcurveto
            return
          </CharString>
          <CharString index="74">
            -7 0 -5 -3 -3 -6 rrcurveto
            -68 -111 rlineto
            -3 -5 1 -4 5 0 rrcurveto
            8 hlineto
            5 0 5 3 4 5 rrcurveto
            92 112 rlineto
            4 5 -3 4 -5 0 rrcurveto
            return
          </CharString>
          <CharString index="75">
            -125 -130 rlineto
            -4 -5 -1 -2 0 -6 rrcurveto
            -16 vlineto
            0 -7 5 -5 6 7 rrcurveto
            133 138 rlineto
            5 6 4 3 0 10 rrcurveto
            14 vlineto
            0 10 -4 3 -5 6 rrcurveto
            -133 138 rlineto
            -6 7 -5 -5 0 -7 rrcurveto
            -16 vlineto
            0 -6 1 -2 4 -5 rrcurveto
            return
          </CharString>
          <CharString index="76">
            -5 7 -5 2 -9 0 rrcurveto
            -10 hlineto
            -9 0 -5 -2 -5 -7 rrcurveto
            -64 -109 rlineto
            -4 -6 1 -5 7 0 rrcurveto
            14 hlineto
            6 0 3 1 2 4 rrcurveto
            59 105 59 -105 rlineto
            2 -4 3 -1 6 0 rrcurveto
            14 hlineto
            7 0 1 5 -4 6 rrcurveto
            return
          </CharString>
          <CharString index="77">
            11 34 2 11 22 0 rrcurveto
            27 6 -15 -43 hvcurveto
            -41 vlineto
            -7 3 -2 5 vhcurveto
            7 hlineto
            5 3 2 7 hvcurveto
            42 vlineto
            55 -11 23 -45 vhcurveto
            -31 0 -11 -10 -14 -44 -14 -44 -5 -10 -19 0 rrcurveto
            -27 -6 15 43 hvcurveto
            38 vlineto
            7 -3 2 -5 vhcurveto
            -7 hlineto
            -5 -3 -2 -7 hvcurveto
            -39 vlineto
            -55 11 -23 45 vhcurveto
            28 0 16 8 15 55 rrcurveto
            return
          </CharString>
          <CharString index="78">
            49 29 29 50 hvcurveto
            22 vlineto
            50 -29 28 -49 vhcurveto
            -10 hlineto
            -49 -27 -28 -50 hvcurveto
            -22 vlineto
            -50 27 -29 49 vhcurveto
            return
          </CharString>
          <CharString index="79">
            -35 -17 20 37 hvcurveto
            20 vlineto
            36 17 20 35 vhcurveto
            10 hlineto
            36 17 -20 -36 hvcurveto
            -20 vlineto
            -37 -17 -20 -36 vhcurveto
            return
          </CharString>
          <CharString index="80">
            5 0 3 2 4 7 rrcurveto
            99 174 245 0 0 -174 rlineto
            -7 3 -2 5 vhcurveto
            304 hlineto
            7 2 3 5 hvcurveto
            12 vlineto
            5 -2 3 -7 vhcurveto
            -273 hlineto
            -7 -2 3 5 hvcurveto
            270 vlineto
            5 2 3 7 vhcurveto
            247 hlineto
            7 2 3 5 hvcurveto
            12 vlineto
            5 -2 3 -7 vhcurveto
            -247 hlineto
            -7 -2 3 5 hvcurveto
            257 vlineto
            5 2 3 7 vhcurveto
            273 hlineto
            7 2 3 5 hvcurveto
            12 vlineto
            5 -2 3 -7 vhcurveto
            -322 hlineto
            -6 0 -4 -2 -4 -7 rrcurveto
            -355 -625 rlineto
            -3 -6 2 -3 5 0 rrcurveto
            return
          </CharString>
          <CharString index="81">
            -5 3 -4 -1 -4 -6 rrcurveto
            -30 -41 rlineto
            -23 35 -39 20 -50 0 rrcurveto
            -125 hlineto
            -81 -53 -53 -83 hvcurveto
            -371 vlineto
            0 -19 3 -17 5 -16 rrcurveto
            -39 -54 rlineto
            -4 -6 0 -5 4 -3 rrcurveto
            9 -6 rlineto
            5 -3 4 1 4 5 rrcurveto
            31 43 rlineto
            22 -36 40 -20 50 0 rrcurveto
            125 hlineto
            81 53 53 83 hvcurveto
            371 vlineto
            0 19 -3 18 -5 16 rrcurveto
            38 53 rlineto
            4 5 1 5 -5 4 rrcurveto
            return
          </CharString>
          <CharString index="82">
            68 37 41 67 vhcurveto
            125 hlineto
            46 0 32 -19 15 -34 rrcurveto
            -321 -446 rlineto
            -1 7 0 7 0 7 rrcurveto
            return
          </CharString>
          <CharString index="83">
            -68 -37 -41 -67 vhcurveto
            -125 hlineto
            -46 0 -32 19 -15 35 rrcurveto
            321 446 rlineto
            1 -7 0 -7 0 -8 rrcurveto
            return
          </CharString>
          <CharString index="84">
            -55 11 -23 45 vhcurveto
            28 0 16 8 15 55 11 34 2 11 22 0 rrcurveto
            27 6 -15 -43 hvcurveto
            -41 vlineto
            -7 3 -2 5 vhcurveto
            7 hlineto
            5 3 2 7 hvcurveto
            42 vlineto
            55 -11 23 -45 vhcurveto
            -31 0 -11 -10 -14 -44 -14 -44 -5 -10 -19 0 rrcurveto
            -27 -6 15 43 hvcurveto
            38 vlineto
            7 -3 2 -5 vhcurveto
            -7 hlineto
            -5 -3 -2 -7 hvcurveto
            return
          </CharString>
          <CharString index="85">
            36 15 10 35 vhcurveto
            14 hlineto
            36 15 -10 -36 hvcurveto
            -40 vlineto
            -37 -15 -10 -36 vhcurveto
            -14 hlineto
            -35 -15 10 37 hvcurveto
            return
          </CharString>
          <CharString index="86">
            -50 25 -19 49 vhcurveto
            14 hlineto
            49 27 19 50 hvcurveto
            42 vlineto
            50 -27 18 -49 vhcurveto
            -14 hlineto
            -49 -25 -18 -50 hvcurveto
            return
          </CharString>
          <CharString index="87">
            5 2 3 7 vhcurveto
            300 hlineto
            7 2 3 7 hvcurveto
            154 vlineto
            83 -53 53 -81 vhcurveto
            -74 hlineto
            -55 0 -46 -20 -23 -49 -21 48 -43 21 -56 0 rrcurveto
            -152 hlineto
            -7 -2 -3 -5 hvcurveto
            -12 vlineto
            -5 2 -3 7 vhcurveto
            152 hlineto
            67 37 -41 -68 hvcurveto
            -65 vlineto
            -5 -2 -3 -7 vhcurveto
            -175 hlineto
            -81 -53 -53 -83 hvcurveto
            -28 vlineto
            -83 53 -53 81 vhcurveto
            74 hlineto
            55 0 46 18 23 51 21 -50 43 -19 56 0 rrcurveto
            205 hlineto
            7 2 3 5 hvcurveto
            12 vlineto
            5 -2 3 -7 vhcurveto
            -205 hlineto
            -67 -37 41 68 hvcurveto
            return
          </CharString>
          <CharString index="88">
            -5 -2 -3 -7 vhcurveto
            -270 hlineto
            -7 -2 3 5 hvcurveto
            132 vlineto
            69 47 35 65 vhcurveto
            72 hlineto
            67 37 -41 -68 hvcurveto
            return
          </CharString>
          <CharString index="89">
            -69 -47 -35 -65 vhcurveto
            -72 hlineto
            -67 -37 41 68 hvcurveto
            26 vlineto
            68 37 41 67 vhcurveto
            175 hlineto
            7 2 -3 -5 hvcurveto
            return
          </CharString>
          <CharString index="90">
            -7 3 -2 5 vhcurveto
            14 hlineto
            5 3 2 7 hvcurveto
            64 vlineto
            7 -3 2 -5 vhcurveto
            -14 hlineto
            -5 -3 -2 -7 hvcurveto
            return
          </CharString>
          <CharString index="91">
            -3 3 -4 1 -5 -5 rrcurveto
            -42 -42 rlineto
            -21 44 -43 26 -57 0 rrcurveto
            -85 hlineto
            -81 -53 -53 -83 hvcurveto
            -238 vlineto
            0 -12 1 -11 2 -10 rrcurveto
            -54 -54 rlineto
            -5 -5 1 -3 4 -4 rrcurveto
            10 -9 rlineto
            3 -4 4 -1 5 5 rrcurveto
            42 43 rlineto
            21 -45 43 -26 57 0 rrcurveto
            85 hlineto
            81 53 53 83 hvcurveto
            238 vlineto
            0 12 -1 11 -2 11 rrcurveto
            53 53 rlineto
            5 5 0 3 -4 4 rrcurveto
            return
          </CharString>
          <CharString index="92">
            236 vlineto
            68 37 41 67 vhcurveto
            85 hlineto
            51 0 34 -24 13 -41 rrcurveto
            -287 -287 rlineto
            return
          </CharString>
          <CharString index="93">
            -236 vlineto
            -68 -37 -41 -67 vhcurveto
            -85 hlineto
            -51 0 -34 24 -13 41 rrcurveto
            287 288 rlineto
            return
          </CharString>
          <CharString index="94">
            7 2 3 5 hvcurveto
            12 vlineto
            5 -2 3 -7 vhcurveto
            -204 hlineto
            -7 -2 -3 -5 hvcurveto
            -12 vlineto
            -5 2 -3 7 vhcurveto
            return
          </CharString>
          <CharString index="95">
            -13 vlineto
            -75 29 -32 64 vhcurveto
            4 hlineto
            64 30 32 75 hvcurveto
            12 vlineto
            7 -3 2 -5 vhcurveto
            -8 hlineto
            -5 -3 -2 -7 hvcurveto
            -11 vlineto
            -63 -18 -23 -52 vhcurveto
            -4 hlineto
            -49 -18 23 63 hvcurveto
            12 vlineto
            7 -3 2 -5 vhcurveto
            -10 hlineto
            -5 -3 -2 -7 hvcurveto
            return
          </CharString>
          <CharString index="96">
            10 hlineto
            9 0 5 2 5 7 rrcurveto
            64 109 rlineto
            4 6 -1 5 -7 0 rrcurveto
            -14 hlineto
            -6 0 -3 -1 -2 -4 rrcurveto
            -59 -105 -59 105 rlineto
            -2 4 -3 1 -6 0 rrcurveto
            -14 hlineto
            -7 0 -1 -5 4 -6 rrcurveto
            64 -109 rlineto
            5 -7 5 -2 9 0 rrcurveto
            return
          </CharString>
          <CharString index="97">
            -191 vlineto
            -5 3 -1 2 vhcurveto
            3 0 2 2 1 4 rrcurveto
            18 89 rlineto
            return
          </CharString>
          <CharString index="98">
            -7 3 -2 5 vhcurveto
            21 hlineto
            5 3 2 7 hvcurveto
            return
          </CharString>
          <CharString index="99">
            -5 -24 -3 -14 0 -17 rrcurveto
            return
          </CharString>
          <CharString index="100">
            7 -3 2 -5 vhcurveto
            -21 hlineto
            -5 -3 -2 -7 hvcurveto
            -191 vlineto
            -5 3 -1 2 vhcurveto
            3 0 2 2 1 4 rrcurveto
            18 89 rlineto
            5 24 3 14 0 17 rrcurveto
            return
          </CharString>
          <CharString index="101">
            -7 0 -4 -2 -4 -7 rrcurveto
            -66 -111 rlineto
            -3 -5 1 -4 5 0 rrcurveto
            9 hlineto
            5 0 4 3 4 5 rrcurveto
            82 112 rlineto
            4 5 -3 4 -5 0 rrcurveto
            return
          </CharString>
          <CharString index="102">
            5 0 5 3 4 5 rrcurveto
            92 112 rlineto
            4 5 -3 4 -5 0 rrcurveto
            -30 hlineto
            -7 0 -5 -3 -3 -6 rrcurveto
            -68 -111 rlineto
            -3 -5 1 -4 5 0 rrcurveto
            return
          </CharString>
          <CharString index="103">
            28 vlineto
            7 -3 2 -5 vhcurveto
            -20 hlineto
            -5 -3 -2 -7 hvcurveto
            -28 vlineto
            -7 3 -2 5 vhcurveto
            20 hlineto
            5 3 2 7 hvcurveto
            return
          </CharString>
          <CharString index="104">
            81 39 38 83 hvcurveto
            6 vlineto
            7 -3 2 -5 vhcurveto
            -14 hlineto
            -5 -3 -2 -7 hvcurveto
            -6 vlineto
            -68 -23 -25 -67 vhcurveto
            -61 hlineto
            -67 -23 25 68 hvcurveto
            6 vlineto
            7 -3 2 -5 vhcurveto
            -14 hlineto
            -5 -3 -2 -7 hvcurveto
            -6 vlineto
            -83 39 -38 81 vhcurveto
            return
          </CharString>
          <CharString index="105">
            -9 -7 -8 -10 hvcurveto
            -308 vlineto
            -5 -2 -3 -7 vhcurveto
            -162 hlineto
            -12 22 -18 17 -25 10 rrcurveto
            4 vlineto
            47 17 23 44 0 55 rrcurveto
            32 vlineto
            83 -53 50 -81 vhcurveto
            -94 hlineto
            -7 -2 -3 -5 hvcurveto
            -9 vlineto
            -5 2 -3 7 vhcurveto
            94 hlineto
            67 37 -41 -68 hvcurveto
            -30 vlineto
            -68 -37 -38 -67 vhcurveto
            -67 hlineto
            -7 -2 -3 -5 hvcurveto
            -12 vlineto
            -5 2 -3 7 vhcurveto
            67 hlineto
            67 37 -38 -68 hvcurveto
            -42 vlineto
            -68 -37 -41 -67 vhcurveto
            -130 hlineto
            -7 -2 -3 -5 hvcurveto
            -12 vlineto
            -5 2 -3 7 vhcurveto
            130 hlineto
            81 53 53 83 hvcurveto
            44 vlineto
            0 15 -2 13 -3 13 rrcurveto
            152 hlineto
            7 2 -3 -5 hvcurveto
            -244 vlineto
            -7 3 -2 5 vhcurveto
            14 hlineto
            5 3 2 7 hvcurveto
            581 vlineto
            5 2 3 7 vhcurveto
            92 hlineto
            7 2 3 5 hvcurveto
            9 vlineto
            5 -2 3 -7 vhcurveto
            return
          </CharString>
          <CharString index="106">
            -9 -7 -8 -10 hvcurveto
            -308 vlineto
            -5 -2 -3 -7 vhcurveto
            -162 hlineto
            -12 22 -18 17 -25 10 rrcurveto
            4 vlineto
            47 17 23 44 0 55 rrcurveto
            32 vlineto
            83 -53 50 -81 vhcurveto
            -94 hlineto
            -7 -2 -3 -5 hvcurveto
            -9 vlineto
            -5 2 -3 7 vhcurveto
            94 hlineto
            67 37 -41 -68 hvcurveto
            -30 vlineto
            -68 -37 -38 -67 vhcurveto
            -67 hlineto
            -7 -2 -3 -5 hvcurveto
            -12 vlineto
            -5 2 -3 7 vhcurveto
            67 hlineto
            67 37 -38 -68 hvcurveto
            -42 vlineto
            -68 -37 -41 -67 vhcurveto
            -130 hlineto
            -7 -2 -3 -5 hvcurveto
            -12 vlineto
            -5 2 -3 7 vhcurveto
            130 hlineto
            81 53 53 83 hvcurveto
            44 vlineto
            0 15 -2 13 -3 13 rrcurveto
            152 hlineto
            7 2 -3 -5 hvcurveto
            -244 vlineto
            -7 3 -2 5 vhcurveto
            14 hlineto
            5 3 2 7 hvcurveto
            581 vlineto
            5 2 3 7 vhcurveto
            182 hlineto
            7 2 -3 -5 hvcurveto
            -581 vlineto
            -7 3 -2 5 vhcurveto
            14 hlineto
            5 3 2 7 hvcurveto
            581 vlineto
            5 2 3 7 vhcurveto
            92 hlineto
            7 2 3 5 hvcurveto
            9 vlineto
            5 -2 3 -7 vhcurveto
            return
          </CharString>
          <CharString index="107">
            67 27 -19 -58 hvcurveto
            -44 vlineto
            -58 -27 -21 -67 vhcurveto
            -91 hlineto
            -63 -31 28 61 hvcurveto
            26 vlineto
            7 -3 2 -5 vhcurveto
            -12 hlineto
            -5 -3 -2 -7 hvcurveto
            -190 vlineto
            -7 3 -2 5 vhcurveto
            12 hlineto
            5 3 2 7 hvcurveto
            83 4 vlineto
            18 -28 34 -8 38 0 rrcurveto
            91 hlineto
            81 43 33 73 hvcurveto
            46 vlineto
            73 -43 31 -81 vhcurveto
            -87 hlineto
            -67 -27 20 58 hvcurveto
            15 vlineto
            58 27 20 67 vhcurveto
            165 hlineto
            9 7 8 10 hvcurveto
            return
          </CharString>
          <CharString index="108">
            127 vlineto
            5 2 3 7 vhcurveto
            90 hlineto
            7 2 3 5 hvcurveto
            9 vlineto
            5 -2 3 -7 vhcurveto
            -127 hlineto
            -51 -11 10 42 hvcurveto
            return
          </CharString>
          <CharString index="109">
            -7 -2 -3 -5 hvcurveto
            -9 vlineto
            -5 2 -3 7 vhcurveto
            92 hlineto
            7 2 -3 -5 hvcurveto
            -422 vlineto
            -83 53 -53 81 vhcurveto
            184 hlineto
            7 2 3 5 hvcurveto
            12 vlineto
            5 -2 3 -7 vhcurveto
            -184 hlineto
            -67 -37 41 68 hvcurveto
            421 vlineto
            5 2 3 7 vhcurveto
            274 hlineto
            7 2 -3 -5 hvcurveto
            -167 vlineto
            -80 -43 -22 -51 vhcurveto
            -46 hlineto
            -7 -2 -3 -5 hvcurveto
            -12 vlineto
            -5 2 -3 7 vhcurveto
            45 hlineto
            72 53 36 94 hvcurveto
            167 vlineto
            5 2 3 7 vhcurveto
            67 hlineto
            7 2 3 5 hvcurveto
            9 vlineto
            5 -2 3 -7 vhcurveto
            return
          </CharString>
          <CharString index="110">
            -7 -2 -3 -5 hvcurveto
            -9 vlineto
            -5 2 -3 7 vhcurveto
            345 hlineto
            7 2 -3 -5 hvcurveto
            -119 vlineto
            -5 -2 -3 -7 vhcurveto
            -137 hlineto
            -81 -43 -32 -73 hvcurveto
            -17 vlineto
            -73 43 -32 81 vhcurveto
            81 hlineto
            return
          </CharString>
          <CharString index="111">
            67 27 -19 -58 hvcurveto
            -52 vlineto
            -58 -27 -21 -67 vhcurveto
            -96 hlineto
            -62 -22 21 68 hvcurveto
            9 vlineto
            7 -3 2 -5 vhcurveto
            -14 hlineto
            -5 -3 -2 -7 hvcurveto
            -10 vlineto
            -83 38 -33 76 vhcurveto
            96 hlineto
            81 43 33 73 hvcurveto
            54 vlineto
            73 -43 31 -81 vhcurveto
            -81 hlineto
            -67 -27 20 58 hvcurveto
            15 vlineto
            58 27 20 67 vhcurveto
            159 hlineto
            9 7 8 10 hvcurveto
            return
          </CharString>
          <CharString index="112">
            137 vlineto
            5 2 3 7 vhcurveto
            105 hlineto
            7 2 3 5 hvcurveto
            9 vlineto
            5 -2 3 -7 vhcurveto
            return
          </CharString>
          <CharString index="113">
            25 vlineto
            7 -3 2 -5 vhcurveto
            -20 hlineto
            -5 -3 -2 -7 hvcurveto
            -25 vlineto
            -7 3 -2 5 vhcurveto
            20 hlineto
            5 3 2 7 hvcurveto
            return
          </CharString>
          <CharString index="114">
            -7 -2 -3 -5 hvcurveto
            -9 vlineto
            -5 2 -3 7 vhcurveto
            39 hlineto
            67 27 -31 -68 hvcurveto
            -135 vlineto
            -68 -37 -41 -67 vhcurveto
            -167 hlineto
            -67 -27 31 68 hvcurveto
            49 vlineto
            63 29 33 65 vhcurveto
            44 hlineto
            7 2 3 5 hvcurveto
            12 vlineto
            5 -2 3 -7 vhcurveto
            -44 hlineto
            -62 -32 33 63 hvcurveto
            59 vlineto
            66 25 33 64 vhcurveto
            235 hlineto
            7 2 -3 -5 hvcurveto
            -139 vlineto
            0 -8 -1 -7 -3 -5 -16 6 -20 3 -22 0 rrcurveto
            return
          </CharString>
          <CharString index="115">
            -81 -53 -53 -83 hvcurveto
            -127 vlineto
            -83 53 -53 81 vhcurveto
            90 hlineto
            81 53 53 83 hvcurveto
            50 vlineto
            7 -3 2 -5 vhcurveto
            -14 hlineto
            -5 -3 -2 -7 hvcurveto
            -49 vlineto
            -68 -37 -41 -67 vhcurveto
            -90 hlineto
            -67 -37 41 68 hvcurveto
            125 vlineto
            68 37 41 67 vhcurveto
            150 hlineto
            9 7 8 10 hvcurveto
            160 vlineto
            5 2 3 7 vhcurveto
            107 hlineto
            7 2 3 5 hvcurveto
            9 vlineto
            5 -2 3 -7 vhcurveto
            -492 hlineto
            -7 -2 -3 -5 hvcurveto
            -9 vlineto
            -5 2 -3 7 vhcurveto
            337 hlineto
            7 2 -3 -5 hvcurveto
            -142 vlineto
            -5 -2 -3 -7 vhcurveto
            return
          </CharString>
          <CharString index="116">
            67 37 -41 -68 hvcurveto
            -125 vlineto
            -68 -37 -41 -67 vhcurveto
            -90 hlineto
            -67 -37 41 68 hvcurveto
            125 vlineto
            68 37 41 67 vhcurveto
            return
          </CharString>
          <CharString index="117">
            7 2 3 5 hvcurveto
            9 vlineto
            5 -2 3 -7 vhcurveto
            -518 hlineto
            -7 -2 -3 -5 hvcurveto
            -9 vlineto
            -5 2 -3 7 vhcurveto
            351 hlineto
            7 2 -3 -5 hvcurveto
            -68 vlineto
            -68 -29 -14 -48 vhcurveto
            -74 hlineto
            -81 -53 -53 -83 hvcurveto
            -127 vlineto
            -83 53 -53 81 vhcurveto
            90 hlineto
            81 53 53 83 hvcurveto
            127 vlineto
            0 62 -33 48 -51 13 rrcurveto
            4 vlineto
            29 17 12 23 0 51 rrcurveto
            68 vlineto
            5 2 3 7 vhcurveto
            return
          </CharString>
          <CharString index="118">
            -7 -2 -3 -5 hvcurveto
            -9 vlineto
            -5 2 -3 7 vhcurveto
            345 hlineto
            7 2 -3 -5 hvcurveto
            -119 vlineto
            -5 -2 -3 -7 vhcurveto
            -137 hlineto
            -81 -43 -32 -73 hvcurveto
            -22 vlineto
            -73 43 -32 81 vhcurveto
            78 hlineto
            return
          </CharString>
          <CharString index="119">
            67 30 -19 -58 hvcurveto
            -47 vlineto
            -58 -34 -21 -62 vhcurveto
            -92 hlineto
            -56 -30 21 68 hvcurveto
            9 vlineto
            7 -3 2 -5 vhcurveto
            -14 hlineto
            -5 -3 -2 -7 hvcurveto
            -10 vlineto
            -83 46 -33 70 vhcurveto
            92 hlineto
            75 51 33 73 hvcurveto
            49 vlineto
            73 -46 31 -81 vhcurveto
            -78 hlineto
            -67 -27 20 58 hvcurveto
            20 vlineto
            58 27 20 67 vhcurveto
            159 hlineto
            9 7 8 10 hvcurveto
            return
          </CharString>
          <CharString index="120">
            137 vlineto
            5 2 3 7 vhcurveto
            90 hlineto
            7 2 3 5 hvcurveto
            9 vlineto
            5 -2 3 -7 vhcurveto
            return
          </CharString>
          <CharString index="121">
            81 43 43 83 hvcurveto
            15 vlineto
            77 -26 36 -68 -70 -24 -36 -76 vhcurveto
            -14 vlineto
            -7 3 -2 5 vhcurveto
            14 hlineto
            5 3 2 7 hvcurveto
            14 vlineto
            61 12 23 52 52 12 -24 -61 vhcurveto
            -14 vlineto
            -68 -27 -31 -67 vhcurveto
            -100 hlineto
            -67 -37 41 68 hvcurveto
            125 vlineto
            68 37 41 67 vhcurveto
            150 hlineto
            9 7 8 10 hvcurveto
            160 vlineto
            5 2 3 7 vhcurveto
            102 hlineto
            7 2 3 5 hvcurveto
            9 vlineto
            5 -2 3 -7 vhcurveto
            -487 hlineto
            -7 -2 -3 -5 hvcurveto
            -9 vlineto
            -5 2 -3 7 vhcurveto
            337 hlineto
            7 2 -3 -5 hvcurveto
            -142 vlineto
            -5 -2 -3 -7 vhcurveto
            -127 hlineto
            -81 -53 -53 -83 hvcurveto
            -127 vlineto
            -83 53 -53 81 vhcurveto
            return
          </CharString>
          <CharString index="122">
            7 2 -3 -5 hvcurveto
            -272 vlineto
            -80 -43 -22 -51 vhcurveto
            -27 hlineto
            -51 -43 22 80 hvcurveto
            272 vlineto
            5 2 3 7 vhcurveto
            return
          </CharString>
          <CharString index="123">
            -70 -44 -36 -76 hvcurveto
            -44 vlineto
            -7 3 -2 5 vhcurveto
            14 hlineto
            5 3 2 7 hvcurveto
            44 vlineto
            61 32 23 52 52 32 -24 -61 vhcurveto
            -50 vlineto
            -80 -43 -22 -51 vhcurveto
            -121 hlineto
            return
          </CharString>
          <CharString index="124">
            -81 -53 -53 -83 hvcurveto
            -98 vlineto
            -83 53 -53 81 vhcurveto
            78 hlineto
            38 0 34 8 18 28 rrcurveto
            4 -120 hlineto
            -7 3 -2 5 vhcurveto
            12 hlineto
            5 3 2 7 hvcurveto
            231 vlineto
            7 -3 2 -5 vhcurveto
            -12 hlineto
            -5 -3 -2 -7 hvcurveto
            -30 vlineto
            -61 -31 -28 -63 vhcurveto
            -78 hlineto
            -67 -37 41 68 hvcurveto
            96 vlineto
            68 37 41 67 vhcurveto
            166 hlineto
            return
          </CharString>
          <CharString index="125">
            9 7 8 10 hvcurveto
            137 vlineto
            5 2 3 7 vhcurveto
            91 hlineto
            7 2 3 5 hvcurveto
            9 vlineto
            5 -2 3 -7 vhcurveto
            -492 hlineto
            -7 -2 -3 -5 hvcurveto
            -9 vlineto
            -5 2 -3 7 vhcurveto
            354 hlineto
            7 2 -3 -5 hvcurveto
            -119 vlineto
            -5 -2 -3 -7 vhcurveto
            return
          </CharString>
          <CharString index="126">
            7 2 -3 -5 hvcurveto
            -214 vlineto
            -5 -2 -3 -7 vhcurveto
            -189 hlineto
            -61 -29 -38 -51 hvcurveto
            0 -20 6 -27 8 -24 2 -7 4 -2 5 0 rrcurveto
            13 hlineto
            4 3 2 4 hvcurveto
            0 4 -1 3 -3 9 -6 19 -5 19 0 19 rrcurveto
            35 18 28 43 vhcurveto
            188 hlineto
            7 2 -3 -5 hvcurveto
            -324 vlineto
            -7 3 -2 5 vhcurveto
            14 hlineto
            5 3 2 7 hvcurveto
            581 vlineto
            5 2 3 7 vhcurveto
            92 hlineto
            7 2 3 5 hvcurveto
            9 vlineto
            5 -2 3 -7 vhcurveto
            -470 hlineto
            -7 -2 -3 -5 hvcurveto
            -9 vlineto
            -5 2 -3 7 vhcurveto
            return
          </CharString>
          <CharString index="127">
            7 -3 2 -5 vhcurveto
            -20 hlineto
            -5 -3 -2 -7 hvcurveto
            -25 vlineto
            -7 3 -2 5 vhcurveto
            20 hlineto
            5 3 2 7 hvcurveto
            return
          </CharString>
          <CharString index="128">
            -67 -37 38 68 hvcurveto
            272 vlineto
            5 2 3 7 vhcurveto
            236 hlineto
            7 2 -3 -5 hvcurveto
            -272 vlineto
            -68 -37 -38 -67 vhcurveto
            return
          </CharString>
          <CharString index="129">
            -67 -37 38 68 hvcurveto
            264 vlineto
            5 2 3 7 vhcurveto
            223 hlineto
            7 2 -3 -5 hvcurveto
            -269 vlineto
            -65 -39 -36 -65 vhcurveto
            return
          </CharString>
          <CharString index="130">
            -67 -37 38 68 hvcurveto
            132 vlineto
            0 21 4 19 7 15 rrcurveto
            231 -243 rlineto
            -16 -32 -33 -18 -45 0 rrcurveto
            return
          </CharString>
          <CharString index="131">
            -5 -2 -3 -7 vhcurveto
            -224 hlineto
            -5 -3 2 7 hvcurveto
            242 vlineto
            5 2 3 7 vhcurveto
            223 hlineto
            7 2 -3 -5 hvcurveto
            return
          </CharString>
          <CharString index="132">
            7 2 -3 -5 hvcurveto
            -339 vlineto
            -70 -44 -41 -70 vhcurveto
            -96 hlineto
            -72 -42 43 73 hvcurveto
            110 24 vlineto
            75 50 35 91 hvcurveto
            12 vlineto
            0 42 -10 32 -26 16 rrcurveto
            4 vlineto
            return
          </CharString>
          <CharString index="133">
            -80 -42 -23 -51 vhcurveto
            -81 hlineto
            -7 -2 -3 -5 hvcurveto
            0 -21 17 -21 180 -266 rlineto
            4 -6 3 -3 7 0 rrcurveto
            12 hlineto
            5 3 3 4 hvcurveto
            0 2 -1 2 -1 2 rrcurveto
            -191 284 51 0 rlineto
            72 52 37 94 hvcurveto
            162 vlineto
            5 2 3 7 vhcurveto
            81 hlineto
            7 2 3 5 hvcurveto
            9 vlineto
            5 -2 3 -7 vhcurveto
            -339 hlineto
            -7 -2 -3 -5 hvcurveto
            -9 vlineto
            -5 2 -3 7 vhcurveto
            210 hlineto
            7 2 -3 -5 hvcurveto
            return
          </CharString>
          <CharString index="134">
            -7 -2 -3 -5 hvcurveto
            -9 vlineto
            -5 2 -3 7 vhcurveto
            435 hlineto
            7 2 -3 -5 hvcurveto
            -140 vlineto
            0 -4 -1 -3 -7 -1 -49 -6 -35 -24 -16 -40 -18 46 -41 25 -60 0 rrcurveto
            -7 hlineto
            -81 -53 -46 -83 hvcurveto
            -145 vlineto
            -83 53 -45 81 vhcurveto
            7 hlineto
            59 0 42 24 18 46 18 -46 42 -24 59 0 rrcurveto
            7 hlineto
            81 53 45 83 hvcurveto
            145 vlineto
            0 77 -43 42 -71 9 -7 1 -1 3 0 4 rrcurveto
            140 vlineto
            5 2 3 7 vhcurveto
            193 hlineto
            7 2 3 5 hvcurveto
            9 vlineto
            5 -2 3 -7 vhcurveto
            return
          </CharString>
          <CharString index="135">
            -68 -37 -33 -67 vhcurveto
            -7 hlineto
            -67 -37 33 68 hvcurveto
            144 vlineto
            68 37 33 67 vhcurveto
            7 hlineto
            67 37 -33 -68 hvcurveto
            return
          </CharString>
          <CharString index="136">
            -5 -3 -2 -7 hvcurveto
            -25 vlineto
            -7 3 -2 5 vhcurveto
            20 hlineto
            5 3 2 7 hvcurveto
            25 vlineto
            7 -3 2 -5 vhcurveto
            return
          </CharString>
          <CharString index="137">
            -7 3 -2 5 vhcurveto
            14 hlineto
            5 3 2 7 hvcurveto
            581 vlineto
            5 2 3 7 vhcurveto
            92 hlineto
            7 2 3 5 hvcurveto
            9 vlineto
            5 -2 3 -7 vhcurveto
            -115 hlineto
            -9 -7 -8 -10 hvcurveto
            return
          </CharString>
          <CharString index="138">
            121 hlineto
            72 52 37 94 hvcurveto
            90 vlineto
            83 -43 37 -81 -81 -43 -37 -83 vhcurveto
            -52 vlineto
            -7 3 -2 5 vhcurveto
            14 hlineto
            5 3 2 7 hvcurveto
            51 vlineto
            68 27 25 67 67 27 -25 -68 vhcurveto
            -89 vlineto
            -80 -42 -23 -51 vhcurveto
            -150 hlineto
            -7 -2 -3 -5 hvcurveto
            0 -21 17 -21 170 -251 rlineto
            4 -6 3 -3 7 0 rrcurveto
            13 hlineto
            5 3 2 4 hvcurveto
            0 2 -1 2 -2 3 rrcurveto
            return
          </CharString>
          <CharString index="139">
            -256 296 247 0 rlineto
            7 2 -3 -5 hvcurveto
            return
          </CharString>
          <CharString index="140">
            -67 -37 38 68 hvcurveto
            0 234 245 -284 rlineto
            -16 -36 -33 -20 -46 0 rrcurveto
            return
          </CharString>
          <CharString index="141">
            67 27 -31 -68 hvcurveto
            -25 vlineto
            -7 3 -2 5 vhcurveto
            14 hlineto
            5 3 2 7 hvcurveto
            26 vlineto
            83 -43 43 -81 vhcurveto
            -70 hlineto
            -67 -27 26 62 63 29 25 65 hvcurveto
            161 hlineto
            return
          </CharString>
          <CharString index="142">
            5 3 2 7 hvcurveto
            581 vlineto
            5 2 3 7 vhcurveto
            92 hlineto
            7 2 3 5 hvcurveto
            9 vlineto
            5 -2 3 -7 vhcurveto
            -231 hlineto
            -7 -2 -3 -5 hvcurveto
            -9 vlineto
            -5 2 -3 7 vhcurveto
            91 hlineto
            7 2 -3 -5 hvcurveto
            -581 vlineto
            -7 3 -2 5 vhcurveto
            return
          </CharString>
          <CharString index="143">
            -7 -2 3 5 hvcurveto
            121 vlineto
            83 -49 37 -81 -81 -49 -37 -83 vhcurveto
            -52 vlineto
            -7 3 -2 5 vhcurveto
            14 hlineto
            5 3 2 7 hvcurveto
            51 vlineto
            68 33 25 67 67 33 -25 -68 vhcurveto
            -120 vlineto
            -5 -2 -3 -7 vhcurveto
            -91 hlineto
            -7 -2 -3 -5 hvcurveto
            -9 vlineto
            -5 2 -3 7 vhcurveto
            91 hlineto
            7 2 -3 -5 hvcurveto
            -581 vlineto
            -7 3 -2 5 vhcurveto
            14 hlineto
            5 3 2 7 hvcurveto
            581 vlineto
            5 2 3 7 vhcurveto
            92 hlineto
            7 2 3 5 hvcurveto
            9 vlineto
            5 -2 3 -7 vhcurveto
            return
          </CharString>
          <CharString index="144">
            -7 -2 3 5 hvcurveto
            0 45 -35 24 -42 22 rrcurveto
            -74 39 rlineto
            -33 18 -28 14 0 57 rrcurveto
            8 vlineto
            7 -3 2 -5 vhcurveto
            -14 hlineto
            -5 -3 -2 -7 hvcurveto
            -8 vlineto
            0 -58 22 -28 52 -27 rrcurveto
            69 -36 rlineto
            61 -32 8 -15 0 -23 rrcurveto
            -5 -2 -3 -7 vhcurveto
            -91 hlineto
            -7 -2 -3 -5 hvcurveto
            -9 vlineto
            -5 2 -3 7 vhcurveto
            91 hlineto
            7 2 -3 -5 hvcurveto
            -581 vlineto
            -7 3 -2 5 vhcurveto
            14 hlineto
            5 3 2 7 hvcurveto
            581 vlineto
            5 2 3 7 vhcurveto
            92 hlineto
            7 2 3 5 hvcurveto
            9 vlineto
            5 -2 3 -7 vhcurveto
            return
          </CharString>
          <CharString index="145">
            -13 0 -3 2 -7 11 rrcurveto
            -150 222 rlineto
            -4 6 -3 3 -7 0 rrcurveto
            -13 hlineto
            -5 -3 -3 -4 hvcurveto
            0 -2 1 -2 1 -2 rrcurveto
            64 -93 rlineto
            38 -55 39 -51 22 -28 rrcurveto
            -4 -100 vlineto
            -7 -2 -3 -5 hvcurveto
            -9 vlineto
            -5 2 -3 7 vhcurveto
            91 hlineto
            7 2 -3 -5 hvcurveto
            -581 vlineto
            -7 3 -2 5 vhcurveto
            14 hlineto
            5 3 2 7 hvcurveto
            581 vlineto
            5 2 3 7 vhcurveto
            92 hlineto
            7 2 3 5 hvcurveto
            9 vlineto
            5 -2 3 -7 vhcurveto
            return
          </CharString>
          <CharString index="146">
            -5 -1 3 5 hvcurveto
            227 vlineto
            7 -3 2 -5 vhcurveto
            -14 hlineto
            -5 -3 -2 -7 hvcurveto
            -42 vlineto
            -104 10 -61 0 vhcurveto
            -3 -1 -138 208 rlineto
            -4 6 -3 3 -7 0 rrcurveto
            -13 hlineto
            -5 -3 -3 -4 hvcurveto
            0 -2 1 -2 1 -2 rrcurveto
            64 -93 rlineto
            33 -48 45 -57 22 -29 rrcurveto
            -4 -100 vlineto
            -7 -2 -3 -5 hvcurveto
            -9 vlineto
            -5 2 -3 7 vhcurveto
            91 hlineto
            7 2 -3 -5 hvcurveto
            -581 vlineto
            -7 3 -2 5 vhcurveto
            14 hlineto
            5 3 2 7 hvcurveto
            581 vlineto
            5 2 3 7 vhcurveto
            92 hlineto
            7 2 3 5 hvcurveto
            9 vlineto
            5 -2 3 -7 vhcurveto
            return
          </CharString>
          <CharString index="147">
            -5 -3 -3 -4 hvcurveto
            0 -3 1 -1 1 -2 rrcurveto
            86 -128 rlineto
            4 -6 3 -3 7 0 rrcurveto
            13 hlineto
            5 3 3 4 hvcurveto
            0 2 -1 2 -1 2 rrcurveto
            -89 128 rlineto
            -4 6 -3 3 -7 0 rrcurveto
            return
          </CharString>
          <CharString index="148">
            5 3 2 7 hvcurveto
            28 vlineto
            7 -3 2 -5 vhcurveto
            -20 hlineto
            -5 -3 -2 -7 hvcurveto
            -28 vlineto
            -7 3 -2 5 vhcurveto
            return
          </CharString>
          <CharString index="149">
            -7 3 -2 5 vhcurveto
            14 hlineto
            5 3 2 7 hvcurveto
            605 vlineto
            7 -3 2 -5 vhcurveto
            -14 hlineto
            -5 -3 -2 -7 hvcurveto
            return
          </CharString>
          <CharString index="150">
            223 vlineto
            5 -3 1 -2 vhcurveto
            -3 0 -2 -2 -1 -4 rrcurveto
            -18 -89 rlineto
            return
          </CharString>
          <CharString index="151">
            207 196 -207 hlineto
            return
          </CharString>
          <CharString index="152">
            59 0 30 28 23 24 4 4 4 5 0 4 0 3 -1 2 -2 2 rrcurveto
            -3 3 rlineto
            -3 3 -2 1 -3 0 -4 0 -4 -4 -4 -4 -27 -27 -21 -16 -46 0 rrcurveto
            -4 hlineto
            -67 -31 38 68 hvcurveto
            40 vlineto
            68 31 38 67 vhcurveto
            18 hlineto
            7 2 3 5 hvcurveto
            12 vlineto
            5 -2 3 -7 vhcurveto
            -18 hlineto
            -81 -47 -50 -83 hvcurveto
            -42 vlineto
            -83 47 -50 81 vhcurveto
            return
          </CharString>
          <CharString index="153">
            -7 -2 -3 -5 hvcurveto
            -9 vlineto
            -5 2 -3 7 vhcurveto
            210 hlineto
            7 2 -3 -5 hvcurveto
            -162 vlineto
            -80 -42 -23 -51 vhcurveto
            -81 hlineto
            -7 -2 -3 -5 hvcurveto
            0 -21 17 -21 182 -265 rlineto
            4 -6 4 -4 7 0 rrcurveto
            13 hlineto
            5 3 2 5 hvcurveto
            0 3 -2 3 -2 3 rrcurveto
            -192 281 50 0 rlineto
            72 52 37 94 hvcurveto
            162 vlineto
            5 2 3 7 vhcurveto
            302 hlineto
            7 2 3 5 hvcurveto
            9 vlineto
            5 -2 3 -7 vhcurveto
            return
          </CharString>
          <CharString index="154">
            7 2 3 5 hvcurveto
            9 vlineto
            5 -2 3 -7 vhcurveto
            -260 hlineto
            -7 -2 -3 -5 hvcurveto
            -9 vlineto
            -5 2 -3 7 vhcurveto
            128 hlineto
            7 2 -3 -5 hvcurveto
            -232 vlineto
            -80 -43 -22 -51 vhcurveto
            -16 hlineto
            -7 -2 -3 -5 hvcurveto
            -12 vlineto
            -5 2 -3 7 vhcurveto
            15 hlineto
            72 53 36 94 hvcurveto
            232 vlineto
            5 2 3 7 vhcurveto
            return
          </CharString>
          <CharString index="155">
            7 2 3 5 hvcurveto
            12 vlineto
            5 -2 3 -7 vhcurveto
            -329 hlineto
            -7 -2 -3 -5 hvcurveto
            -12 vlineto
            -5 2 -3 7 vhcurveto
            67 hlineto
            51 43 -22 -80 hvcurveto
            -79 vlineto
            -80 -43 -22 -51 vhcurveto
            -109 hlineto
            -7 -2 -3 -5 hvcurveto
            -12 vlineto
            -5 2 -3 7 vhcurveto
            108 hlineto
            72 53 36 94 hvcurveto
            79 vlineto
            0 46 -13 35 -30 17 rrcurveto
            4 vlineto
            return
          </CharString>
          <CharString index="156">
            7 2 3 5 hvcurveto
            9 vlineto
            5 -2 3 -7 vhcurveto
            -412 hlineto
            -7 -2 -3 -5 hvcurveto
            -9 vlineto
            -5 2 -3 7 vhcurveto
            return
          </CharString>
          <CharString index="157">
            107 vlineto
            5 2 3 7 vhcurveto
            183 hlineto
            7 2 3 5 hvcurveto
            9 vlineto
            5 -2 3 -7 vhcurveto
            -542 hlineto
            -7 -2 -3 -5 hvcurveto
            -9 vlineto
            -5 2 -3 7 vhcurveto
            311 hlineto
            7 2 -3 -5 hvcurveto
            -89 vlineto
            -5 -2 -3 -7 vhcurveto
            -106 hlineto
            -81 -43 -32 -73 hvcurveto
            -5 vlineto
            -73 43 -32 81 vhcurveto
            61 hlineto
            return
          </CharString>
          <CharString index="158">
            7 2 3 5 hvcurveto
            9 vlineto
            5 -2 3 -7 vhcurveto
            -462 hlineto
            -7 -2 -3 -5 hvcurveto
            -9 vlineto
            -5 2 -3 7 vhcurveto
            82 hlineto
            7 2 -3 -5 hvcurveto
            -272 vlineto
            -94 53 -36 72 vhcurveto
            25 hlineto
            72 53 36 94 hvcurveto
            272 vlineto
            0 4 1 3 5 1 rrcurveto
            return
          </CharString>
          <CharString index="159">
            -72 -42 43 73 hvcurveto
            74 99 vlineto
            72 53 36 94 hvcurveto
            50 vlineto
            77 -46 36 -68 vhcurveto
            return
          </CharString>
          <CharString index="160">
            -7 -2 -3 -5 hvcurveto
            -9 vlineto
            -5 2 -3 7 vhcurveto
            326 hlineto
            7 2 3 5 hvcurveto
            9 vlineto
            5 -2 3 -7 vhcurveto
            return
          </CharString>
          <CharString index="161">
            7 2 3 5 hvcurveto
            11 vlineto
            5 -2 3 -7 vhcurveto
            -195 hlineto
            -61 -29 -38 -51 hvcurveto
            0 -20 6 -27 8 -24 2 -7 4 -2 5 0 rrcurveto
            13 hlineto
            4 3 2 4 hvcurveto
            0 4 -1 3 -3 9 -6 19 -5 19 0 19 rrcurveto
            35 18 28 43 vhcurveto
            return
          </CharString>
          <CharString index="162">
            -67 -37 38 68 hvcurveto
            132 vlineto
            0 21 4 19 7 15 rrcurveto
            235 -248 rlineto
            -16 -29 -31 -16 -43 0 rrcurveto
            return
          </CharString>
          <CharString index="163">
            -72 -42 43 73 hvcurveto
            110 24 vlineto
            75 50 35 91 hvcurveto
            12 vlineto
            0 42 -10 32 -26 16 rrcurveto
            4 189 vlineto
            7 2 3 5 hvcurveto
            9 vlineto
            5 -2 3 -7 vhcurveto
            -408 hlineto
            -7 -2 -3 -5 hvcurveto
            -9 vlineto
            -5 2 -3 7 vhcurveto
            131 hlineto
            69 25 -29 -66 hvcurveto
            -11 vlineto
            -75 -30 -23 -64 vhcurveto
            -46 hlineto
            -7 -2 -3 -5 hvcurveto
            -131 vlineto
            -88 58 -55 86 vhcurveto
            96 hlineto
            60 0 35 33 23 24 4 4 4 5 0 4 0 3 -1 2 -2 2 rrcurveto
            -3 3 rlineto
            -3 3 -2 1 -3 0 -4 0 -4 -4 -4 -4 -27 -27 -26 -21 -47 0 rrcurveto
            return
          </CharString>
          <CharString index="164">
            -67 -37 38 68 hvcurveto
            0 234 248 -287 rlineto
            -25 -29 -31 -24 -42 0 rrcurveto
            return
          </CharString>
          <CharString index="165">
            9 7 8 10 hvcurveto
            127 vlineto
            5 2 3 7 vhcurveto
            90 hlineto
            7 2 3 5 hvcurveto
            9 vlineto
            5 -2 3 -7 vhcurveto
            return
          </CharString>
          <CharString index="166">
            -5 -2 3 5 hvcurveto
            134 vlineto
            58 35 21 44 vhcurveto
            27 hlineto
            7 2 3 5 hvcurveto
            9 vlineto
            5 -2 3 -7 vhcurveto
            -27 hlineto
            -68 -41 -36 -68 hvcurveto
            return
          </CharString>
          <CharString index="167">
            -68 -41 -36 -68 hvcurveto
            -134 vlineto
            -5 -2 -3 -5 vhcurveto
            -93 hlineto
            -7 -2 -3 -5 hvcurveto
            -9 vlineto
            -5 2 -3 7 vhcurveto
            91 hlineto
            7 2 -3 -5 hvcurveto
            -581 vlineto
            -7 3 -2 5 vhcurveto
            14 hlineto
            5 3 2 7 hvcurveto
            581 vlineto
            5 2 3 7 vhcurveto
            92 hlineto
            7 2 3 5 hvcurveto
            9 vlineto
            5 -2 3 -7 vhcurveto
            -94 hlineto
            -5 -2 3 5 hvcurveto
            134 vlineto
            58 35 21 44 vhcurveto
            27 hlineto
            7 2 3 5 hvcurveto
            9 vlineto
            5 -2 3 -7 vhcurveto
            return
          </CharString>
          <CharString index="168">
            -5 -3 -2 -7 hvcurveto
            -28 vlineto
            -7 3 -2 5 vhcurveto
            20 hlineto
            5 3 2 7 hvcurveto
            28 vlineto
            7 -3 2 -5 vhcurveto
            return
          </CharString>
          <CharString index="169">
            92 vlineto
            58 35 21 44 vhcurveto
            27 hlineto
            7 2 3 5 hvcurveto
            9 vlineto
            5 -2 3 -7 vhcurveto
            -27 hlineto
            -68 -41 -36 -68 hvcurveto
            -92 vlineto
            return
          </CharString>
          <CharString index="170">
            58 35 21 44 vhcurveto
            27 hlineto
            7 2 3 5 hvcurveto
            9 vlineto
            5 -2 3 -7 vhcurveto
            -27 hlineto
            -46 0 -33 -16 -17 -31 -21 34 -39 16 -53 0 rrcurveto
            -81 -49 -37 -83 hvcurveto
            -52 vlineto
            -7 3 -2 5 vhcurveto
            14 hlineto
            5 3 2 7 hvcurveto
            51 vlineto
            68 33 25 67 63 37 -23 -60 vhcurveto
            -130 vlineto
            -5 -2 -3 -7 vhcurveto
            -91 hlineto
            -7 -2 -3 -5 hvcurveto
            -9 vlineto
            -5 2 -3 7 vhcurveto
            91 hlineto
            7 2 -3 -5 hvcurveto
            -581 vlineto
            -7 3 -2 5 vhcurveto
            14 hlineto
            5 3 2 7 hvcurveto
            581 vlineto
            5 2 3 7 vhcurveto
            92 hlineto
            7 2 3 5 hvcurveto
            9 vlineto
            5 -2 3 -7 vhcurveto
            -92 hlineto
            -7 -2 3 5 hvcurveto
            return
          </CharString>
          <CharString index="171">
            -7 -2 3 5 hvcurveto
            121 vlineto
            83 -49 37 -81 vhcurveto
            -247 hlineto
            -81 -49 -37 -83 hvcurveto
            -52 vlineto
            -7 3 -2 5 vhcurveto
            14 hlineto
            5 3 2 7 hvcurveto
            51 vlineto
            68 33 25 67 vhcurveto
            247 hlineto
            67 33 -25 -68 hvcurveto
            -120 vlineto
            -5 -2 -3 -7 vhcurveto
            -91 hlineto
            -7 -2 -3 -5 hvcurveto
            -9 vlineto
            -5 2 -3 7 vhcurveto
            91 hlineto
            7 2 -3 -5 hvcurveto
            -581 vlineto
            -7 3 -2 5 vhcurveto
            14 hlineto
            5 3 2 7 hvcurveto
            581 vlineto
            5 2 3 7 vhcurveto
            92 hlineto
            7 2 3 5 hvcurveto
            9 vlineto
            5 -2 3 -7 vhcurveto
            return
          </CharString>
          <CharString index="172">
            134 vlineto
            58 35 21 44 vhcurveto
            27 hlineto
            7 2 3 5 hvcurveto
            9 vlineto
            5 -2 3 -7 vhcurveto
            -27 hlineto
            -46 0 -33 -16 -17 -31 -21 34 -39 16 -53 0 rrcurveto
            -247 hlineto
            -81 -49 -37 -83 hvcurveto
            -52 vlineto
            -7 3 -2 5 vhcurveto
            14 hlineto
            5 3 2 7 hvcurveto
            51 vlineto
            68 33 25 67 vhcurveto
            247 hlineto
            63 37 -23 -60 hvcurveto
            -130 vlineto
            -5 -2 -3 -7 vhcurveto
            -91 hlineto
            -7 -2 -3 -5 hvcurveto
            -9 vlineto
            -5 2 -3 7 vhcurveto
            91 hlineto
            7 2 -3 -5 hvcurveto
            -581 vlineto
            -7 3 -2 5 vhcurveto
            14 hlineto
            5 3 2 7 hvcurveto
            581 vlineto
            5 2 3 7 vhcurveto
            92 hlineto
            7 2 3 5 hvcurveto
            9 vlineto
            5 -2 3 -7 vhcurveto
            -92 hlineto
            -7 -2 3 5 hvcurveto
            return
          </CharString>
          <CharString index="173">
            -5 -1 3 5 hvcurveto
            53 vlineto
            126 35 34 44 vhcurveto
            27 hlineto
            7 2 3 5 hvcurveto
            9 vlineto
            5 -2 3 -7 vhcurveto
            -27 hlineto
            -68 -35 -63 -128 hvcurveto
            -5 180 hlineto
            7 -3 2 -5 vhcurveto
            -20 hlineto
            -5 -3 -2 -7 hvcurveto
            -42 vlineto
            -104 38 -71 0 vhcurveto
            -3 -1 -145 218 rlineto
            -4 6 -3 3 -7 0 rrcurveto
            -16 hlineto
            -5 -3 -3 -4 hvcurveto
            0 -2 1 -2 1 -2 rrcurveto
            64 -93 rlineto
            60 -88 42 -46 14 -19 rrcurveto
            37 hlineto
            return
          </CharString>
          <CharString index="174">
            -3 -1 -145 218 rlineto
            -4 6 -3 3 -7 0 rrcurveto
            -16 hlineto
            -5 -3 -3 -4 hvcurveto
            0 -2 1 -2 1 -2 rrcurveto
            64 -93 rlineto
            48 -70 36 -44 20 -24 rrcurveto
            -87 hlineto
            -7 -2 -3 -5 hvcurveto
            -9 vlineto
            -5 2 -3 7 vhcurveto
            91 hlineto
            7 2 -3 -5 hvcurveto
            -581 vlineto
            -7 3 -2 5 vhcurveto
            14 hlineto
            5 3 2 7 hvcurveto
            581 vlineto
            5 2 3 7 vhcurveto
            92 hlineto
            7 2 3 5 hvcurveto
            9 vlineto
            5 -2 3 -7 vhcurveto
            -95 hlineto
            -5 -1 3 5 hvcurveto
            53 vlineto
            126 35 34 44 vhcurveto
            27 hlineto
            7 2 3 5 hvcurveto
            9 vlineto
            5 -2 3 -7 vhcurveto
            return
          </CharString>
          <CharString index="175">
            -68 -27 -39 -77 -77 -27 39 68 68 27 39 77 vhcurveto
            77 27 -39 -68 hvcurveto
            return
          </CharString>
          <CharString index="176">
            -7 -2 -3 -5 hvcurveto
            -9 vlineto
            -5 2 -3 7 vhcurveto
            45 hlineto
            7 2 -3 -5 hvcurveto
            -210 -185 4 vlineto
            29 18 13 43 0 43 rrcurveto
            83 -38 52 -91 -91 -43 -52 -84 vhcurveto
            0 -46 16 -39 33 -20 rrcurveto
            -4 vlineto
            -63 -6 -34 -34 0 -62 rrcurveto
            -95 vlineto
            -73 43 -33 81 vhcurveto
            61 hlineto
            38 0 34 8 18 28 rrcurveto
            return
          </CharString>
          <CharString index="177">
            -77 -27 39 68 68 27 39 77 hvcurveto
            return
          </CharString>
          <CharString index="178">
            77 27 -39 -68 -68 -27 -39 -77 hvcurveto
            return
          </CharString>
          <CharString index="179">
            -75 -30 -23 -64 vhcurveto
            -46 hlineto
            -7 -2 -3 -5 hvcurveto
            -47 vlineto
            return
          </CharString>
          <CharString index="180">
            -70 -44 -41 -70 vhcurveto
            -96 hlineto
            -72 -42 43 73 hvcurveto
            110 24 vlineto
            75 50 35 91 hvcurveto
            12 vlineto
            0 42 -10 32 -26 16 rrcurveto
            4 202 vlineto
            7 2 -3 -5 hvcurveto
            return
          </CharString>
          <CharString index="181">
            -83 53 -50 81 vhcurveto
            39 hlineto
            48 0 34 14 18 34 rrcurveto
            4 -136 hlineto
            -7 3 -2 5 vhcurveto
            13 hlineto
            5 3 2 7 hvcurveto
            581 vlineto
            5 2 3 7 vhcurveto
            92 hlineto
            7 2 3 5 hvcurveto
            9 vlineto
            5 -2 3 -7 vhcurveto
            return
          </CharString>
          <CharString index="182">
            -7 -2 -3 -5 hvcurveto
            -9 vlineto
            -5 2 -3 7 vhcurveto
            311 hlineto
            7 2 -3 -5 hvcurveto
            -89 vlineto
            -5 -2 -3 -7 vhcurveto
            -106 hlineto
            -81 -43 -32 -73 hvcurveto
            -5 vlineto
            -73 43 -32 81 vhcurveto
            61 hlineto
            return
          </CharString>
          <CharString index="183">
            -67 -27 19 58 hvcurveto
            5 vlineto
            58 27 19 67 vhcurveto
            129 hlineto
            9 7 8 10 hvcurveto
            return
          </CharString>
          <CharString index="184">
            4 -120 hlineto
            -7 3 -2 5 vhcurveto
            12 hlineto
            5 3 2 7 hvcurveto
            231 vlineto
            7 -3 2 -5 vhcurveto
            -12 hlineto
            -5 -3 -2 -7 hvcurveto
            -30 vlineto
            -61 -31 -28 -63 vhcurveto
            -78 hlineto
            -67 -37 41 68 hvcurveto
            96 vlineto
            68 37 41 67 vhcurveto
            166 hlineto
            return
          </CharString>
          <CharString index="185">
            -65 -39 -36 -65 vhcurveto
            -33 hlineto
            -67 -37 38 68 hvcurveto
            264 vlineto
            5 2 3 7 vhcurveto
            223 hlineto
            7 2 -3 -5 hvcurveto
            return
          </CharString>
          <CharString index="186">
            0 0 -21 -15 -45 -42 rrcurveto
            -67 -62 rlineto
            -3 -3 -1 -3 0 -3 rrcurveto
            -3 3 -3 5 vhcurveto
            11 hlineto
            7 0 5 4 5 5 45 42 34 31 25 24 67 63 6 6 0 0 rrcurveto
            4 -126 hlineto
            -7 3 -2 5 vhcurveto
            14 hlineto
            5 3 2 7 hvcurveto
            348 vlineto
            65 38 36 66 vhcurveto
            39 hlineto
            67 37 -38 -68 hvcurveto
            -121 vlineto
            -68 -37 -38 -67 vhcurveto
            -53 hlineto
            -7 -2 -3 -5 hvcurveto
            -12 vlineto
            -5 2 -3 7 vhcurveto
            53 hlineto
            81 53 50 83 hvcurveto
            123 vlineto
            83 -53 50 -81 vhcurveto
            -39 hlineto
            -49 0 -37 -17 -14 -32 rrcurveto
            -4 153 hlineto
            5 2 3 7 vhcurveto
            339 hlineto
            7 2 3 5 hvcurveto
            9 vlineto
            5 -2 3 -7 vhcurveto
            -726 hlineto
            -7 -2 -3 -5 hvcurveto
            -9 vlineto
            -5 2 -3 7 vhcurveto
            339 hlineto
            7 2 -3 -5 hvcurveto
            -364 vlineto
            -65 -39 -36 -65 vhcurveto
            -39 hlineto
            -67 -37 38 68 hvcurveto
            121 vlineto
            68 37 38 67 vhcurveto
            53 hlineto
            7 2 3 5 hvcurveto
            12 vlineto
            5 -2 3 -7 vhcurveto
            -53 hlineto
            -81 -53 -50 -83 hvcurveto
            -123 vlineto
            -83 53 -49 81 vhcurveto
            63 hlineto
            return
          </CharString>
          <CharString index="187">
            0 0 -29 -30 -35 -43 rrcurveto
            -83 -103 rlineto
            -3 -3 -1 -3 0 -2 rrcurveto
            -4 3 -3 5 vhcurveto
            12 hlineto
            7 0 3 4 5 5 rrcurveto
            179 220 4 0 0 -180 rlineto
            -7 3 -2 5 vhcurveto
            14 hlineto
            5 3 2 7 hvcurveto
            581 vlineto
            5 2 3 7 vhcurveto
            92 hlineto
            7 2 3 5 hvcurveto
            9 vlineto
            5 -2 3 -7 vhcurveto
            -690 hlineto
            -7 -2 -3 -5 hvcurveto
            -9 vlineto
            -5 2 -3 7 vhcurveto
            210 hlineto
            7 2 -3 -5 hvcurveto
            -162 vlineto
            -80 -42 -23 -51 vhcurveto
            -81 hlineto
            -7 -2 -3 -5 hvcurveto
            0 -21 17 -21 182 -265 rlineto
            4 -6 4 -4 7 0 rrcurveto
            13 hlineto
            5 3 2 5 hvcurveto
            0 3 -2 3 -2 3 rrcurveto
            -192 281 50 0 rlineto
            72 52 37 94 hvcurveto
            162 vlineto
            5 2 3 7 vhcurveto
            292 hlineto
            7 2 -3 -5 hvcurveto
            -307 vlineto
            -68 -37 -38 -67 vhcurveto
            -4 hlineto
            -67 -31 38 68 hvcurveto
            40 vlineto
            68 31 38 67 vhcurveto
            18 hlineto
            7 2 3 5 hvcurveto
            12 vlineto
            5 -2 3 -7 vhcurveto
            -18 hlineto
            -81 -47 -50 -83 hvcurveto
            -42 vlineto
            -83 47 -49 81 vhcurveto
            11 hlineto
            17 13 5 0 hvcurveto
            return
          </CharString>
          <CharString index="188">
            -7 -2 -3 -5 hvcurveto
            -9 vlineto
            -5 2 -3 7 vhcurveto
            128 hlineto
            7 2 -3 -5 hvcurveto
            -232 vlineto
            -80 -43 -22 -51 vhcurveto
            -16 hlineto
            -7 -2 -3 -5 hvcurveto
            -12 vlineto
            -5 2 -3 7 vhcurveto
            15 hlineto
            72 53 36 94 hvcurveto
            232 vlineto
            5 2 3 7 vhcurveto
            172 hlineto
            7 2 -3 -5 hvcurveto
            0 -283 -249 -292 rlineto
            -3 -3 -1 -3 0 -2 rrcurveto
            -4 3 -3 5 vhcurveto
            12 hlineto
            7 0 3 3 5 6 rrcurveto
            218 258 0 -258 rlineto
            -7 3 -2 5 vhcurveto
            14 hlineto
            5 3 2 7 hvcurveto
            581 vlineto
            5 2 3 7 vhcurveto
            92 hlineto
            7 2 3 5 hvcurveto
            9 vlineto
            5 -2 3 -7 vhcurveto
            return
          </CharString>
          <CharString index="189">
            -68 -37 -41 -67 vhcurveto
            -90 hlineto
            -67 -37 41 68 hvcurveto
            125 vlineto
            68 37 41 67 vhcurveto
            90 hlineto
            67 37 -41 -68 hvcurveto
            return
          </CharString>
          <CharString index="190">
            67 27 -19 -58 hvcurveto
            -52 vlineto
            -58 -27 -21 -67 vhcurveto
            -96 hlineto
            -62 -22 21 68 hvcurveto
            9 vlineto
            7 -3 2 -5 vhcurveto
            -14 hlineto
            -5 -3 -2 -7 hvcurveto
            -10 vlineto
            -83 38 -33 76 vhcurveto
            26 0 -102 -133 rlineto
            -2 -3 -2 -3 0 -3 rrcurveto
            -5 3 -2 5 vhcurveto
            13 hlineto
            6 0 4 4 5 6 rrcurveto
            102 136 5 0 102 -136 rlineto
            5 -6 4 -4 6 0 rrcurveto
            13 hlineto
            5 3 2 5 hvcurveto
            0 3 -2 3 -2 3 rrcurveto
            -102 133 1 0 rlineto
            81 43 33 73 hvcurveto
            54 vlineto
            73 -43 31 -81 vhcurveto
            -81 hlineto
            -67 -27 20 58 hvcurveto
            15 vlineto
            58 27 20 67 vhcurveto
            159 hlineto
            9 7 8 10 hvcurveto
            return
          </CharString>
          <CharString index="191">
            -80 -43 -22 -51 vhcurveto
            -27 hlineto
            -51 -43 22 80 hvcurveto
            272 vlineto
            5 2 3 7 vhcurveto
            197 hlineto
            7 2 -3 -5 hvcurveto
            return
          </CharString>
          <CharString index="192">
            -7 -2 -3 -5 hvcurveto
            -9 vlineto
            -5 2 -3 7 vhcurveto
            354 hlineto
            7 2 -3 -5 hvcurveto
            -119 vlineto
            -5 -2 -3 -7 vhcurveto
            -144 hlineto
            -81 -53 -53 -83 hvcurveto
            -98 vlineto
            -83 53 -53 81 vhcurveto
            78 hlineto
            5 0 5 0 5 1 rrcurveto
            -107 -107 rlineto
            -3 -3 -1 -2 0 -3 rrcurveto
            -4 3 -3 5 vhcurveto
            14 hlineto
            7 0 5 4 5 5 rrcurveto
            147 148 rlineto
            return
          </CharString>
          <CharString index="193">
            9 7 8 10 hvcurveto
            137 vlineto
            5 2 3 7 vhcurveto
            91 hlineto
            7 2 3 5 hvcurveto
            9 vlineto
            5 -2 3 -7 vhcurveto
            return
          </CharString>
          <CharString index="194">
            -7 -2 -3 -5 hvcurveto
            -9 vlineto
            -5 2 -3 7 vhcurveto
            330 hlineto
            7 2 -3 -5 hvcurveto
            -214 vlineto
            -5 -2 -3 -7 vhcurveto
            -189 hlineto
            -61 -29 -38 -51 hvcurveto
            0 -20 6 -27 8 -24 2 -7 4 -2 5 0 rrcurveto
            13 hlineto
            4 3 2 4 hvcurveto
            0 4 -1 3 -3 9 -6 19 -5 19 0 19 rrcurveto
            35 18 28 43 vhcurveto
            188 hlineto
            7 2 -3 -5 hvcurveto
            0 -23 -251 -295 rlineto
            -3 -3 -1 -3 0 -2 rrcurveto
            -4 3 -3 5 vhcurveto
            12 hlineto
            7 0 3 3 5 6 rrcurveto
            220 260 0 -260 rlineto
            -7 3 -2 5 vhcurveto
            14 hlineto
            5 3 2 7 hvcurveto
            581 vlineto
            5 2 3 7 vhcurveto
            92 hlineto
            7 2 3 5 hvcurveto
            9 vlineto
            5 -2 3 -7 vhcurveto
            return
          </CharString>
          <CharString index="195">
            -7 3 -2 5 vhcurveto
            14 hlineto
            5 3 2 7 hvcurveto
            348 vlineto
            65 38 36 66 vhcurveto
            39 hlineto
            67 37 -38 -68 hvcurveto
            -121 vlineto
            -68 -37 -38 -67 vhcurveto
            -53 hlineto
            -7 -2 -3 -5 hvcurveto
            -12 vlineto
            -5 2 -3 7 vhcurveto
            53 hlineto
            81 53 50 83 hvcurveto
            123 vlineto
            83 -53 50 -81 vhcurveto
            -39 hlineto
            -49 0 -37 -17 -14 -32 rrcurveto
            -4 153 hlineto
            5 2 3 7 vhcurveto
            339 hlineto
            7 2 3 5 hvcurveto
            9 vlineto
            5 -2 3 -7 vhcurveto
            -740 hlineto
            -7 -2 -3 -5 hvcurveto
            -9 vlineto
            -5 2 -3 7 vhcurveto
            84 hlineto
            5 -1 2 -3 0 -4 rrcurveto
            -265 vlineto
            -83 53 -50 81 vhcurveto
            33 hlineto
            12 0 12 2 7 2 rrcurveto
            -4 vlineto
            0 0 -41 -40 -47 -52 rrcurveto
            -94 -103 rlineto
            -3 -3 -1 -3 0 -2 rrcurveto
            -4 3 -3 5 vhcurveto
            15 hlineto
            7 0 3 4 5 5 rrcurveto
            147 163 70 79 4 0 rlineto
            return
          </CharString>
          <CharString index="196">
            -67 -37 38 68 hvcurveto
            264 vlineto
            5 2 3 7 vhcurveto
            223 hlineto
            7 2 -3 -5 hvcurveto
            -264 vlineto
            -68 -37 -38 -67 vhcurveto
            return
          </CharString>
          <CharString index="197">
            -5 -3 2 7 hvcurveto
            242 vlineto
            5 2 3 7 vhcurveto
            223 hlineto
            7 2 -3 -5 hvcurveto
            -243 vlineto
            -5 -2 -3 -7 vhcurveto
            return
          </CharString>
          <CharString index="198">
            0 0 -25 -14 -55 -46 rrcurveto
            -79 -66 rlineto
            -3 -3 -1 -2 0 -3 rrcurveto
            -4 3 -3 5 vhcurveto
            16 hlineto
            7 0 5 5 5 4 rrcurveto
            106 88 111 92 4 0 0 -147 rlineto
            -7 3 -2 5 vhcurveto
            14 hlineto
            5 3 2 7 hvcurveto
            581 vlineto
            5 2 3 7 vhcurveto
            92 hlineto
            7 2 3 5 hvcurveto
            9 vlineto
            5 -2 3 -7 vhcurveto
            -561 hlineto
            -7 -2 -3 -5 hvcurveto
            -9 vlineto
            -5 2 -3 7 vhcurveto
            131 hlineto
            69 25 -29 -66 hvcurveto
            -11 vlineto
            -75 -30 -23 -64 vhcurveto
            -46 hlineto
            -7 -2 -3 -5 hvcurveto
            -131 vlineto
            -88 58 -55 86 vhcurveto
            111 hlineto
            return
          </CharString>
          <CharString index="199">
            -7 -2 -3 -5 hvcurveto
            -9 vlineto
            -5 2 -3 7 vhcurveto
            339 hlineto
            7 2 -3 -5 hvcurveto
            -364 vlineto
            -65 -39 -36 -65 vhcurveto
            -39 hlineto
            -67 -37 38 68 hvcurveto
            121 vlineto
            68 37 38 67 vhcurveto
            53 hlineto
            7 2 3 5 hvcurveto
            12 vlineto
            5 -2 3 -7 vhcurveto
            -53 hlineto
            -81 -53 -50 -83 hvcurveto
            -123 vlineto
            -83 53 -49 81 vhcurveto
            63 -4 hlineto
            0 0 -21 -15 -45 -42 rrcurveto
            -67 -62 rlineto
            -3 -3 -1 -3 0 -3 rrcurveto
            -3 3 -3 5 vhcurveto
            11 hlineto
            7 0 5 4 5 5 43 40 32 30 25 23 71 66 6 7 0 0 rrcurveto
            4 -126 hlineto
            -7 3 -2 5 vhcurveto
            14 hlineto
            5 3 2 7 hvcurveto
            348 vlineto
            65 38 36 66 vhcurveto
            39 hlineto
            45 0 31 -16 16 -33 3 -6 1 -6 6 0 3 0 2 1 2 1 rrcurveto
            8 5 rlineto
            4 2 1 3 0 3 0 4 -3 5 -2 4 -19 39 -45 22 -53 0 rrcurveto
            -39 hlineto
            -49 0 -37 -17 -14 -32 rrcurveto
            -4 153 hlineto
            5 2 3 7 vhcurveto
            249 hlineto
            7 2 3 5 hvcurveto
            9 vlineto
            5 -2 3 -7 vhcurveto
            return
          </CharString>
          <CharString index="200">
            4 5 4 5 0 5 0 3 -1 1 -2 2 rrcurveto
            -5 4 rlineto
            -3 2 -1 1 -4 0 -4 0 -3 -5 -4 -4 -27 -30 -26 -23 -45 0 rrcurveto
            -4 hlineto
            -67 -31 38 68 hvcurveto
            40 vlineto
            68 31 38 67 vhcurveto
            18 hlineto
            7 2 3 5 hvcurveto
            12 vlineto
            5 -2 3 -7 vhcurveto
            -18 hlineto
            -81 -47 -50 -83 hvcurveto
            -42 vlineto
            -83 47 -49 81 vhcurveto
            9 hlineto
            22 12 7 0 hvcurveto
            -4 vlineto
            0 0 -31 -32 -35 -43 rrcurveto
            -83 -103 rlineto
            -3 -3 -1 -3 0 -2 rrcurveto
            -4 3 -3 5 vhcurveto
            12 hlineto
            7 0 3 4 5 5 rrcurveto
            return
          </CharString>
          <CharString index="201">
            4 5 4 5 0 5 0 3 -1 1 -2 2 rrcurveto
            -5 4 rlineto
            -3 2 -1 1 -4 0 -4 0 -3 -5 -4 -4 rrcurveto
            -248 -292 rlineto
            -3 -3 -1 -3 0 -2 rrcurveto
            -4 3 -3 5 vhcurveto
            12 hlineto
            7 0 3 3 5 6 rrcurveto
            return
          </CharString>
          <CharString index="202">
            7 2 3 5 hvcurveto
            9 vlineto
            5 -2 3 -7 vhcurveto
            -408 hlineto
            -7 -2 -3 -5 hvcurveto
            -9 vlineto
            -5 2 -3 7 vhcurveto
            return
          </CharString>
          <CharString index="203">
            -3 -3 -1 -2 0 -3 rrcurveto
            -4 3 -3 5 vhcurveto
            15 hlineto
            7 0 5 4 5 5 rrcurveto
            182 182 rlineto
            4 4 5 5 0 6 0 2 -1 3 -3 3 rrcurveto
            -3 3 rlineto
            -2 2 -2 1 -3 0 -4 0 -3 -2 -4 -4 rrcurveto
            return
          </CharString>
          <CharString index="204">
            -4 6 -3 3 -7 0 rrcurveto
            -10 hlineto
            -5 -3 -3 -4 hvcurveto
            0 -3 1 -1 1 -2 rrcurveto
            86 -128 rlineto
            4 -6 3 -3 7 0 rrcurveto
            13 hlineto
            5 3 3 4 hvcurveto
            0 2 -1 2 -1 2 rrcurveto
            return
          </CharString>
          <CharString index="205">
            -7 -2 -3 -5 hvcurveto
            -9 vlineto
            -5 2 -3 7 vhcurveto
            357 hlineto
            7 2 3 5 hvcurveto
            9 vlineto
            5 -2 3 -7 vhcurveto
            return
          </CharString>
          <CharString index="206">
            -61 -29 -38 -51 hvcurveto
            0 -20 6 -27 8 -24 2 -7 4 -2 5 0 rrcurveto
            13 hlineto
            4 3 2 4 hvcurveto
            0 4 -1 3 -3 9 -6 19 -5 19 0 19 rrcurveto
            35 18 28 43 vhcurveto
            195 -57 hlineto
            -249 -269 rlineto
            -3 -3 -1 -3 0 -2 rrcurveto
            -4 3 -3 5 vhcurveto
            12 hlineto
            7 0 3 3 5 6 rrcurveto
            229 247 rlineto
            13 15 4 16 0 25 rrcurveto
            50 vlineto
            -1 4 -2 2 -6 0 rrcurveto
            return
          </CharString>
          <CharString index="207">
            4 -224 hlineto
            -7 3 -2 5 vhcurveto
            14 hlineto
            5 3 2 7 hvcurveto
            348 vlineto
            65 38 36 66 vhcurveto
            39 hlineto
            45 0 31 -16 16 -33 3 -6 1 -6 6 0 3 0 2 1 2 1 rrcurveto
            8 5 rlineto
            4 2 1 3 0 3 0 4 -3 5 -2 4 -19 39 -45 22 -53 0 rrcurveto
            -39 hlineto
            -49 0 -37 -17 -14 -32 rrcurveto
            -4 153 hlineto
            5 2 3 7 vhcurveto
            249 hlineto
            7 2 3 5 hvcurveto
            9 vlineto
            5 -2 3 -7 vhcurveto
            -650 hlineto
            -7 -2 -3 -5 hvcurveto
            -9 vlineto
            -5 2 -3 7 vhcurveto
            84 hlineto
            5 -1 2 -3 0 -4 rrcurveto
            -265 vlineto
            -83 53 -50 81 vhcurveto
            33 hlineto
            12 0 12 2 7 2 rrcurveto
            -4 vlineto
            0 0 -41 -40 -47 -52 rrcurveto
            -94 -103 rlineto
            -3 -3 -1 -3 0 -2 rrcurveto
            -4 3 -3 5 vhcurveto
            15 hlineto
            7 0 3 4 5 5 rrcurveto
            147 163 rlineto
            return
          </CharString>
          <CharString index="208">
            4 4 4 5 0 4 0 3 -1 2 -2 2 rrcurveto
            -5 5 rlineto
            -3 3 -2 1 -3 0 -4 0 -4 -5 -4 -4 -35 -38 -29 -20 -44 0 rrcurveto
            -96 hlineto
            -72 -42 43 73 hvcurveto
            110 24 vlineto
            75 50 35 91 hvcurveto
            12 vlineto
            0 42 -10 32 -26 16 rrcurveto
            4 165 vlineto
            7 2 3 5 hvcurveto
            9 vlineto
            5 -2 3 -7 vhcurveto
            -384 hlineto
            -7 -2 -3 -5 hvcurveto
            -9 vlineto
            -5 2 -3 7 vhcurveto
            131 hlineto
            69 25 -29 -66 hvcurveto
            -11 vlineto
            -75 -30 -23 -64 vhcurveto
            -46 hlineto
            -7 -2 -3 -5 hvcurveto
            -131 vlineto
            -88 58 -55 86 vhcurveto
            111 -4 hlineto
            0 0 -25 -14 -55 -46 rrcurveto
            -79 -66 rlineto
            -3 -3 -1 -2 0 -3 rrcurveto
            -4 3 -3 5 vhcurveto
            16 hlineto
            7 0 5 5 5 4 rrcurveto
            106 88 rlineto
            0 0 70 56 59 58 rrcurveto
            return
          </CharString>
          <CharString index="209">
            68 37 41 67 vhcurveto
            166 hlineto
            9 7 8 10 hvcurveto
            137 vlineto
            5 2 3 7 vhcurveto
            91 hlineto
            7 2 3 5 hvcurveto
            9 vlineto
            5 -2 3 -7 vhcurveto
            return
          </CharString>
          <CharString index="210">
            -49 0 -37 -17 -14 -32 rrcurveto
            -4 184 hlineto
            5 2 3 7 vhcurveto
            199 hlineto
            5 -1 2 -3 0 -4 rrcurveto
            -135 vlineto
            return
          </CharString>
          <CharString index="211">
            -68 -37 -38 -67 vhcurveto
            -46 hlineto
            -67 -37 38 68 hvcurveto
            272 vlineto
            5 2 3 7 vhcurveto
            236 hlineto
            7 2 -3 -5 hvcurveto
            return
          </CharString>
          <CharString index="212">
            -7 -2 -3 -5 hvcurveto
            -9 vlineto
            -5 2 -3 7 vhcurveto
            339 hlineto
            7 2 -3 -5 hvcurveto
            -364 vlineto
            -65 -39 -36 -65 vhcurveto
            -39 hlineto
            -67 -37 38 68 hvcurveto
            121 vlineto
            68 37 38 67 vhcurveto
            53 hlineto
            7 2 3 5 hvcurveto
            12 vlineto
            5 -2 3 -7 vhcurveto
            -53 hlineto
            -81 -53 -50 -83 hvcurveto
            -123 vlineto
            -83 53 -50 81 vhcurveto
            39 hlineto
            48 0 34 14 18 34 rrcurveto
            4 -136 hlineto
            -7 3 -2 5 vhcurveto
            14 hlineto
            5 3 2 7 hvcurveto
            317 vlineto
            65 38 36 66 vhcurveto
            111 -102 hlineto
            -83 53 -50 81 vhcurveto
            33 hlineto
            47 0 35 14 18 34 rrcurveto
            4 -231 hlineto
            -7 3 -2 5 vhcurveto
            13 hlineto
            5 3 2 7 hvcurveto
            348 vlineto
            65 38 36 66 vhcurveto
            39 hlineto
            67 37 -38 -68 hvcurveto
            -121 vlineto
            -68 -37 -38 -67 vhcurveto
            -53 hlineto
            -7 -2 -3 -5 hvcurveto
            -12 vlineto
            -5 2 -3 7 vhcurveto
            53 hlineto
            81 53 50 83 hvcurveto
            123 vlineto
            83 -53 50 -81 vhcurveto
            -39 hlineto
            -49 0 -37 -17 -14 -32 rrcurveto
            -4 153 hlineto
            5 2 3 7 vhcurveto
            339 hlineto
            7 2 3 5 hvcurveto
            9 vlineto
            5 -2 3 -7 vhcurveto
            return
          </CharString>
          <CharString index="213">
            -7 -2 -3 -5 hvcurveto
            -9 vlineto
            -5 2 -3 7 vhcurveto
            339 hlineto
            7 2 -3 -5 hvcurveto
            -364 vlineto
            -65 -39 -36 -65 vhcurveto
            -39 hlineto
            -67 -37 38 68 hvcurveto
            121 vlineto
            68 37 38 67 vhcurveto
            53 hlineto
            7 2 3 5 hvcurveto
            12 vlineto
            5 -2 3 -7 vhcurveto
            -53 hlineto
            -81 -53 -50 -83 hvcurveto
            -123 vlineto
            -83 53 -50 81 vhcurveto
            39 hlineto
            48 0 34 14 18 34 rrcurveto
            4 -136 hlineto
            -7 3 -2 5 vhcurveto
            14 hlineto
            5 3 2 7 hvcurveto
            317 vlineto
            65 38 36 66 vhcurveto
            108 -234 hlineto
            -7 3 -2 5 vhcurveto
            14 hlineto
            5 3 2 7 hvcurveto
            111 vlineto
            5 2 3 7 vhcurveto
            223 hlineto
            7 2 -3 -5 hvcurveto
            -295 vlineto
            -7 3 -2 5 vhcurveto
            14 hlineto
            5 3 2 7 hvcurveto
            581 vlineto
            5 2 3 7 vhcurveto
            92 hlineto
            7 2 3 5 hvcurveto
            9 vlineto
            5 -2 3 -7 vhcurveto
            return
          </CharString>
          <CharString index="214">
            -49 0 -37 -17 -14 -32 rrcurveto
            -4 184 hlineto
            5 2 3 7 vhcurveto
            194 hlineto
            7 2 -3 -5 hvcurveto
            -135 vlineto
            return
          </CharString>
          <CharString index="215">
            -88 58 -55 86 vhcurveto
            96 hlineto
            50 0 43 19 17 35 rrcurveto
            4 -167 hlineto
            -7 3 -2 5 vhcurveto
            14 hlineto
            5 3 2 7 hvcurveto
            581 vlineto
            5 2 3 7 vhcurveto
            92 hlineto
            7 2 3 5 hvcurveto
            9 vlineto
            5 -2 3 -7 vhcurveto
            return
          </CharString>
          <CharString index="216">
            227 vlineto
            5 2 3 7 vhcurveto
            258 hlineto
            69 25 -28 -61 hvcurveto
            -4 vlineto
            -75 -30 -18 -64 vhcurveto
            -163 hlineto
            -49 0 -37 -17 -14 -32 rrcurveto
            return
          </CharString>
          <CharString index="217">
            -70 -44 -41 -70 vhcurveto
            -96 hlineto
            -72 -42 43 73 hvcurveto
            118 24 vlineto
            75 50 30 91 hvcurveto
            4 vlineto
            0 42 -10 27 -26 16 rrcurveto
            4 202 vlineto
            7 2 -3 -5 hvcurveto
            return
          </CharString>
          <CharString index="218">
            -9 -7 -8 -10 hvcurveto
            -596 vlineto
            -7 3 -2 5 vhcurveto
            14 hlineto
            5 3 2 7 hvcurveto
            581 vlineto
            5 2 3 7 vhcurveto
            92 hlineto
            7 2 3 5 hvcurveto
            9 vlineto
            5 -2 3 -7 vhcurveto
            return
          </CharString>
          <CharString index="219">
            -5 -2 -3 -7 vhcurveto
            -250 4 hlineto
            27 15 15 37 0 47 rrcurveto
            166 vlineto
            5 2 3 7 vhcurveto
            199 hlineto
            7 2 -3 -5 hvcurveto
            return
          </CharString>
          <CharString index="220">
            -7 -2 -3 -5 hvcurveto
            -9 vlineto
            -5 2 -3 7 vhcurveto
            210 hlineto
            7 2 -3 -5 hvcurveto
            -162 vlineto
            -80 -42 -23 -51 vhcurveto
            -81 hlineto
            -7 -2 -3 -5 hvcurveto
            0 -21 17 -21 182 -265 rlineto
            4 -6 4 -4 7 0 rrcurveto
            13 hlineto
            5 3 2 5 hvcurveto
            0 3 -2 3 -2 3 rrcurveto
            -192 281 50 0 rlineto
            72 52 37 94 hvcurveto
            162 vlineto
            5 2 3 7 vhcurveto
            576 hlineto
            7 2 -3 -5 hvcurveto
            -173 vlineto
            -5 -2 -3 -7 vhcurveto
            -156 hlineto
            -72 -53 -36 -94 hvcurveto
            -102 -102 vlineto
            -67 -31 38 68 hvcurveto
            40 vlineto
            68 31 38 67 vhcurveto
            18 hlineto
            7 2 3 5 hvcurveto
            12 vlineto
            5 -2 3 -7 vhcurveto
            -18 hlineto
            -81 -47 -50 -83 hvcurveto
            -42 vlineto
            -83 47 -50 81 vhcurveto
            102 -19 hlineto
            -94 63 -36 72 vhcurveto
            14 hlineto
            7 2 3 5 hvcurveto
            12 vlineto
            5 -2 3 -7 vhcurveto
            -15 hlineto
            -51 -53 22 80 hvcurveto
            149 vlineto
            80 43 22 51 vhcurveto
            157 hlineto
            7 2 -3 -5 hvcurveto
            -364 vlineto
            -7 3 -2 5 vhcurveto
            14 hlineto
            5 3 2 7 hvcurveto
            581 vlineto
            5 2 3 7 vhcurveto
            92 hlineto
            7 2 3 5 hvcurveto
            9 vlineto
            5 -2 3 -7 vhcurveto
            return
          </CharString>
          <CharString index="221">
            -7 -2 -3 -5 hvcurveto
            -9 vlineto
            -5 2 -3 7 vhcurveto
            210 hlineto
            7 2 -3 -5 hvcurveto
            -162 vlineto
            -80 -42 -23 -51 vhcurveto
            -81 hlineto
            -7 -2 -3 -5 hvcurveto
            0 -21 17 -21 182 -265 rlineto
            4 -6 4 -4 7 0 rrcurveto
            13 hlineto
            5 3 2 5 hvcurveto
            0 3 -2 3 -2 3 rrcurveto
            -192 281 50 0 rlineto
            72 52 37 94 hvcurveto
            162 vlineto
            5 2 3 7 vhcurveto
            282 hlineto
            7 2 -3 -5 hvcurveto
            -327 vlineto
            -68 -32 -18 -62 vhcurveto
            -4 hlineto
            -67 -31 38 68 hvcurveto
            40 vlineto
            68 31 38 67 vhcurveto
            18 hlineto
            7 2 3 5 hvcurveto
            12 vlineto
            5 -2 3 -7 vhcurveto
            -18 hlineto
            -81 -47 -50 -83 hvcurveto
            -42 vlineto
            -83 47 -50 81 vhcurveto
            4 hlineto
            77 0 46 30 1 81 rrcurveto
            0 1 0 43 rlineto
            return
          </CharString>
          <CharString index="222">
            5 2 3 7 vhcurveto
            223 hlineto
            7 2 -3 -5 hvcurveto
            -295 vlineto
            -7 3 -2 5 vhcurveto
            14 hlineto
            5 3 2 7 hvcurveto
            581 vlineto
            5 2 3 7 vhcurveto
            92 hlineto
            7 2 3 5 hvcurveto
            9 vlineto
            5 -2 3 -7 vhcurveto
            return
          </CharString>
          <CharString index="223">
            -7 3 -2 5 vhcurveto
            14 hlineto
            5 3 2 7 hvcurveto
            51 vlineto
            68 27 25 67 67 27 -25 -68 vhcurveto
            -89 vlineto
            return
          </CharString>
          <CharString index="224">
            -80 -42 -23 -51 vhcurveto
            -195 hlineto
            -7 -2 -3 -5 hvcurveto
            0 -21 17 -21 26 -38 -2 -2 rlineto
            -27 -27 -21 -16 -46 0 rrcurveto
            -4 hlineto
            -67 -31 38 68 hvcurveto
            40 vlineto
            68 31 38 67 vhcurveto
            18 hlineto
            7 2 3 5 hvcurveto
            12 vlineto
            5 -2 3 -7 vhcurveto
            -18 hlineto
            -81 -47 -50 -83 hvcurveto
            -42 vlineto
            -83 47 -50 81 vhcurveto
            4 hlineto
            58 0 30 27 23 24 rrcurveto
            129 -191 rlineto
            4 -6 3 -3 7 0 rrcurveto
            13 hlineto
            5 3 2 4 hvcurveto
            0 2 -1 2 -2 3 rrcurveto
            -182 269 166 0 rlineto
            72 52 37 94 hvcurveto
            90 vlineto
            83 -43 37 -81 -81 -43 -37 -83 vhcurveto
            return
          </CharString>
          <CharString index="225">
            50 hlineto
            72 52 37 94 hvcurveto
            162 vlineto
            5 2 3 7 vhcurveto
            240 hlineto
            7 2 3 5 hvcurveto
            9 vlineto
            5 -2 3 -7 vhcurveto
            -498 hlineto
            -7 -2 -3 -5 hvcurveto
            -9 vlineto
            -5 2 -3 7 vhcurveto
            210 hlineto
            7 2 -3 -5 hvcurveto
            -162 vlineto
            -80 -42 -23 -51 vhcurveto
            -81 hlineto
            -7 -2 -3 -5 hvcurveto
            0 -21 17 -21 182 -265 rlineto
            4 -6 4 -4 7 0 rrcurveto
            13 hlineto
            5 3 2 5 hvcurveto
            0 3 -2 3 -2 3 rrcurveto
            return
          </CharString>
          <CharString index="226">
            -7 -2 -3 -5 hvcurveto
            -9 vlineto
            -5 2 -3 7 vhcurveto
            39 hlineto
            67 27 -31 -68 hvcurveto
            -96 vlineto
            -68 -37 -41 -67 vhcurveto
            -167 hlineto
            return
          </CharString>
          <CharString index="227">
            -67 -27 31 68 hvcurveto
            10 vlineto
            63 29 33 65 vhcurveto
            44 hlineto
            7 2 3 5 hvcurveto
            12 vlineto
            5 -2 3 -7 vhcurveto
            -44 hlineto
            -62 -32 33 63 hvcurveto
            19 vlineto
            66 25 33 64 vhcurveto
            235 hlineto
            7 2 -3 -5 hvcurveto
            -99 vlineto
            0 -8 -1 -7 -3 -5 -16 6 -20 3 -22 0 rrcurveto
            return
          </CharString>
          <CharString index="228">
            174 hlineto
            7 2 -3 -5 hvcurveto
            -370 vlineto
            -7 3 -2 5 vhcurveto
            14 hlineto
            5 3 2 7 hvcurveto
            581 vlineto
            5 2 3 7 vhcurveto
            92 hlineto
            7 2 3 5 hvcurveto
            9 vlineto
            5 -2 3 -7 vhcurveto
            -904 hlineto
            -7 -2 -3 -5 hvcurveto
            -9 vlineto
            -5 2 -3 7 vhcurveto
            764 hlineto
            7 2 -3 -5 hvcurveto
            -167 vlineto
            -5 -2 -3 -7 vhcurveto
            -292 hlineto
            -7 -2 -3 -5 hvcurveto
            -12 vlineto
            -5 2 -3 7 vhcurveto
            37 hlineto
            51 43 -22 -80 hvcurveto
            -79 vlineto
            -80 -43 -22 -51 vhcurveto
            -117 hlineto
            -7 -2 -3 -5 hvcurveto
            -12 vlineto
            -5 2 -3 7 vhcurveto
            116 hlineto
            72 53 36 94 hvcurveto
            79 vlineto
            0 46 -13 35 -30 17 rrcurveto
            return
          </CharString>
          <CharString index="229">
            7 2 3 5 hvcurveto
            12 vlineto
            5 -2 3 -7 vhcurveto
            -299 hlineto
            -7 -2 -3 -5 hvcurveto
            -12 vlineto
            -5 2 -3 7 vhcurveto
            67 hlineto
            51 43 -22 -80 hvcurveto
            -79 vlineto
            -80 -43 -22 -51 vhcurveto
            -109 hlineto
            -7 -2 -3 -5 hvcurveto
            -12 vlineto
            -5 2 -3 7 vhcurveto
            108 hlineto
            72 53 36 94 hvcurveto
            79 vlineto
            0 46 -13 35 -30 17 rrcurveto
            4 vlineto
            return
          </CharString>
          <CharString index="230">
            107 vlineto
            5 2 3 7 vhcurveto
            172 hlineto
            7 2 -3 -5 hvcurveto
            return
          </CharString>
          <CharString index="231">
            -7 -2 -3 -5 hvcurveto
            -9 vlineto
            -5 2 -3 7 vhcurveto
            461 hlineto
            69 25 -29 -66 hvcurveto
            -11 vlineto
            -75 -30 -23 -64 vhcurveto
            -28 hlineto
            -7 27 -18 14 -38 0 rrcurveto
            -294 hlineto
            -7 -2 -3 -5 hvcurveto
            -12 vlineto
            -5 2 -3 7 vhcurveto
            67 hlineto
            51 43 -22 -80 hvcurveto
            -99 vlineto
            -80 -43 -22 -51 vhcurveto
            -109 hlineto
            -7 -2 -3 -5 hvcurveto
            -12 vlineto
            -5 2 -3 7 vhcurveto
            108 hlineto
            72 53 36 94 hvcurveto
            99 vlineto
            0 46 -13 35 -30 17 rrcurveto
            4 146 vlineto
            34 2 -13 -32 hvcurveto
            -107 vlineto
            -88 58 -55 86 vhcurveto
            96 hlineto
            50 0 43 19 17 35 rrcurveto
            4 -157 hlineto
            -7 3 -2 5 vhcurveto
            14 hlineto
            5 3 2 7 hvcurveto
            581 vlineto
            5 2 3 7 vhcurveto
            92 hlineto
            7 2 3 5 hvcurveto
            9 vlineto
            5 -2 3 -7 vhcurveto
            return
          </CharString>
          <CharString index="232">
            -7 -2 -3 -5 hvcurveto
            -9 vlineto
            -5 2 -3 7 vhcurveto
            39 hlineto
            return
          </CharString>
          <CharString index="233">
            67 27 -31 -68 hvcurveto
            -135 vlineto
            -68 -37 -41 -67 vhcurveto
            -167 hlineto
            -67 -27 31 68 hvcurveto
            49 vlineto
            63 29 33 65 vhcurveto
            44 hlineto
            7 2 3 5 hvcurveto
            12 vlineto
            5 -2 3 -7 vhcurveto
            -44 hlineto
            -62 -32 33 63 hvcurveto
            59 vlineto
            66 25 33 64 vhcurveto
            235 hlineto
            7 2 -3 -5 hvcurveto
            -139 vlineto
            0 -8 -1 -7 -3 -5 -16 6 -20 3 -22 0 rrcurveto
            return
          </CharString>
          <CharString index="234">
            -101 53 -55 91 vhcurveto
            66 hlineto
            50 0 43 19 17 35 rrcurveto
            4 -106 hlineto
            -7 3 -2 5 vhcurveto
            14 hlineto
            5 3 2 7 hvcurveto
            581 vlineto
            5 2 3 7 vhcurveto
            92 hlineto
            7 2 3 5 hvcurveto
            9 vlineto
            5 -2 3 -7 vhcurveto
            return
          </CharString>
          <CharString index="235">
            -7 -2 -3 -5 hvcurveto
            -9 vlineto
            -5 2 -3 7 vhcurveto
            345 hlineto
            7 2 -3 -5 hvcurveto
            -99 vlineto
            -5 -2 -3 -7 vhcurveto
            -137 hlineto
            -81 -43 -26 -73 hvcurveto
            -4 vlineto
            -73 43 -26 81 vhcurveto
            81 hlineto
            return
          </CharString>
          <CharString index="236">
            117 vlineto
            5 2 3 7 vhcurveto
            105 hlineto
            7 2 3 5 hvcurveto
            9 vlineto
            5 -2 3 -7 vhcurveto
            return
          </CharString>
          <CharString index="237">
            -70 -44 -41 -70 vhcurveto
            -96 hlineto
            -72 -42 43 73 hvcurveto
            94 24 vlineto
            75 50 35 91 hvcurveto
            28 vlineto
            0 42 -10 32 -26 16 rrcurveto
            4 202 vlineto
            7 2 -3 -5 hvcurveto
            return
          </CharString>
          <CharString index="238">
            78 37 28 67 66 38 -28 -77 vhcurveto
            -96 vlineto
            -7 3 -2 5 vhcurveto
            14 hlineto
            5 3 2 7 hvcurveto
            96 vlineto
            80 38 25 66 67 37 -28 -78 vhcurveto
            -300 vlineto
            -7 3 -2 5 vhcurveto
            14 hlineto
            5 3 2 7 hvcurveto
            581 vlineto
            5 2 3 7 vhcurveto
            92 hlineto
            7 2 3 5 hvcurveto
            9 vlineto
            5 -2 3 -7 vhcurveto
            return
          </CharString>
          <CharString index="239">
            -7 -2 -3 -5 hvcurveto
            -9 vlineto
            -5 2 -3 7 vhcurveto
            354 hlineto
            7 2 -3 -5 hvcurveto
            -119 vlineto
            -5 -2 -3 -7 vhcurveto
            -144 hlineto
            -81 -53 -53 -83 hvcurveto
            -78 vlineto
            0 -77 45 -51 71 -7 rrcurveto
            -92 vlineto
            -80 -43 -22 -51 vhcurveto
            -16 hlineto
            -7 -2 -3 -5 hvcurveto
            -12 vlineto
            -5 2 -3 7 vhcurveto
            15 hlineto
            72 53 36 94 hvcurveto
            91 66 vlineto
            38 0 34 8 18 28 rrcurveto
            return
          </CharString>
          <CharString index="240">
            -7 -2 -3 -5 hvcurveto
            -9 vlineto
            -5 2 -3 7 vhcurveto
            354 hlineto
            7 2 -3 -5 hvcurveto
            -119 vlineto
            -5 -2 -3 -7 vhcurveto
            -144 hlineto
            -81 -53 -53 -83 hvcurveto
            -98 vlineto
            0 -59 26 -43 44 -21 rrcurveto
            return
          </CharString>
          <CharString index="241">
            -30 -14 -27 -29 0 -47 rrcurveto
            -11 vlineto
            -78 43 -38 81 vhcurveto
            65 hlineto
            81 51 47 83 hvcurveto
            221 vlineto
            7 -3 2 -5 vhcurveto
            -12 hlineto
            -5 -3 -2 -7 hvcurveto
            -30 vlineto
            -61 -31 -28 -63 vhcurveto
            -78 hlineto
            return
          </CharString>
          <CharString index="242">
            -67 -37 41 68 hvcurveto
            96 vlineto
            68 37 41 67 vhcurveto
            166 hlineto
            9 7 8 10 hvcurveto
            137 vlineto
            5 2 3 7 vhcurveto
            81 hlineto
            7 2 3 5 hvcurveto
            9 vlineto
            5 -2 3 -7 vhcurveto
            return
          </CharString>
          <CharString index="243">
            -67 -27 26 62 hvcurveto
            10 vlineto
            0 30 13 21 23 13 rrcurveto
            180 -150 rlineto
            -15 -8 -20 -4 -22 0 rrcurveto
            return
          </CharString>
          <CharString index="244">
            38 0 34 8 18 28 rrcurveto
            return
          </CharString>
          <CharString index="245">
            4 -109 hlineto
            -68 -37 -35 -67 vhcurveto
            -65 hlineto
            -67 -27 26 62 hvcurveto
            10 vlineto
            51 39 27 58 vhcurveto
            return
          </CharString>
          <CharString index="246">
            -70 -44 -41 -70 vhcurveto
            -96 hlineto
            -72 -42 43 73 hvcurveto
            return
          </CharString>
          <CharString index="247">
            110 24 vlineto
            75 50 35 91 hvcurveto
            12 vlineto
            0 42 -10 32 -26 16 rrcurveto
            4 202 vlineto
            7 2 -3 -5 hvcurveto
            return
          </CharString>
          <CharString index="248">
            23 -22 33 -12 40 0 rrcurveto
            39 hlineto
            48 0 34 14 18 34 rrcurveto
            4 -136 hlineto
            -7 3 -2 5 vhcurveto
            13 hlineto
            5 3 2 7 hvcurveto
            581 vlineto
            5 2 3 7 vhcurveto
            92 hlineto
            7 2 3 5 hvcurveto
            9 vlineto
            5 -2 3 -7 vhcurveto
            return
          </CharString>
          <CharString index="249">
            -43 -13 -27 -42 0 -68 rrcurveto
            -74 vlineto
            -83 55 -55 81 vhcurveto
            86 hlineto
            81 55 55 83 hvcurveto
            48 vlineto
            7 -3 2 -5 vhcurveto
            -14 hlineto
            -5 -3 -2 -7 hvcurveto
            -47 vlineto
            -68 -39 -43 -67 vhcurveto
            -86 hlineto
            -67 -39 43 68 hvcurveto
            72 vlineto
            68 31 41 67 vhcurveto
            157 hlineto
            return
          </CharString>
          <CharString index="250">
            -7 -2 -3 -5 hvcurveto
            -9 vlineto
            -5 2 -3 7 vhcurveto
            84 hlineto
            5 -1 2 -3 0 -4 rrcurveto
            -265 vlineto
            -83 53 -50 81 vhcurveto
            33 hlineto
            47 0 35 14 18 34 rrcurveto
            4 -231 hlineto
            -7 3 -2 5 vhcurveto
            13 hlineto
            5 3 2 7 hvcurveto
            297 vlineto
            65 38 36 66 vhcurveto
            81 hlineto
            7 2 3 5 hvcurveto
            12 vlineto
            5 -2 3 -7 vhcurveto
            -81 hlineto
            -49 0 -37 -17 -14 -32 rrcurveto
            -4 204 hlineto
            5 2 3 7 vhcurveto
            556 hlineto
            7 2 -3 -5 hvcurveto
            -147 vlineto
            -5 -2 -3 -7 vhcurveto
            -282 hlineto
            -7 -2 -3 -5 hvcurveto
            -12 vlineto
            -5 2 -3 7 vhcurveto
            27 hlineto
            51 43 -22 -80 hvcurveto
            -99 vlineto
            -80 -43 -22 -51 vhcurveto
            -117 hlineto
            -7 -2 -3 -5 hvcurveto
            -12 vlineto
            -5 2 -3 7 vhcurveto
            116 hlineto
            72 53 36 94 hvcurveto
            99 vlineto
            0 46 -13 35 -30 17 rrcurveto
            4 174 vlineto
            7 2 -3 -5 hvcurveto
            -390 vlineto
            -7 3 -2 5 vhcurveto
            14 hlineto
            5 3 2 7 hvcurveto
            581 vlineto
            5 2 3 7 vhcurveto
            92 hlineto
            7 2 3 5 hvcurveto
            9 vlineto
            5 -2 3 -7 vhcurveto
            return
          </CharString>
          <CharString index="251">
            -7 -2 -3 -5 hvcurveto
            -9 vlineto
            -5 2 -3 7 vhcurveto
            84 hlineto
            5 -1 2 -3 0 -4 rrcurveto
            -265 vlineto
            -83 53 -50 81 vhcurveto
            33 hlineto
            47 0 35 14 18 34 rrcurveto
            4 -231 hlineto
            -7 3 -2 5 vhcurveto
            13 hlineto
            5 3 2 7 hvcurveto
            317 vlineto
            65 38 36 66 vhcurveto
            111 -102 hlineto
            -83 53 -50 81 vhcurveto
            33 hlineto
            47 0 35 14 18 34 rrcurveto
            4 -231 hlineto
            -7 3 -2 5 vhcurveto
            13 hlineto
            5 3 2 7 hvcurveto
            348 vlineto
            65 38 36 66 vhcurveto
            39 hlineto
            67 37 -38 -68 hvcurveto
            -121 vlineto
            -68 -37 -38 -67 vhcurveto
            -53 hlineto
            -7 -2 -3 -5 hvcurveto
            -12 vlineto
            -5 2 -3 7 vhcurveto
            53 hlineto
            81 53 50 83 hvcurveto
            123 vlineto
            83 -53 50 -81 vhcurveto
            -39 hlineto
            -49 0 -37 -17 -14 -32 rrcurveto
            -4 153 hlineto
            5 2 3 7 vhcurveto
            339 hlineto
            7 2 3 5 hvcurveto
            9 vlineto
            5 -2 3 -7 vhcurveto
            return
          </CharString>
          <CharString index="252">
            -7 -2 -3 -5 hvcurveto
            -9 vlineto
            -5 2 -3 7 vhcurveto
            739 hlineto
            7 2 -3 -5 hvcurveto
            -167 vlineto
            -5 -2 -3 -7 vhcurveto
            -322 hlineto
            -7 -2 -3 -5 hvcurveto
            -12 vlineto
            -5 2 -3 7 vhcurveto
            67 hlineto
            51 43 -22 -80 hvcurveto
            -79 vlineto
            -80 -43 -22 -51 vhcurveto
            -98 0 -254 311 rlineto
            18 15 24 8 31 0 rrcurveto
            58 hlineto
            7 2 3 5 hvcurveto
            12 vlineto
            5 -2 3 -7 vhcurveto
            -58 hlineto
            -81 -53 -50 -83 hvcurveto
            -124 vlineto
            -83 53 -50 81 vhcurveto
            278 hlineto
            72 53 36 94 hvcurveto
            79 vlineto
            0 46 -13 35 -30 17 rrcurveto
            4 174 vlineto
            7 2 -3 -5 hvcurveto
            -370 vlineto
            -7 3 -2 5 vhcurveto
            14 hlineto
            5 3 2 7 hvcurveto
            581 vlineto
            5 2 3 7 vhcurveto
            92 hlineto
            7 2 3 5 hvcurveto
            9 vlineto
            5 -2 3 -7 vhcurveto
            return
          </CharString>
          <CharString index="253">
            0 24 4 20 9 16 rrcurveto
            235 -288 -144 0 rlineto
            -67 -37 38 68 hvcurveto
            return
          </CharString>
          <CharString index="254">
            -67 -37 38 68 hvcurveto
            132 vlineto
            0 21 4 19 7 15 rrcurveto
            231 -243 rlineto
            -16 -32 -31 -18 -46 0 rrcurveto
            return
          </CharString>
          <CharString index="255">
            24 -39 43 -22 55 0 rrcurveto
            96 hlineto
            50 0 43 19 17 35 rrcurveto
            4 -157 hlineto
            -7 3 -2 5 vhcurveto
            14 hlineto
            5 3 2 7 hvcurveto
            581 vlineto
            5 2 3 7 vhcurveto
            92 hlineto
            7 2 3 5 hvcurveto
            9 vlineto
            5 -2 3 -7 vhcurveto
            return
          </CharString>
          <CharString index="256">
            174 hlineto
            7 2 -3 -5 hvcurveto
            -398 vlineto
            -7 3 -2 5 vhcurveto
            14 hlineto
            5 3 2 7 hvcurveto
            581 vlineto
            5 2 3 7 vhcurveto
            92 hlineto
            7 2 3 5 hvcurveto
            9 vlineto
            5 -2 3 -7 vhcurveto
            -1045 hlineto
            -7 -2 -3 -5 hvcurveto
            -9 vlineto
            -5 2 -3 7 vhcurveto
            905 hlineto
            7 2 -3 -5 hvcurveto
            -139 vlineto
            -5 -2 -3 -7 vhcurveto
            -322 hlineto
            -7 -2 -3 -5 hvcurveto
            -12 vlineto
            -5 2 -3 7 vhcurveto
            67 hlineto
            51 43 -22 -80 hvcurveto
            -107 vlineto
            -80 -43 -22 -51 vhcurveto
            -148 hlineto
            -7 -2 -3 -5 hvcurveto
            -12 vlineto
            -5 2 -3 7 vhcurveto
            147 hlineto
            72 53 36 94 hvcurveto
            107 vlineto
            0 46 -13 35 -30 17 rrcurveto
            return
          </CharString>
          <CharString index="257">
            -54 0 -46 -17 -17 -53 rrcurveto
            -4 hlineto
            -17 53 -48 17 -52 0 rrcurveto
            -81 -53 -40 -93 hvcurveto
            -136 vlineto
            -93 53 -40 81 vhcurveto
            59 hlineto
            7 2 3 5 hvcurveto
            12 vlineto
            5 -2 3 -7 vhcurveto
            -59 hlineto
            -67 -37 28 78 hvcurveto
            134 vlineto
            78 37 28 67 66 38 -28 -77 vhcurveto
            -96 vlineto
            -7 3 -2 5 vhcurveto
            14 hlineto
            5 3 2 7 hvcurveto
            96 vlineto
            80 38 25 66 vhcurveto
            31 hlineto
            7 2 3 5 hvcurveto
            12 vlineto
            5 -2 3 -7 vhcurveto
            return
          </CharString>
          <CharString index="258">
            58 27 20 67 vhcurveto
            159 hlineto
            9 7 8 10 hvcurveto
            return
          </CharString>
          <CharString index="259">
            -70 -44 -36 -76 hvcurveto
            -44 vlineto
            -7 3 -2 5 vhcurveto
            14 hlineto
            5 3 2 7 hvcurveto
            44 vlineto
            61 32 23 52 52 32 -24 -61 vhcurveto
            -70 vlineto
            -80 -43 -22 -51 vhcurveto
            -102 hlineto
            -8 56 -38 49 -74 0 -54 0 -44 -17 -17 -53 rrcurveto
            -4 hlineto
            -17 53 -48 17 -52 0 rrcurveto
            -81 -53 -40 -93 hvcurveto
            -136 vlineto
            -93 53 -40 81 vhcurveto
            59 hlineto
            7 2 3 5 hvcurveto
            12 vlineto
            5 -2 3 -7 vhcurveto
            -59 hlineto
            -67 -37 28 78 hvcurveto
            134 vlineto
            78 37 28 67 66 38 -28 -77 vhcurveto
            -96 vlineto
            -7 3 -2 5 vhcurveto
            14 hlineto
            5 3 2 7 hvcurveto
            96 vlineto
            80 41 25 61 vhcurveto
            return
          </CharString>
          <CharString index="260">
            5 -2 3 -7 vhcurveto
            -480 hlineto
            -7 -2 -3 -5 hvcurveto
            -9 vlineto
            -5 2 -3 7 vhcurveto
            480 hlineto
            7 2 3 5 hvcurveto
            return
          </CharString>
          <CharString index="261">
            -70 -44 -41 -70 vhcurveto
            -96 hlineto
            -72 -42 43 73 hvcurveto
            80 24 vlineto
            75 50 35 91 hvcurveto
            42 vlineto
            0 42 -10 32 -26 16 rrcurveto
            4 202 vlineto
            7 2 -3 -5 hvcurveto
            return
          </CharString>
          <CharString index="262">
            5 2 3 7 vhcurveto
            339 hlineto
            7 2 3 5 hvcurveto
            9 vlineto
            5 -2 3 -7 vhcurveto
            -667 hlineto
            -7 -2 -3 -5 hvcurveto
            -9 vlineto
            -5 2 -3 7 vhcurveto
            280 hlineto
            7 2 -3 -5 hvcurveto
            -364 vlineto
            -65 -39 -36 -65 vhcurveto
            -39 hlineto
            -67 -37 38 68 hvcurveto
            121 vlineto
            68 37 38 67 vhcurveto
            53 hlineto
            7 2 3 5 hvcurveto
            12 vlineto
            5 -2 3 -7 vhcurveto
            -53 hlineto
            -81 -53 -50 -83 hvcurveto
            -123 vlineto
            -83 53 -50 81 vhcurveto
            39 hlineto
            48 0 34 14 18 34 rrcurveto
            4 -136 hlineto
            -7 3 -2 5 vhcurveto
            14 hlineto
            5 3 2 7 hvcurveto
            348 vlineto
            65 38 36 66 vhcurveto
            39 hlineto
            67 37 -38 -68 hvcurveto
            -121 vlineto
            -68 -37 -38 -67 vhcurveto
            -53 hlineto
            -7 -2 -3 -5 hvcurveto
            -12 vlineto
            -5 2 -3 7 vhcurveto
            53 hlineto
            81 53 50 83 hvcurveto
            123 vlineto
            83 -53 50 -81 vhcurveto
            -39 hlineto
            -49 0 -37 -17 -14 -32 rrcurveto
            -4 hlineto
            return
          </CharString>
          <CharString index="263">
            -7 -2 -3 -5 hvcurveto
            -9 vlineto
            -5 2 -3 7 vhcurveto
            76 hlineto
            return
          </CharString>
          <CharString index="264">
            7 2 -3 -5 hvcurveto
            -146 vlineto
            0 -57 25 -38 36 -19 rrcurveto
            -4 vlineto
            return
          </CharString>
          <CharString index="265">
            34 15 18 28 hvcurveto
            233 vlineto
            5 2 3 7 vhcurveto
            73 hlineto
            7 2 3 5 hvcurveto
            9 vlineto
            5 -2 3 -7 vhcurveto
            return
          </CharString>
          <CharString index="266">
            7 2 -3 -5 hvcurveto
            0 -222 -256 230 rlineto
            return
          </CharString>
          <CharString index="267">
            -67 -37 38 68 hvcurveto
            0 124 253 -229 rlineto
            -2 -1 -3 0 -2 0 rrcurveto
            return
          </CharString>
          <CharString index="268">
            8 -7 -4 0 rlineto
            -7 -2 -3 -5 hvcurveto
            0 -18 -14 13 rlineto
            return
          </CharString>
          <CharString index="269">
            -68 -32 -41 -67 vhcurveto
            -89 hlineto
            -67 -33 41 68 hvcurveto
            64 vlineto
            return
          </CharString>
          <CharString index="270">
            68 22 41 67 vhcurveto
            110 hlineto
            67 22 -41 -68 hvcurveto
            return
          </CharString>
          <CharString index="271">
            -6 5 rlineto
            8 6 7 7 5 8 rrcurveto
            3 -2 rlineto
            return
          </CharString>
          <CharString index="272">
            -7 -2 -3 -5 hvcurveto
            -9 vlineto
            -5 2 -3 7 vhcurveto
            84 hlineto
            5 -1 2 -3 0 -4 rrcurveto
            -273 vlineto
            -83 53 -50 81 vhcurveto
            46 hlineto
            58 0 42 42 25 29 19 -48 43 -19 53 0 rrcurveto
            25 hlineto
            72 53 36 94 hvcurveto
            272 vlineto
            0 4 1 3 5 1 rrcurveto
            175 hlineto
            7 2 -3 -5 hvcurveto
            -581 vlineto
            -7 3 -2 5 vhcurveto
            14 hlineto
            5 3 2 7 hvcurveto
            581 vlineto
            5 2 3 7 vhcurveto
            92 hlineto
            7 2 3 5 hvcurveto
            9 vlineto
            5 -2 3 -7 vhcurveto
            return
          </CharString>
          <CharString index="273">
            258 hlineto
            7 2 -3 -5 hvcurveto
            -272 vlineto
            0 -11 1 -11 1 -9 rrcurveto
            return
          </CharString>
          <CharString index="274">
            -5 -2 -3 -7 vhcurveto
            -156 hlineto
            -60 0 -47 -25 -14 -63 rrcurveto
            -251 4 hlineto
            27 15 15 37 0 47 rrcurveto
            166 vlineto
            5 2 3 7 vhcurveto
            477 hlineto
            7 2 -3 -5 hvcurveto
            return
          </CharString>
          <CharString index="275">
            4 vlineto
            27 15 15 37 0 47 rrcurveto
            166 vlineto
            5 2 3 7 vhcurveto
            205 hlineto
            7 2 -3 -5 hvcurveto
            -269 vlineto
            return
          </CharString>
          <CharString index="276">
            -65 -39 -36 -65 vhcurveto
            -39 hlineto
            -67 -37 38 68 hvcurveto
            121 vlineto
            68 37 38 67 vhcurveto
            53 hlineto
            7 2 3 5 hvcurveto
            12 vlineto
            5 -2 3 -7 vhcurveto
            -53 hlineto
            -81 -53 -50 -83 hvcurveto
            -32 -247 4 vlineto
            27 15 15 37 0 47 rrcurveto
            166 vlineto
            5 2 3 7 vhcurveto
            464 hlineto
            7 2 -3 -5 hvcurveto
            return
          </CharString>
          <CharString index="277">
            -7 -2 -3 -5 hvcurveto
            -9 vlineto
            -5 2 -3 7 vhcurveto
            350 hlineto
            7 2 -3 -5 hvcurveto
            -109 vlineto
            -5 -2 -3 -7 vhcurveto
            -138 hlineto
            -81 -43 -38 -78 hvcurveto
            0 -55 22 -34 41 -14 rrcurveto
            -4 vlineto
            -44 -19 -24 -39 0 -59 rrcurveto
            -37 vlineto
            -83 53 -53 81 vhcurveto
            169 hlineto
            7 2 3 5 hvcurveto
            12 vlineto
            5 -2 3 -7 vhcurveto
            -169 hlineto
            -67 -37 41 68 hvcurveto
            35 vlineto
            67 35 42 64 vhcurveto
            70 hlineto
            return
          </CharString>
          <CharString index="278">
            -7 -2 -3 -5 hvcurveto
            -9 vlineto
            -5 2 -3 7 vhcurveto
            94 hlineto
            7 2 3 5 hvcurveto
            9 vlineto
            5 -2 3 -7 vhcurveto
            return
          </CharString>
          <CharString index="279">
            31 vlineto
            83 -53 51 -81 vhcurveto
            -39 hlineto
            -49 0 -37 -17 -14 -32 rrcurveto
            -4 153 hlineto
            5 2 3 7 vhcurveto
            385 hlineto
            7 2 -3 -5 hvcurveto
            -166 vlineto
            -76 -43 -27 -48 vhcurveto
            return
          </CharString>
          <CharString index="280">
            27 15 15 37 0 47 rrcurveto
            166 vlineto
            5 2 3 7 vhcurveto
            204 hlineto
            5 -1 2 -3 0 -4 rrcurveto
            -269 -262 vlineto
            return
          </CharString>
          <CharString index="281">
            -70 -44 -41 -70 vhcurveto
            -96 hlineto
            -72 -42 43 73 hvcurveto
            100 24 vlineto
            75 50 35 91 hvcurveto
            22 vlineto
            0 42 -10 32 -26 16 rrcurveto
            4 202 vlineto
            7 2 -3 -5 hvcurveto
            return
          </CharString>
          <CharString index="282">
            -70 -44 -36 -76 hvcurveto
            -44 vlineto
            -7 3 -2 5 vhcurveto
            14 hlineto
            5 3 2 7 hvcurveto
            44 vlineto
            61 32 23 52 52 32 -24 -61 vhcurveto
            -50 vlineto
            -80 -43 -22 -51 vhcurveto
            -306 hlineto
            -61 -29 -38 -51 hvcurveto
            0 -20 6 -27 8 -24 2 -7 4 -2 5 0 rrcurveto
            13 hlineto
            4 3 2 4 hvcurveto
            0 4 -1 3 -3 9 -6 19 -5 19 0 19 rrcurveto
            35 18 27 43 vhcurveto
            return
          </CharString>
          <CharString index="283">
            5 -2 3 -7 vhcurveto
            -250 hlineto
            -7 -2 -3 -5 hvcurveto
            -9 vlineto
            -5 2 -3 7 vhcurveto
            250 hlineto
            7 2 3 5 hvcurveto
            return
          </CharString>
          <CharString index="284">
            -75 -30 -23 -64 vhcurveto
            -46 hlineto
            -7 -2 -3 -5 hvcurveto
            -65 vlineto
            return
          </CharString>
          <CharString index="285">
            -5 -3 2 7 hvcurveto
            242 vlineto
            5 2 3 7 vhcurveto
            138 0 2 0 1 0 7 0 rlineto
            44 35 -21 -58 hvcurveto
            -180 vlineto
            return
          </CharString>
          <CharString index="286">
            -44 26 -37 39 0 66 rrcurveto
            73 28 25 71 71 24 -25 -73 vhcurveto
            0 -52 -26 -51 -60 -39 rrcurveto
            -4 -3 rlineto
            return
          </CharString>
          <CharString index="287">
            -7 -2 -3 -5 hvcurveto
            -9 vlineto
            -5 2 -3 7 vhcurveto
            395 hlineto
            7 2 -3 -5 hvcurveto
            -99 vlineto
            -5 -2 -3 -7 vhcurveto
            -187 hlineto
            -81 -43 -31 -73 hvcurveto
            -4 vlineto
            -73 43 -31 81 vhcurveto
            131 hlineto
            return
          </CharString>
          <CharString index="288">
            67 27 -19 -58 hvcurveto
            -45 vlineto
            -58 -27 -21 -67 vhcurveto
            -146 hlineto
            -62 -22 21 68 hvcurveto
            9 vlineto
            7 -3 2 -5 vhcurveto
            -14 hlineto
            -5 -3 -2 -7 hvcurveto
            -10 vlineto
            0 -75 31 -34 62 -6 rrcurveto
            -91 vlineto
            -80 -43 -22 -51 vhcurveto
            -16 hlineto
            -7 -2 -3 -5 hvcurveto
            -12 vlineto
            -5 2 -3 7 vhcurveto
            15 hlineto
            72 53 36 94 hvcurveto
            90 137 vlineto
            8 0 8 0 7 1 rrcurveto
            -310 vlineto
            -7 3 -2 5 vhcurveto
            14 hlineto
            5 3 2 7 hvcurveto
            315 vlineto
            47 13 24 32 0 55 rrcurveto
            47 vlineto
            73 -43 31 -81 vhcurveto
            -131 hlineto
            -67 -27 20 58 58 27 20 67 hvcurveto
            209 hlineto
            9 7 8 10 hvcurveto
            return
          </CharString>
          <CharString index="289">
            -68 -37 -41 -67 vhcurveto
            -90 hlineto
            -67 -37 41 68 hvcurveto
            70 vlineto
            68 37 41 67 vhcurveto
            90 hlineto
            67 37 -41 -68 hvcurveto
            return
          </CharString>
          <CharString index="290">
            -68 -37 -38 -67 vhcurveto
            -67 hlineto
            -7 -2 -3 -5 hvcurveto
            -12 vlineto
            -5 2 -3 7 vhcurveto
            67 hlineto
            67 37 -38 -68 hvcurveto
            -42 vlineto
            -68 -37 -41 -67 vhcurveto
            -36 hlineto
            -67 -37 41 68 hvcurveto
            39 vlineto
            7 -3 2 -5 vhcurveto
            -14 hlineto
            -5 -3 -2 -7 hvcurveto
            -40 vlineto
            -83 53 -53 81 vhcurveto
            36 hlineto
            81 53 53 83 hvcurveto
            44 vlineto
            return
          </CharString>
        <CharString name=".notdef">
          103 0 46 490 46 hstem
          120 50 260 50 vstem
          170 536 rmoveto
          260 -490 -260 hlineto
          -50 -46 rmoveto
          360 582 -360 hlineto
          endchar
        </CharString>
        <CharString name="A">
          29 21 -21 183 30 hstem
          51 hmoveto
          -91 callsubr
          224 605 rmoveto
          -90 callsubr
          endchar
        </CharString>
        <CharString name="AE">
          274 0 28 155 30 101 28 273 28 hstem
          380 30 vstem
          24 hmoveto
          -27 callsubr
          371 607 rmoveto
          4 -394 -228 hlineto
          endchar
        </CharString>
        <CharString name="AEacute">
          274 0 28 155 30 101 28 273 28 hstem
          380 30 vstem
          485 836 rmoveto
          -33 callsubr
          -491 -836 rmoveto
          -27 callsubr
          371 607 rmoveto
          4 -394 -228 hlineto
          endchar
        </CharString>
        <CharString name="Aacute">
          29 21 -21 183 30 hstem
          344 836 rmoveto
          -33 callsubr
          -323 -836 rmoveto
          -91 callsubr
          224 605 rmoveto
          -90 callsubr
          endchar
        </CharString>
        <CharString name="Abreve">
          29 21 -21 183 30 494 22 hstem
          167 26 141 24 vstem
          167 827 rmoveto
          -12 callsubr
          -116 -827 rmoveto
          -91 callsubr
          224 605 rmoveto
          -90 callsubr
          endchar
        </CharString>
        <CharString name="Acircumflex">
          29 21 -21 183 30 hstem
          287 827 rmoveto
          -31 callsubr
          -300 -718 rmoveto
          -91 callsubr
          224 605 rmoveto
          -90 callsubr
          endchar
        </CharString>
        <CharString name="Adieresis">
          29 21 -21 183 30 494 129 hstem
          170 30 126 30 vstem
          170 716 rmoveto
          -36 callsubr
          156 -111 rmoveto
          -36 callsubr
          -275 -827 rmoveto
          -91 callsubr
          224 605 rmoveto
          -90 callsubr
          endchar
        </CharString>
        <CharString name="Agrave">
          29 21 -21 183 30 hstem
          198 827 rmoveto
          -68 callsubr
          -215 -716 rmoveto
          -91 callsubr
          224 605 rmoveto
          -90 callsubr
          endchar
        </CharString>
        <CharString name="Amacron">
          29 21 -21 183 30 544 28 hstem
          365 757 rmoveto
          -13 callsubr
          -110 -757 rmoveto
          -91 callsubr
          224 605 rmoveto
          -90 callsubr
          endchar
        </CharString>
        <CharString name="Aogonek">
          29 -101 27 95 -21 183 30 hstem
          285 634 rmoveto
          -2 7 -3 2 -5 0 rrcurveto
          -24 hlineto
          -5 0 -3 -2 -2 -7 rrcurveto
          -210 -625 rlineto
          -2 -7 3 -2 5 0 rrcurveto
          14 hlineto
          5 0 3 2 3 7 rrcurveto
          61 174 280 0 58 -165 -67 -84 rlineto
          -14 -17 6 -18 32 0 rrcurveto
          41 26 8 9 7 -5 3 -24 hvcurveto
          -38 0 57 74 14 0 rlineto
          5 0 3 2 -2 7 rrcurveto
          -361 204 rmoveto
          127 392 4 0 127 -392 rlineto
          endchar
        </CharString>
        <CharString name="Aring">
          29 21 -21 183 30 479 23 133 23 hstem
          180 24 115 25 vstem
          266 692 rmoveto
          -29 callsubr
          23 vmoveto
          -28 callsubr
          -215 -715 rmoveto
          -91 callsubr
          224 605 rmoveto
          -90 callsubr
          endchar
        </CharString>
        <CharString name="Atilde">
          29 21 -21 183 30 489 21 87 21 hstem
          160 23 160 23 vstem
          275 765 rmoveto
          -30 callsubr
          -224 -765 rmoveto
          -91 callsubr
          224 605 rmoveto
          -90 callsubr
          endchar
        </CharString>
        <CharString name="B">
          47 0 28 283 28 276 28 hstem
          90 30 319 30 vstem
          129 28 rmoveto
          -7 -2 3 5 hvcurveto
          267 vlineto
          5 2 3 7 vhcurveto
          196 hlineto
          77 37 -38 -68 hvcurveto
          -71 vlineto
          -68 -37 -38 -67 vhcurveto
          -206 311 rmoveto
          -7 -2 3 5 hvcurveto
          260 vlineto
          5 2 3 7 vhcurveto
          200 hlineto
          67 37 -38 -68 hvcurveto
          -64 vlineto
          -68 -41 -38 -67 vhcurveto
          -235 -330 rmoveto
          -7 3 -2 5 vhcurveto
          237 hlineto
          81 53 50 83 hvcurveto
          73 vlineto
          0 72 -49 45 -45 2 47 14 41 33 0 72 rrcurveto
          66 vlineto
          83 -53 50 -81 vhcurveto
          -231 hlineto
          -5 -3 -2 -7 hvcurveto
          endchar
        </CharString>
        <CharString name="C">
          46 0 28 587 28 hstem
          80 30 338 30 vstem
          344 hmoveto
          -89 callsubr
          endchar
        </CharString>
        <CharString name="CR">
          -497 endchar
        </CharString>
        <CharString name="Cacute">
          46 0 28 587 28 hstem
          80 30 338 30 vstem
          349 836 rmoveto
          -33 callsubr
          -35 -836 rmoveto
          -89 callsubr
          endchar
        </CharString>
        <CharString name="Ccaron">
          46 0 28 587 28 hstem
          80 30 338 30 vstem
          274 707 rmoveto
          -11 callsubr
          70 -707 rmoveto
          -89 callsubr
          endchar
        </CharString>
        <CharString name="Ccedilla">
          46 -178 26 72 26 54 28 587 28 hstem
          80 30 214 27 97 30 vstem
          470 448 rmoveto
          5 3 2 7 hvcurveto
          50 vlineto
          83 -53 53 -81 vhcurveto
          -130 hlineto
          -81 -53 -53 -83 hvcurveto
          -371 vlineto
          -83 53 -53 81 vhcurveto
          70 0 -40 -45 rlineto
          -14 -15 6 -20 24 0 rrcurveto
          9 hlineto
          41 14 -9 -27 hvcurveto
          -2 vlineto
          -25 -15 -9 -40 vhcurveto
          -16 hlineto
          -7 -2 -3 -5 hvcurveto
          -10 vlineto
          -5 2 -3 7 vhcurveto
          19 hlineto
          52 27 16 41 hvcurveto
          10 vlineto
          42 -27 15 -52 vhcurveto
          0 4 46 50 26 0 rlineto
          81 53 53 83 hvcurveto
          50 vlineto
          7 -3 2 -5 vhcurveto
          -14 hlineto
          -5 -3 -2 -7 hvcurveto
          -49 vlineto
          -68 -37 -41 -67 vhcurveto
          -130 hlineto
          -67 -37 41 68 hvcurveto
          369 vlineto
          68 37 41 67 vhcurveto
          130 hlineto
          67 37 -41 -68 hvcurveto
          -49 vlineto
          -7 3 -2 5 vhcurveto
          endchar
        </CharString>
        <CharString name="Cdotaccent">
          46 0 28 587 28 hstem
          80 30 154 30 154 30 vstem
          cntrmask 00111000
          264 722 rmoveto
          -57 callsubr
          80 -821 rmoveto
          -89 callsubr
          endchar
        </CharString>
        <CharString name="D">
          61 0 28 587 28 hstem
          90 30 328 30 vstem
          129 28 rmoveto
          -88 callsubr
          -254 -19 rmoveto
          -87 callsubr
          endchar
        </CharString>
        <CharString name="Dcaron">
          61 0 28 587 28 hstem
          90 30 328 30 vstem
          269 707 rmoveto
          -11 callsubr
          -140 -679 rmoveto
          -88 callsubr
          -254 -19 rmoveto
          -87 callsubr
          endchar
        </CharString>
        <CharString name="Dcroat">
          3 0 28 334 28 225 28 hstem
          90 30 328 30 vstem
          129 28 rmoveto
          -7 -2 3 5 hvcurveto
          318 vlineto
          5 2 3 7 vhcurveto
          166 hlineto
          7 2 3 5 hvcurveto
          12 vlineto
          5 -2 3 -7 vhcurveto
          -166 hlineto
          -7 -2 3 5 hvcurveto
          209 vlineto
          5 2 3 7 vhcurveto
          215 hlineto
          67 37 -41 -68 hvcurveto
          -369 vlineto
          -68 -37 -41 -67 vhcurveto
          -28 vmoveto
          81 53 53 83 hvcurveto
          371 vlineto
          83 -53 53 -81 vhcurveto
          -246 hlineto
          -5 -3 -2 -7 hvcurveto
          -236 vlineto
          -5 -2 -3 -7 vhcurveto
          -46 hlineto
          -7 -2 -3 -5 hvcurveto
          -12 vlineto
          -5 2 -3 7 vhcurveto
          46 hlineto
          7 2 -3 -5 hvcurveto
          -345 vlineto
          -7 3 -2 5 vhcurveto
          endchar
        </CharString>
        <CharString name="E">
          -16 0 28 286 28 273 28 hstem
          90 30 vstem
          402 hmoveto
          -86 callsubr
          endchar
        </CharString>
        <CharString name="Eacute">
          -16 0 28 286 28 273 28 hstem
          90 30 vstem
          319 836 rmoveto
          -33 callsubr
          53 -836 rmoveto
          -86 callsubr
          endchar
        </CharString>
        <CharString name="Ebreve">
          -16 0 28 286 28 273 28 64 22 hstem
          90 30 28 26 141 24 vstem
          148 827 rmoveto
          -12 callsubr
          254 -827 rmoveto
          -86 callsubr
          endchar
        </CharString>
        <CharString name="Ecaron">
          -16 0 28 286 28 273 28 hstem
          90 30 vstem
          245 707 rmoveto
          -11 callsubr
          157 -707 rmoveto
          -86 callsubr
          endchar
        </CharString>
        <CharString name="Ecircumflex">
          -16 0 28 286 28 273 28 hstem
          90 30 vstem
          274 827 rmoveto
          -31 callsubr
          64 -718 rmoveto
          -86 callsubr
          endchar
        </CharString>
        <CharString name="Edieresis">
          -16 0 28 286 28 273 28 64 129 hstem
          90 30 37 30 126 30 vstem
          157 716 rmoveto
          -36 callsubr
          156 -111 rmoveto
          -36 callsubr
          89 -827 rmoveto
          -86 callsubr
          endchar
        </CharString>
        <CharString name="Edotaccent">
          3 0 28 286 28 273 28 hstem
          90 30 115 30 vstem
          235 722 rmoveto
          -57 callsubr
          167 -821 rmoveto
          -86 callsubr
          endchar
        </CharString>
        <CharString name="Egrave">
          -16 0 28 286 28 273 28 hstem
          90 30 vstem
          203 827 rmoveto
          -68 callsubr
          131 -716 rmoveto
          -86 callsubr
          endchar
        </CharString>
        <CharString name="Emacron">
          -16 0 28 286 28 273 28 114 28 hstem
          90 30 vstem
          352 757 rmoveto
          -13 callsubr
          254 -757 rmoveto
          -86 callsubr
          endchar
        </CharString>
        <CharString name="Eng">
          3 -133 28 126 -21 hstem
          90 30 338 30 vstem
          354 -133 rmoveto
          81 53 53 83 hvcurveto
          631 vlineto
          7 -3 2 -5 vhcurveto
          -14 hlineto
          -5 -3 -2 -7 hvcurveto
          -562 -4 vlineto
          -335 567 rlineto
          -1 2 -2 2 -4 0 rrcurveto
          -14 hlineto
          -5 -3 -2 -7 hvcurveto
          -625 vlineto
          -7 3 -2 5 vhcurveto
          14 hlineto
          5 3 2 7 hvcurveto
          564 4 vlineto
          334 -565 0 -4 rlineto
          -68 -37 -41 -67 vhcurveto
          -20 hlineto
          -7 -2 -3 -5 hvcurveto
          -12 vlineto
          -5 2 -3 7 vhcurveto
          endchar
        </CharString>
        <CharString name="Eogonek">
          -16 -101 27 74 28 286 28 273 28 hstem
          90 30 vstem
          402 615 rmoveto
          7 2 3 5 hvcurveto
          12 vlineto
          5 -2 3 -7 vhcurveto
          -304 hlineto
          -5 -3 -2 -7 hvcurveto
          -625 vlineto
          -7 3 -2 5 vhcurveto
          221 0 -52 -66 rlineto
          -14 -17 6 -18 32 0 rrcurveto
          41 26 8 9 7 -5 3 -24 hvcurveto
          -38 0 57 74 54 0 rlineto
          7 2 3 5 hvcurveto
          12 vlineto
          5 -2 3 -7 vhcurveto
          -273 hlineto
          -7 -2 3 5 hvcurveto
          270 vlineto
          5 2 3 7 vhcurveto
          247 hlineto
          7 2 3 5 hvcurveto
          12 vlineto
          5 -2 3 -7 vhcurveto
          -247 hlineto
          -7 -2 3 5 hvcurveto
          257 vlineto
          5 2 3 7 vhcurveto
          endchar
        </CharString>
        <CharString name="Eth">
          3 0 28 284 28 275 28 hstem
          90 30 328 30 vstem
          129 28 rmoveto
          -7 -2 3 5 hvcurveto
          268 vlineto
          5 2 3 7 vhcurveto
          166 hlineto
          7 2 3 5 hvcurveto
          12 vlineto
          5 -2 3 -7 vhcurveto
          -166 hlineto
          -7 -2 3 5 hvcurveto
          259 vlineto
          5 2 3 7 vhcurveto
          215 hlineto
          67 37 -41 -68 hvcurveto
          -369 vlineto
          -68 -37 -41 -67 vhcurveto
          -28 vmoveto
          81 53 53 83 hvcurveto
          371 vlineto
          83 -53 53 -81 vhcurveto
          -246 hlineto
          -5 -3 -2 -7 hvcurveto
          -286 vlineto
          -5 -2 -3 -7 vhcurveto
          -46 hlineto
          -7 -2 -3 -5 hvcurveto
          -12 vlineto
          -5 2 -3 7 vhcurveto
          46 hlineto
          7 2 -3 -5 hvcurveto
          -295 vlineto
          -7 3 -2 5 vhcurveto
          endchar
        </CharString>
        <CharString name="Euro">
          20 0 28 219 28 92 28 220 28 hstem
          114 30 273 30 vstem
          313 hmoveto
          81 53 50 83 hvcurveto
          29 vlineto
          7 -3 2 -5 vhcurveto
          -14 hlineto
          -5 -3 -2 -7 hvcurveto
          -28 vlineto
          -68 -37 -38 -67 vhcurveto
          -65 hlineto
          -67 -37 38 68 hvcurveto
          113 176 vlineto
          7 2 3 5 hvcurveto
          12 vlineto
          5 -2 3 -7 vhcurveto
          -176 92 176 hlineto
          7 2 3 5 hvcurveto
          12 vlineto
          5 -2 3 -7 vhcurveto
          -176 114 hlineto
          68 37 38 67 vhcurveto
          65 hlineto
          67 37 -38 -68 hvcurveto
          -28 vlineto
          -7 3 -2 5 vhcurveto
          14 hlineto
          5 3 2 7 hvcurveto
          29 vlineto
          83 -53 50 -81 vhcurveto
          -65 hlineto
          -81 -53 -50 -83 hvcurveto
          -115 -65 vlineto
          -7 -2 -3 -5 hvcurveto
          -12 vlineto
          -5 2 -3 7 vhcurveto
          65 -92 -65 hlineto
          -7 -2 -3 -5 hvcurveto
          -12 vlineto
          -5 2 -3 7 vhcurveto
          65 -114 hlineto
          -83 53 -50 81 vhcurveto
          endchar
        </CharString>
        <CharString name="F">
          -35 21 -21 305 28 282 28 hstem
          90 30 vstem
          112 hmoveto
          5 3 2 7 hvcurveto
          288 vlineto
          5 2 3 7 vhcurveto
          247 hlineto
          7 2 3 5 hvcurveto
          12 vlineto
          5 -2 3 -7 vhcurveto
          -247 hlineto
          -7 -2 3 5 hvcurveto
          266 vlineto
          5 2 3 7 vhcurveto
          274 hlineto
          7 2 3 5 hvcurveto
          12 vlineto
          5 -2 3 -7 vhcurveto
          -305 hlineto
          -5 -3 -2 -7 hvcurveto
          -625 vlineto
          -7 3 -2 5 vhcurveto
          endchar
        </CharString>
        <CharString name="G">
          41 0 28 268 28 291 28 hstem
          80 30 318 30 vstem
          324 hmoveto
          -85 callsubr
          endchar
        </CharString>
        <CharString name="Gbreve">
          41 0 28 268 28 291 28 64 22 hstem
          80 30 64 26 141 24 63 30 vstem
          174 827 rmoveto
          -12 callsubr
          150 -827 rmoveto
          -85 callsubr
          endchar
        </CharString>
        <CharString name="Gcircumflex">
          41 0 28 268 28 291 28 hstem
          80 30 318 30 vstem
          293 827 rmoveto
          -31 callsubr
          -33 -718 rmoveto
          -85 callsubr
          endchar
        </CharString>
        <CharString name="Gdotaccent">
          41 0 28 268 28 291 28 hstem
          80 30 143 30 145 30 vstem
          253 722 rmoveto
          -57 callsubr
          71 -821 rmoveto
          -85 callsubr
          endchar
        </CharString>
        <CharString name="H">
          71 21 -21 314 28 hstem
          90 30 328 30 vstem
          112 hmoveto
          5 3 2 7 hvcurveto
          297 vlineto
          5 2 3 7 vhcurveto
          310 hlineto
          7 2 -3 -5 hvcurveto
          -297 vlineto
          -7 3 -2 5 vhcurveto
          14 hlineto
          5 3 2 7 hvcurveto
          625 vlineto
          7 -3 2 -5 vhcurveto
          -14 hlineto
          -5 -3 -2 -7 hvcurveto
          -284 vlineto
          -5 -2 -3 -7 vhcurveto
          -310 hlineto
          -7 -2 3 5 hvcurveto
          284 vlineto
          7 -3 2 -5 vhcurveto
          -14 hlineto
          -5 -3 -2 -7 hvcurveto
          -625 vlineto
          -7 3 -2 5 vhcurveto
          endchar
        </CharString>
        <CharString name="Hbar">
          3 21 -21 314 28 130 28 hstem
          90 30 328 30 vstem
          112 hmoveto
          5 3 2 7 hvcurveto
          297 vlineto
          5 2 3 7 vhcurveto
          310 hlineto
          7 2 -3 -5 hvcurveto
          -297 vlineto
          -7 3 -2 5 vhcurveto
          14 hlineto
          5 3 2 7 hvcurveto
          455 vlineto
          5 2 3 7 vhcurveto
          46 hlineto
          7 2 3 5 hvcurveto
          12 vlineto
          5 -2 3 -7 vhcurveto
          -46 hlineto
          -7 -2 3 5 hvcurveto
          126 vlineto
          7 -3 2 -5 vhcurveto
          -14 hlineto
          -5 -3 -2 -7 hvcurveto
          -126 vlineto
          -5 -2 -3 -7 vhcurveto
          -310 hlineto
          -7 -2 3 5 hvcurveto
          126 vlineto
          7 -3 2 -5 vhcurveto
          -14 hlineto
          -5 -3 -2 -7 hvcurveto
          -126 vlineto
          -5 -2 -3 -7 vhcurveto
          -46 hlineto
          -7 -2 -3 -5 hvcurveto
          -12 vlineto
          -5 2 -3 7 vhcurveto
          46 hlineto
          7 2 -3 -5 hvcurveto
          -455 vlineto
          -7 3 -2 5 vhcurveto
          31 342 rmoveto
          -7 -2 3 5 hvcurveto
          114 vlineto
          5 2 3 7 vhcurveto
          310 hlineto
          7 2 -3 -5 hvcurveto
          -114 vlineto
          -5 -2 -3 -7 vhcurveto
          endchar
        </CharString>
        <CharString name="I">
          -277 21 -21 hstem
          95 30 vstem
          125 634 rmoveto
          -84 callsubr
          endchar
        </CharString>
        <CharString name="IJ">
          215 0 28 hstem
          95 30 139 30 308 30 vstem
          610 643 rmoveto
          -83 callsubr
          -499 -9 rmoveto
          -84 callsubr
          endchar
        </CharString>
        <CharString name="Iacute">
          -276 21 -21 hstem
          95 30 vstem
          186 836 rmoveto
          -33 callsubr
          -91 -202 rmoveto
          -84 callsubr
          endchar
        </CharString>
        <CharString name="Ibreve">
          -276 21 -21 707 22 hstem
          15 26 54 30 57 24 vstem
          15 827 rmoveto
          -12 callsubr
          110 -193 rmoveto
          -84 callsubr
          endchar
        </CharString>
        <CharString name="Icircumflex">
          -277 21 -21 hstem
          95 30 vstem
          134 827 rmoveto
          -31 callsubr
          -73 -84 rmoveto
          -84 callsubr
          endchar
        </CharString>
        <CharString name="Idieresis">
          -277 21 -21 707 129 hstem
          17 30 48 30 48 30 vstem
          cntrmask 00111000
          17 716 rmoveto
          -36 callsubr
          156 -111 rmoveto
          -36 callsubr
          -48 -193 rmoveto
          -84 callsubr
          endchar
        </CharString>
        <CharString name="Idotaccent">
          -277 21 -21 hstem
          95 30 vstem
          125 634 rmoveto
          -84 callsubr
          -30 683 rmoveto
          -57 callsubr
          endchar
        </CharString>
        <CharString name="Igrave">
          -277 21 -21 hstem
          95 30 vstem
          50 827 rmoveto
          -68 callsubr
          7 -82 rmoveto
          -84 callsubr
          endchar
        </CharString>
        <CharString name="Imacron">
          -277 21 -21 757 28 hstem
          95 30 vstem
          212 757 rmoveto
          -13 callsubr
          117 -123 rmoveto
          -84 callsubr
          endchar
        </CharString>
        <CharString name="Iogonek">
          -277 -101 27 hstem
          95 30 vstem
          103 643 rmoveto
          -5 -3 -2 -7 hvcurveto
          0 -617 -66 -83 rlineto
          -14 -17 6 -18 32 0 rrcurveto
          41 26 8 9 7 -5 3 -24 hvcurveto
          -38 0 57 74 7 0 rlineto
          5 3 2 7 hvcurveto
          625 vlineto
          7 -3 2 -5 vhcurveto
          endchar
        </CharString>
        <CharString name="Itilde">
          -277 21 -21 702 21 87 21 hstem
          7 23 65 30 65 23 vstem
          cntrmask 00011100
          122 765 rmoveto
          -30 callsubr
          3 -131 rmoveto
          -84 callsubr
          endchar
        </CharString>
        <CharString name="J">
          -4 0 28 hstem
          40 30 308 30 vstem
          386 643 rmoveto
          -83 callsubr
          endchar
        </CharString>
        <CharString name="Jcircumflex">
          -4 0 28 hstem
          40 30 308 30 vstem
          386 643 rmoveto
          -83 callsubr
          13 184 rmoveto
          -31 callsubr
          endchar
        </CharString>
        <CharString name="K">
          26 21 -21 hstem
          90 30 vstem
          112 hmoveto
          -82 callsubr
          endchar
        </CharString>
        <CharString name="L">
          -45 0 30 hstem
          90 30 vstem
          413 hmoveto
          -81 callsubr
          endchar
        </CharString>
        <CharString name="Lacute">
          -45 0 30 hstem
          90 30 vstem
          180 836 rmoveto
          -33 callsubr
          203 -836 rmoveto
          -81 callsubr
          endchar
        </CharString>
        <CharString name="Lcaron">
          -45 0 30 hstemhm
          90 30 196 37 -37 11 hintmask 11100000
          353 634 rmoveto
          -103 callsubr
          hintmask 11010000
          -102 callsubr
          hintmask 11100000
          -101 callsubr
          60 -555 rmoveto
          -81 callsubr
          endchar
        </CharString>
        <CharString name="Ldot">
          3 0 30 hstem
          90 30 154 37 vstem
          413 hmoveto
          -81 callsubr
          213 378 rmoveto
          -100 callsubr
          endchar
        </CharString>
        <CharString name="Lslash">
          3 0 30 hstem
          90 30 vstem
          413 hmoveto
          7 2 3 5 hvcurveto
          14 vlineto
          5 -2 3 -7 vhcurveto
          -284 hlineto
          -7 -2 3 5 hvcurveto
          0 380 106 60 rlineto
          7 4 2 3 0 5 rrcurveto
          15 vlineto
          0 5 -2 4 -7 -4 rrcurveto
          -106 -60 0 184 rlineto
          7 -3 2 -5 vhcurveto
          -14 hlineto
          -5 -3 -2 -7 hvcurveto
          0 -201 -75 -43 rlineto
          -7 -4 -2 -3 0 -5 rrcurveto
          -16 vlineto
          0 -5 2 -3 7 4 rrcurveto
          75 43 0 -392 rlineto
          -7 3 -2 5 vhcurveto
          endchar
        </CharString>
        <CharString name="M">
          191 21 -21 hstem
          90 30 448 30 vstem
          346 177 rmoveto
          -4 0 -209 462 rlineto
          -1 2 -2 2 -4 0 rrcurveto
          -28 hlineto
          -5 -3 -2 -7 hvcurveto
          -625 vlineto
          -7 3 -2 5 vhcurveto
          14 hlineto
          5 3 2 7 hvcurveto
          577 4 vlineto
          199 -438 rlineto
          3 -6 3 -2 6 0 rrcurveto
          19 hlineto
          6 0 3 2 3 6 rrcurveto
          198 437 4 0 0 -576 rlineto
          -7 3 -2 5 vhcurveto
          14 hlineto
          5 3 2 7 hvcurveto
          625 vlineto
          7 -3 2 -5 vhcurveto
          -28 hlineto
          -4 0 -2 -2 -1 -2 rrcurveto
          endchar
        </CharString>
        <CharString name="Mu">
          21 0 28 hstem
          85 30 288 30 vstem
          115 44 rmoveto
          44 -53 65 9 69 0 63 0 29 26 14 26 rrcurveto
          4 -43 hlineto
          -7 3 -2 5 vhcurveto
          14 hlineto
          5 3 2 7 hvcurveto
          492 vlineto
          7 -3 2 -5 vhcurveto
          -14 hlineto
          -5 -3 -2 -7 hvcurveto
          -369 vlineto
          -69 -47 -35 -65 vhcurveto
          -72 hlineto
          -67 -37 41 68 hvcurveto
          364 vlineto
          7 -3 2 -5 vhcurveto
          -14 hlineto
          -5 -3 -2 -7 hvcurveto
          -625 vlineto
          -7 3 -2 5 vhcurveto
          14 hlineto
          5 3 2 7 hvcurveto
          endchar
        </CharString>
        <CharString name="N">
          81 21 -21 hstem
          90 30 338 30 vstem
          112 hmoveto
          -80 callsubr
          endchar
        </CharString>
        <CharString name="NULL">
          -497 endchar
        </CharString>
        <CharString name="Nacute">
          81 21 -21 hstem
          90 30 338 30 vstem
          375 836 rmoveto
          -33 callsubr
          -293 -836 rmoveto
          -80 callsubr
          endchar
        </CharString>
        <CharString name="Ncaron">
          81 21 -21 hstem
          90 30 338 30 vstem
          112 hmoveto
          -80 callsubr
          186 707 rmoveto
          -11 callsubr
          endchar
        </CharString>
        <CharString name="Ntilde">
          81 21 -21 702 21 87 21 hstem
          90 30 66 23 160 23 66 30 vstem
          301 765 rmoveto
          -30 callsubr
          -189 -765 rmoveto
          -80 callsubr
          endchar
        </CharString>
        <CharString name="O">
          56 0 28 587 28 hstem
          80 30 333 30 vstem
          214 28 rmoveto
          -79 callsubr
          -28 vmoveto
          -78 callsubr
          endchar
        </CharString>
        <CharString name="OE">
          276 0 28 286 28 273 28 hstem
          80 30 262 30 vstem
          80 136 rmoveto
          -83 53 -53 81 vhcurveto
          470 hlineto
          7 2 3 5 hvcurveto
          12 vlineto
          5 -2 3 -7 vhcurveto
          -273 hlineto
          -7 -2 3 5 hvcurveto
          270 vlineto
          5 2 3 7 vhcurveto
          247 hlineto
          7 2 3 5 hvcurveto
          12 vlineto
          5 -2 3 -7 vhcurveto
          -247 hlineto
          -7 -2 3 5 hvcurveto
          257 vlineto
          5 2 3 7 vhcurveto
          273 hlineto
          7 2 3 5 hvcurveto
          12 vlineto
          5 -2 3 -7 vhcurveto
          -470 hlineto
          -81 -53 -53 -83 hvcurveto
          134 -479 rmoveto
          -67 -37 41 68 hvcurveto
          369 vlineto
          68 37 41 67 vhcurveto
          149 hlineto
          7 2 -3 -5 hvcurveto
          -571 vlineto
          -5 -2 -3 -7 vhcurveto
          endchar
        </CharString>
        <CharString name="Oacute">
          56 0 28 587 28 hstem
          80 30 333 30 vstem
          345 836 rmoveto
          -33 callsubr
          -161 -808 rmoveto
          -79 callsubr
          -28 vmoveto
          -78 callsubr
          endchar
        </CharString>
        <CharString name="Obreve">
          56 0 28 587 28 64 22 hstem
          80 30 71 26 141 24 71 30 vstem
          181 827 rmoveto
          -12 callsubr
          33 -799 rmoveto
          -79 callsubr
          -28 vmoveto
          -78 callsubr
          endchar
        </CharString>
        <CharString name="Ocircumflex">
          56 0 28 587 28 hstem
          80 30 333 30 vstem
          300 827 rmoveto
          -31 callsubr
          -150 -690 rmoveto
          -79 callsubr
          -28 vmoveto
          -78 callsubr
          endchar
        </CharString>
        <CharString name="Odieresis">
          56 0 28 587 28 64 129 hstem
          80 30 73 30 126 30 74 30 vstem
          183 716 rmoveto
          -36 callsubr
          156 -111 rmoveto
          -36 callsubr
          -125 -799 rmoveto
          -79 callsubr
          -28 vmoveto
          -78 callsubr
          endchar
        </CharString>
        <CharString name="Ograve">
          56 0 28 587 28 hstem
          80 30 333 30 vstem
          221 827 rmoveto
          -68 callsubr
          -75 -688 rmoveto
          -79 callsubr
          -28 vmoveto
          -78 callsubr
          endchar
        </CharString>
        <CharString name="Ohungarumlaut">
          56 0 28 587 28 hstem
          80 30 333 30 vstem
          287 836 rmoveto
          -6 callsubr
          94 hmoveto
          -6 callsubr
          -211 -808 rmoveto
          -79 callsubr
          -28 vmoveto
          -78 callsubr
          endchar
        </CharString>
        <CharString name="Omacron">
          56 0 28 587 28 114 28 hstem
          80 30 333 30 vstem
          378 757 rmoveto
          -13 callsubr
          40 -729 rmoveto
          -79 callsubr
          -28 vmoveto
          -78 callsubr
          endchar
        </CharString>
        <CharString name="Oslash">
          56 0 28 587 28 hstem
          80 30 333 30 vstem
          494 633 rmoveto
          -26 callsubr
          -393 -121 rmoveto
          -25 callsubr
          333 hmoveto
          -24 callsubr
          endchar
        </CharString>
        <CharString name="Oslashacute">
          55 0 28 587 28 hstem
          80 30 333 30 vstem
          494 633 rmoveto
          -26 callsubr
          -393 -121 rmoveto
          -25 callsubr
          333 hmoveto
          -24 callsubr
          -172 201 rmoveto
          -5 callsubr
          endchar
        </CharString>
        <CharString name="Otilde">
          56 0 28 587 28 59 21 87 21 hstem
          80 30 63 23 160 23 64 30 vstem
          288 765 rmoveto
          -30 callsubr
          -74 -737 rmoveto
          -79 callsubr
          -28 vmoveto
          -78 callsubr
          endchar
        </CharString>
        <CharString name="P">
          26 21 -21 248 28 339 28 hstem
          90 30 308 30 vstem
          112 hmoveto
          5 3 2 7 hvcurveto
          231 vlineto
          5 2 3 7 vhcurveto
          195 hlineto
          81 53 53 83 hvcurveto
          123 vlineto
          83 -53 53 -81 vhcurveto
          -226 hlineto
          -5 -3 -2 -7 hvcurveto
          -625 vlineto
          -7 3 -2 5 vhcurveto
          31 276 rmoveto
          -7 -2 3 5 hvcurveto
          323 vlineto
          5 2 3 7 vhcurveto
          195 hlineto
          67 37 -41 -68 hvcurveto
          -121 vlineto
          -68 -37 -41 -67 vhcurveto
          endchar
        </CharString>
        <CharString name="Pi">
          93 21 -21 613 30 hstem
          150 30 230 30 vstem
          172 hmoveto
          5 3 2 7 hvcurveto
          596 vlineto
          5 3 3 6 vhcurveto
          212 hlineto
          6 3 -3 -5 hvcurveto
          -596 vlineto
          -7 3 -2 5 vhcurveto
          14 hlineto
          5 3 2 7 hvcurveto
          596 vlineto
          5 3 3 6 vhcurveto
          92 hlineto
          7 2 3 5 hvcurveto
          14 vlineto
          5 -2 3 -7 vhcurveto
          -492 hlineto
          -7 -2 -3 -5 hvcurveto
          -14 vlineto
          -5 2 -3 7 vhcurveto
          92 hlineto
          6 3 -3 -5 hvcurveto
          -596 vlineto
          -7 3 -2 5 vhcurveto
          endchar
        </CharString>
        <CharString name="Q">
          56 0 28 587 28 hstem
          80 30 333 30 vstem
          214 28 rmoveto
          -79 callsubr
          73 -161 rmoveto
          5 0 3 3 -4 6 rrcurveto
          -77 124 rlineto
          81 53 53 83 hvcurveto
          371 vlineto
          83 -53 53 -81 vhcurveto
          -125 hlineto
          -81 -53 -53 -83 hvcurveto
          -371 vlineto
          -83 53 -53 81 vhcurveto
          90 0 77 -124 rlineto
          5 -8 4 -1 6 0 rrcurveto
          endchar
        </CharString>
        <CharString name="R">
          33 21 -21 271 28 316 28 hstem
          90 30 307 30 vstem
          112 hmoveto
          -77 callsubr
          31 299 rmoveto
          -76 callsubr
          endchar
        </CharString>
        <CharString name="Racute">
          33 21 -21 271 28 316 28 hstem
          90 30 307 30 vstem
          315 836 rmoveto
          -33 callsubr
          -233 -836 rmoveto
          -77 callsubr
          31 299 rmoveto
          -76 callsubr
          endchar
        </CharString>
        <CharString name="Rcaron">
          33 21 -21 271 28 316 28 hstem
          90 30 307 30 vstem
          245 707 rmoveto
          -11 callsubr
          -133 -707 rmoveto
          -77 callsubr
          31 299 rmoveto
          -76 callsubr
          endchar
        </CharString>
        <CharString name="S">
          71 0 28 587 28 hstem
          90 30 328 30 vstem
          90 136 rmoveto
          -75 callsubr
          endchar
        </CharString>
        <CharString name="Sacute">
          71 0 28 587 28 hstem
          90 30 328 30 vstem
          351 836 rmoveto
          -33 callsubr
          -291 -700 rmoveto
          -75 callsubr
          endchar
        </CharString>
        <CharString name="Scaron">
          71 0 28 587 28 hstem
          90 30 328 30 vstem
          279 707 rmoveto
          -11 callsubr
          -189 -571 rmoveto
          -75 callsubr
          endchar
        </CharString>
        <CharString name="Scircumflex">
          71 0 28 587 28 hstem
          90 30 328 30 vstem
          308 827 rmoveto
          -31 callsubr
          -282 -582 rmoveto
          -75 callsubr
          endchar
        </CharString>
        <CharString name="Sigma">
          -19 0 28 586 29 hstem
          241 321 rmoveto
          -179 -294 rlineto
          -1 -2 -1 -4 0 -4 rrcurveto
          -9 vlineto
          -5 2 -3 7 vhcurveto
          340 hlineto
          7 2 3 3 hvcurveto
          12 vlineto
          7 -2 3 -7 vhcurveto
          -313 4 hlineto
          171 274 rlineto
          6 10 0 12 -6 10 rrcurveto
          -170 272 0 4 312 0 rlineto
          7 2 3 5 hvcurveto
          13 vlineto
          5 -2 3 -7 vhcurveto
          -340 hlineto
          -7 -2 -3 -5 hvcurveto
          -10 vlineto
          0 -4 1 -4 1 -2 rrcurveto
          179 -290 rlineto
          endchar
        </CharString>
        <CharString name="T">
          -83 21 -21 615 28 hstem
          192 30 vstem
          214 hmoveto
          -74 callsubr
          endchar
        </CharString>
        <CharString name="Tbar">
          3 21 -21 332 28 255 28 hstem
          192 30 vstem
          214 hmoveto
          5 3 2 7 hvcurveto
          315 vlineto
          5 2 3 7 vhcurveto
          114 hlineto
          7 2 3 5 hvcurveto
          12 vlineto
          5 -2 3 -7 vhcurveto
          -114 hlineto
          -7 -2 3 5 hvcurveto
          239 vlineto
          5 2 3 7 vhcurveto
          154 hlineto
          7 2 3 5 hvcurveto
          12 vlineto
          5 -2 3 -7 vhcurveto
          -356 hlineto
          -7 -2 -3 -5 hvcurveto
          -12 vlineto
          -5 2 -3 7 vhcurveto
          154 hlineto
          7 2 -3 -5 hvcurveto
          -239 vlineto
          -5 -2 -3 -7 vhcurveto
          -104 hlineto
          -7 -2 -3 -5 hvcurveto
          -12 vlineto
          -5 2 -3 7 vhcurveto
          104 hlineto
          7 2 -3 -5 hvcurveto
          -315 vlineto
          -7 3 -2 5 vhcurveto
          endchar
        </CharString>
        <CharString name="Tcaron">
          -83 21 -21 615 28 hstem
          192 30 vstem
          203 707 rmoveto
          -11 callsubr
          11 -707 rmoveto
          -74 callsubr
          endchar
        </CharString>
        <CharString name="Thorn">
          3 21 -21 133 28 321 28 hstem
          125 30 237 30 vstem
          164 161 rmoveto
          -7 -2 3 5 hvcurveto
          305 vlineto
          5 2 3 7 vhcurveto
          124 hlineto
          67 37 -41 -68 hvcurveto
          -103 vlineto
          -68 -37 -41 -67 vhcurveto
          -141 -161 rmoveto
          5 3 2 7 hvcurveto
          116 vlineto
          5 2 3 7 vhcurveto
          124 hlineto
          81 53 53 83 hvcurveto
          105 vlineto
          83 -53 53 -81 vhcurveto
          -124 hlineto
          -7 -2 3 5 hvcurveto
          116 vlineto
          7 -3 2 -5 vhcurveto
          -14 hlineto
          -5 -3 -2 -7 hvcurveto
          -625 vlineto
          -7 3 -2 5 vhcurveto
          endchar
        </CharString>
        <CharString name="U">
          53 0 28 hstem
          85 30 320 30 vstem
          443 643 rmoveto
          -73 callsubr
          endchar
        </CharString>
        <CharString name="Uacute">
          53 0 28 hstem
          85 30 320 30 vstem
          343 836 rmoveto
          -33 callsubr
          70 -193 rmoveto
          -73 callsubr
          endchar
        </CharString>
        <CharString name="Ubreve">
          53 0 28 679 22 hstem
          85 30 65 26 141 24 64 30 vstem
          180 827 rmoveto
          -12 callsubr
          263 -184 rmoveto
          -73 callsubr
          endchar
        </CharString>
        <CharString name="Ucircumflex">
          53 0 28 hstem
          85 30 320 30 vstem
          299 827 rmoveto
          -31 callsubr
          80 -75 rmoveto
          -73 callsubr
          endchar
        </CharString>
        <CharString name="Udieresis">
          53 0 28 679 129 hstem
          85 30 67 30 126 30 67 30 vstem
          182 716 rmoveto
          -36 callsubr
          156 -111 rmoveto
          -36 callsubr
          105 -184 rmoveto
          -73 callsubr
          endchar
        </CharString>
        <CharString name="Ugrave">
          53 0 28 hstem
          85 30 320 30 vstem
          227 827 rmoveto
          -68 callsubr
          148 -73 rmoveto
          -73 callsubr
          endchar
        </CharString>
        <CharString name="Uhungarumlaut">
          53 0 28 hstem
          85 30 320 30 vstem
          282 836 rmoveto
          -6 callsubr
          94 hmoveto
          -6 callsubr
          23 -193 rmoveto
          -73 callsubr
          endchar
        </CharString>
        <CharString name="Umacron">
          53 0 28 729 28 hstem
          85 30 320 30 vstem
          377 757 rmoveto
          -13 callsubr
          270 -114 rmoveto
          -73 callsubr
          endchar
        </CharString>
        <CharString name="Uogonek">
          53 -101 27 74 28 hstem
          85 30 320 30 vstem
          443 643 rmoveto
          -5 -3 -3 -6 hvcurveto
          -497 vlineto
          -68 -37 -41 -67 vhcurveto
          -112 hlineto
          -67 -37 41 68 hvcurveto
          497 vlineto
          7 -3 2 -5 vhcurveto
          -14 hlineto
          -5 -3 -2 -7 hvcurveto
          -498 vlineto
          -83 53 -53 81 vhcurveto
          62 0 -52 -66 rlineto
          -14 -17 6 -18 32 0 rrcurveto
          41 26 8 9 7 -5 3 -24 hvcurveto
          -38 0 57 74 21 0 rlineto
          81 53 53 83 hvcurveto
          499 vlineto
          5 -3 3 -5 vhcurveto
          endchar
        </CharString>
        <CharString name="Uring">
          53 0 28 664 23 133 23 hstem
          85 30 78 24 115 25 78 30 vstem
          279 692 rmoveto
          -29 callsubr
          23 vmoveto
          -28 callsubr
          164 -72 rmoveto
          -73 callsubr
          endchar
        </CharString>
        <CharString name="Utilde">
          53 0 28 674 21 87 21 hstem
          85 30 57 23 160 23 57 30 vstem
          287 765 rmoveto
          -30 callsubr
          156 -122 rmoveto
          -73 callsubr
          endchar
        </CharString>
        <CharString name="V">
          -3 21 -21 hstem
          259 hmoveto
          5 0 3 2 2 7 rrcurveto
          194 625 rlineto
          2 7 -3 2 -5 0 rrcurveto
          -15 hlineto
          -5 0 -3 -2 -2 -7 rrcurveto
          -183 -590 -4 0 -183 590 rlineto
          -2 7 -3 2 -5 0 rrcurveto
          -15 hlineto
          -5 0 -3 -2 2 -7 rrcurveto
          194 -625 rlineto
          2 -7 3 -2 5 0 rrcurveto
          endchar
        </CharString>
        <CharString name="W">
          293 0 38 hstem
          219 hmoveto
          -72 callsubr
          endchar
        </CharString>
        <CharString name="Wacute">
          294 0 38 hstem
          473 836 rmoveto
          -33 callsubr
          -284 -836 rmoveto
          -72 callsubr
          endchar
        </CharString>
        <CharString name="Wcircumflex">
          294 0 38 hstem
          419 827 rmoveto
          -31 callsubr
          -264 -718 rmoveto
          -72 callsubr
          endchar
        </CharString>
        <CharString name="Wdieresis">
          294 0 38 669 129 hstem
          302 30 126 30 vstem
          302 716 rmoveto
          -36 callsubr
          156 -111 rmoveto
          -36 callsubr
          -239 -827 rmoveto
          -72 callsubr
          endchar
        </CharString>
        <CharString name="Wgrave">
          294 0 38 hstem
          332 827 rmoveto
          -68 callsubr
          -181 -716 rmoveto
          -72 callsubr
          endchar
        </CharString>
        <CharString name="X">
          -3 21 -21 hstem
          426 7 rmoveto
          3 -5 3 -2 5 0 rrcurveto
          16 hlineto
          6 0 1 4 -3 5 rrcurveto
          -189 334 178 291 rlineto
          4 7 -3 2 -5 0 rrcurveto
          -16 hlineto
          -6 0 -3 -2 -4 -7 rrcurveto
          -163 -269 -4 0 -164 269 rlineto
          -4 7 -4 2 -6 0 rrcurveto
          -14 hlineto
          -5 0 -3 -4 3 -5 rrcurveto
          179 -292 -190 -333 rlineto
          -3 -5 1 -4 6 0 rrcurveto
          16 hlineto
          5 0 3 2 3 5 rrcurveto
          176 310 4 0 rlineto
          endchar
        </CharString>
        <CharString name="Y">
          -11 21 -21 hstem
          228 30 vstem
          250 hmoveto
          -71 callsubr
          endchar
        </CharString>
        <CharString name="Yacute">
          -11 21 -21 hstem
          228 30 vstem
          315 836 rmoveto
          -33 callsubr
          -95 -836 rmoveto
          -71 callsubr
          endchar
        </CharString>
        <CharString name="Ycircumflex">
          -11 21 -21 hstem
          228 30 vstem
          267 827 rmoveto
          -31 callsubr
          -81 -718 rmoveto
          -71 callsubr
          endchar
        </CharString>
        <CharString name="Ydieresis">
          -11 21 -21 707 129 hstem
          150 30 48 30 48 30 vstem
          cntrmask 00111000
          150 716 rmoveto
          -36 callsubr
          156 -111 rmoveto
          -36 callsubr
          -56 -827 rmoveto
          -71 callsubr
          endchar
        </CharString>
        <CharString name="Ygrave">
          -11 21 -21 hstem
          228 30 vstem
          189 827 rmoveto
          -68 callsubr
          -7 -716 rmoveto
          -71 callsubr
          endchar
        </CharString>
        <CharString name="Z">
          -26 0 28 587 28 hstem
          40 8 rmoveto
          -70 callsubr
          endchar
        </CharString>
        <CharString name="Zacute">
          -26 0 28 587 28 hstem
          321 836 rmoveto
          -33 callsubr
          -311 -828 rmoveto
          -70 callsubr
          endchar
        </CharString>
        <CharString name="Zcaron">
          -26 0 28 587 28 hstem
          246 707 rmoveto
          -11 callsubr
          -206 -699 rmoveto
          -70 callsubr
          endchar
        </CharString>
        <CharString name="Zdotaccent">
          -26 0 28 587 28 hstem
          240 30 vstem
          240 722 rmoveto
          -57 callsubr
          -200 -813 rmoveto
          -70 callsubr
          endchar
        </CharString>
        <CharString name="a">
          1 0 28 454 28 hstem
          70 30 288 30 vstem
          278 hmoveto
          -67 callsubr
          184 132 rmoveto
          -66 callsubr
          endchar
        </CharString>
        <CharString name="aacute">
          1 0 28 454 28 hstem
          70 30 288 30 vstem
          328 703 rmoveto
          -33 callsubr
          -80 -703 rmoveto
          -67 callsubr
          184 132 rmoveto
          -66 callsubr
          endchar
        </CharString>
        <CharString name="abreve">
          1 0 28 454 28 64 22 hstem
          70 30 72 26 141 24 25 30 vstem
          172 694 rmoveto
          -12 callsubr
          106 -694 rmoveto
          -67 callsubr
          184 132 rmoveto
          -66 callsubr
          endchar
        </CharString>
        <CharString name="acircumflex">
          1 0 28 454 28 hstem
          70 30 288 30 vstem
          285 694 rmoveto
          -31 callsubr
          -71 -585 rmoveto
          -67 callsubr
          184 132 rmoveto
          -66 callsubr
          endchar
        </CharString>
        <CharString name="acute">
          -236 574 129 hstem
          72 117 vstem
          155 703 rmoveto
          -33 callsubr
          endchar
        </CharString>
        <CharString name="acute.uc">
          -236 707 129 hstem
          72 117 vstem
          155 836 rmoveto
          -33 callsubr
          endchar
        </CharString>
        <CharString name="adieresis">
          1 0 28 454 28 64 129 hstem
          70 30 72 30 126 30 30 30 vstem
          172 583 rmoveto
          -36 callsubr
          156 -111 rmoveto
          -36 callsubr
          -50 -694 rmoveto
          -67 callsubr
          184 132 rmoveto
          -66 callsubr
          endchar
        </CharString>
        <CharString name="ae">
          309 0 28 182 28 34 28 182 28 hstem
          70 30 288 30 288 30 vstem
          cntrmask 00001110
          418 202 rmoveto
          -20 callsubr
          288 109 rmoveto
          -19 callsubr
          -318 -241 rmoveto
          -18 callsubr
          endchar
        </CharString>
        <CharString name="aeacute">
          309 0 28 182 28 34 28 182 28 hstem
          70 30 288 30 288 30 vstem
          cntrmask 00001110
          485 703 rmoveto
          -33 callsubr
          -97 -501 rmoveto
          -20 callsubr
          288 109 rmoveto
          -19 callsubr
          -318 -241 rmoveto
          -18 callsubr
          endchar
        </CharString>
        <CharString name="agrave">
          1 0 28 454 28 hstem
          70 30 288 30 vstem
          221 694 rmoveto
          -68 callsubr
          -11 -583 rmoveto
          -67 callsubr
          184 132 rmoveto
          -66 callsubr
          endchar
        </CharString>
        <CharString name="amacron">
          1 0 28 454 28 117 25 hstem
          70 30 288 30 vstem
          376 627 rmoveto
          -34 callsubr
          106 -627 rmoveto
          -67 callsubr
          184 132 rmoveto
          -66 callsubr
          endchar
        </CharString>
        <CharString name="ampersand">
          95 0 28 230 28 329 28 hstem
          80 30 29 30 230 30 vstem
          487 6 rmoveto
          4 -4 4 -2 5 0 rrcurveto
          19 hlineto
          4 0 0 4 -2 2 rrcurveto
          -218 252 220 0 rlineto
          7 2 3 5 hvcurveto
          12 vlineto
          5 -2 3 -7 vhcurveto
          -244 0 -67 77 rlineto
          -34 37 -9 24 0 44 rrcurveto
          41 vlineto
          68 37 38 67 vhcurveto
          22 hlineto
          67 37 -38 -68 hvcurveto
          -48 vlineto
          -7 3 -2 5 vhcurveto
          14 hlineto
          5 3 2 7 hvcurveto
          49 vlineto
          83 -53 50 -81 vhcurveto
          -22 hlineto
          -81 -53 -50 -83 hvcurveto
          -43 vlineto
          0 -48 15 -31 33 -39 -79 -2 -28 -64 0 -58 rrcurveto
          -92 vlineto
          -83 53 -50 81 vhcurveto
          85 hlineto
          61 0 46 28 18 50 rrcurveto
          -210 -50 rmoveto
          -67 -37 38 68 hvcurveto
          90 vlineto
          0 64 33 38 61 4 rrcurveto
          196 -225 rlineto
          -9 -49 -35 -28 -57 0 rrcurveto
          endchar
        </CharString>
        <CharString name="aogonek">
          1 -110 36 74 28 454 28 hstem
          70 30 288 30 vstem
          204 510 rmoveto
          -81 -53 -53 -83 hvcurveto
          -238 vlineto
          -83 53 -53 81 vhcurveto
          74 hlineto
          63 0 29 26 14 26 rrcurveto
          4 -35 hlineto
          -66 -83 rlineto
          -14 -17 6 -27 32 0 rrcurveto
          41 26 17 9 7 -5 3 -24 hvcurveto
          -38 0 57 74 7 0 rlineto
          5 3 2 7 hvcurveto
          492 vlineto
          7 -3 2 -5 vhcurveto
          -206 -482 rmoveto
          -67 -37 41 68 hvcurveto
          236 vlineto
          68 37 41 67 vhcurveto
          175 hlineto
          7 2 -3 -5 hvcurveto
          -342 vlineto
          -69 -47 -35 -65 vhcurveto
          endchar
        </CharString>
        <CharString name="approxequal">
          15 211 28 -19 33 -13 28 106 28 -19 33 -13 28 hstemhm
          hintmask 10100000
          164 240 rmoveto
          -41 callsubr
          hintmask 01000000
          -40 callsubr
          hintmask 10000000
          -39 callsubr
          hintmask 01000000
          -38 callsubr
          hintmask 00010100
          163 vmoveto
          -41 callsubr
          hintmask 00001000
          -40 callsubr
          hintmask 00010000
          -39 callsubr
          hintmask 00001000
          -38 callsubr
          endchar
        </CharString>
        <CharString name="aring">
          1 0 28 454 28 43 23 133 23 hstem
          70 30 69 24 115 25 55 30 vstem
          388 132 rmoveto
          -66 callsubr
          -110 -474 rmoveto
          -67 callsubr
          -11 663 rmoveto
          -22 callsubr
          -24 -1 rmoveto
          -21 callsubr
          endchar
        </CharString>
        <CharString name="asciicircum">
          -44 365 278 hstem
          62 329 vstem
          360 374 rmoveto
          4 -6 3 -3 7 0 rrcurveto
          10 hlineto
          8 0 3 5 -4 7 rrcurveto
          -134 255 rlineto
          -4 7 -5 4 -10 0 rrcurveto
          -23 hlineto
          -10 0 -5 -4 -4 -7 rrcurveto
          -134 -255 rlineto
          -4 -7 3 -5 8 0 rrcurveto
          10 hlineto
          7 0 3 3 4 6 rrcurveto
          133 252 rlineto
          endchar
        </CharString>
        <CharString name="asciitilde">
          15 296 28 -19 33 -13 28 hstemhm
          hintmask 10100000
          164 325 rmoveto
          -41 callsubr
          hintmask 01000000
          -40 callsubr
          hintmask 10000000
          -39 callsubr
          hintmask 01000000
          -38 callsubr
          endchar
        </CharString>
        <CharString name="asterisk">
          -89 528 30 -23 29 hstemhm
          189 31 hintmask 10100000
          263 402 rmoveto
          4 -6 4 1 4 3 rrcurveto
          12 8 rlineto
          5 4 1 3 -4 4 rrcurveto
          -11 15 rlineto
          -28 39 -34 29 -12 9 15 -3 45 6 45 14 rrcurveto
          17 5 rlineto
          7 2 1 5 -2 4 rrcurveto
          -4 14 rlineto
          -2 6 -2 1 -6 -2 rrcurveto
          -18 -5 rlineto
          -46 -15 -38 -23 -12 -9 7 14 9 44 0 48 rrcurveto
          17 vlineto
          7 -3 2 -5 vhcurveto
          -15 hlineto
          -5 -3 -2 -7 hvcurveto
          -17 vlineto
          0 -48 10 -44 5 -14 -11 11 -39 22 -46 15 rrcurveto
          hintmask 01100000
          -16 5 rlineto
          -7 2 -3 -2 -1 -5 rrcurveto
          -5 -14 rlineto
          -2 -5 2 -3 6 -2 rrcurveto
          17 -6 rlineto
          45 -14 45 -4 15 0 -14 -7 -33 -30 -28 -39 rrcurveto
          -10 -14 rlineto
          -4 -6 1 -4 4 -2 rrcurveto
          12 -9 rlineto
          5 -3 3 0 3 5 rrcurveto
          11 15 rlineto
          28 38 17 42 5 14 2 -15 19 -41 28 -39 rrcurveto
          endchar
        </CharString>
        <CharString name="at">
          258 -58 28 113 28 321 28 115 28 hstem
          90 30 114 30 216 30 125 30 vstem
          521 -58 rmoveto
          7 2 3 5 hvcurveto
          12 vlineto
          5 -2 3 -7 vhcurveto
          -184 hlineto
          -111 -106 88 138 hvcurveto
          153 vlineto
          138 106 88 111 vhcurveto
          194 hlineto
          67 37 -41 -68 hvcurveto
          -246 vlineto
          -68 -37 -41 -67 vhcurveto
          -12 hlineto
          -7 -2 3 5 hvcurveto
          332 vlineto
          7 -3 2 -5 vhcurveto
          -134 hlineto
          -81 -53 -53 -83 hvcurveto
          -103 vlineto
          -83 53 -53 81 vhcurveto
          39 0 46 10 23 42 rrcurveto
          4 -25 hlineto
          -17 13 -12 15 vhcurveto
          23 hlineto
          81 53 53 83 hvcurveto
          248 vlineto
          83 -53 53 -81 vhcurveto
          -192 hlineto
          -120 -129 -87 -168 hvcurveto
          -151 vlineto
          -168 129 -87 120 vhcurveto
          141 275 rmoveto
          -69 -46 -35 -65 vhcurveto
          -1 hlineto
          -67 -37 41 68 hvcurveto
          101 vlineto
          68 37 41 67 vhcurveto
          103 hlineto
          7 2 -3 -5 hvcurveto
          endchar
        </CharString>
        <CharString name="atilde">
          3 0 28 454 28 67 21 87 21 hstem
          70 30 68 23 160 23 14 30 vstem
          168 655 rmoveto
          -23 callsubr
          110 -694 rmoveto
          -67 callsubr
          184 132 rmoveto
          -66 callsubr
          endchar
        </CharString>
</ttFont>
